{"glyphs":{"0":{"ha":853,"x_min":71,"x_max":782,"o":"m 782 407 q 755 238 782 315 q 680 105 728 161 q 567 17 632 49 q 426 -14 503 -14 q 285 17 350 -14 q 172 105 219 49 q 98 238 125 161 q 71 407 71 315 q 98 576 71 499 q 172 709 125 653 q 285 797 219 765 q 426 829 350 829 q 567 797 503 829 q 680 709 632 765 q 755 576 728 653 q 782 407 782 499 m 626 407 q 612 521 626 469 q 570 610 597 572 q 506 667 543 647 q 426 688 469 688 q 344 667 381 688 q 280 610 307 647 q 238 521 253 572 q 224 407 224 469 q 238 293 224 344 q 280 205 253 242 q 344 148 307 168 q 426 128 381 128 q 506 148 469 128 q 570 205 543 168 q 612 293 597 242 q 626 407 626 344 z "},"1":{"ha":654,"x_min":63,"x_max":621,"o":"m 621 138 l 621 0 l 90 0 l 90 138 l 288 138 l 288 622 q 249 588 275 606 q 190 554 222 569 q 124 528 158 539 q 63 518 89 518 l 63 661 q 127 678 90 661 q 198 717 164 694 q 258 761 232 739 q 288 793 283 783 l 444 793 l 444 138 l 621 138 z "},"2":{"ha":763,"x_min":56,"x_max":699,"o":"m 56 0 q 65 108 56 58 q 100 202 75 158 q 168 285 125 246 q 279 363 211 325 q 371 411 328 389 q 447 455 414 433 q 499 501 479 476 q 518 557 518 525 q 480 637 518 601 q 369 672 442 672 q 301 662 332 672 q 244 635 269 651 q 199 600 218 619 q 164 563 179 581 l 67 675 q 110 713 81 690 q 183 757 140 736 q 279 792 225 778 q 397 807 333 807 q 517 790 464 807 q 608 742 571 772 q 664 669 644 711 q 683 578 683 626 q 663 486 683 526 q 611 415 642 446 q 544 363 581 385 q 478 326 508 342 q 412 294 449 313 q 340 251 375 275 q 278 199 306 226 q 239 138 250 171 l 699 138 l 699 0 l 56 0 z "},"3":{"ha":763,"x_min":44,"x_max":706,"o":"m 513 328 q 592 298 556 319 q 653 244 628 276 q 692 171 678 213 q 706 81 706 129 q 681 -37 706 15 q 612 -126 657 -89 q 503 -184 567 -164 q 360 -204 439 -204 q 174 -167 254 -204 q 44 -61 93 -131 l 138 44 q 224 -36 171 -7 q 357 -65 276 -65 q 498 -26 449 -65 q 547 90 547 13 q 492 217 547 171 q 328 263 436 263 l 290 263 l 290 382 l 332 382 q 475 426 425 382 q 525 536 525 469 q 481 634 525 603 q 365 665 436 665 q 240 635 294 665 q 154 547 186 604 l 58 651 q 111 712 78 685 q 187 759 144 739 q 278 790 229 779 q 381 800 328 800 q 505 782 449 800 q 602 732 561 764 q 665 654 643 700 q 688 553 688 608 q 675 474 688 511 q 640 406 663 436 q 585 355 617 375 q 513 328 553 335 z "},"4":{"ha":783,"x_min":31,"x_max":732,"o":"m 457 -176 l 457 44 l 31 44 l 31 181 l 506 793 l 610 793 l 610 183 l 732 183 l 732 44 l 610 44 l 610 -176 l 457 -176 m 186 183 l 474 183 l 474 560 l 186 183 z "},"5":{"ha":765,"x_min":43,"x_max":719,"o":"m 396 440 q 524 417 465 440 q 627 351 583 393 q 695 251 671 310 q 719 124 719 193 q 692 -11 719 50 q 617 -116 665 -72 q 504 -183 569 -160 q 364 -207 439 -207 q 172 -159 257 -207 q 43 -29 88 -111 l 135 58 q 235 -36 174 0 q 365 -72 296 -72 q 507 -19 451 -72 q 563 121 563 33 q 548 197 563 163 q 508 255 533 231 q 449 293 483 279 q 375 307 415 307 q 276 284 322 307 q 201 217 231 261 l 67 217 q 73 250 68 222 q 86 319 78 278 q 104 413 94 361 q 125 517 114 464 q 179 793 150 640 l 661 793 l 661 653 l 290 653 l 240 383 q 303 425 264 410 q 396 440 343 440 z "},"6":{"ha":843,"x_min":67,"x_max":783,"o":"m 783 328 q 756 194 783 257 q 681 85 729 132 q 568 13 633 39 q 428 -14 503 -14 q 279 16 346 -14 q 165 102 213 46 q 92 240 118 158 q 67 424 67 321 q 94 672 67 565 q 169 849 121 778 q 288 957 218 921 q 443 993 357 993 q 616 950 538 993 q 743 828 694 907 l 653 733 q 565 826 621 792 q 440 860 508 860 q 274 772 336 860 q 210 524 213 683 q 301 622 240 586 q 442 658 363 658 q 576 633 514 658 q 685 563 639 607 q 757 458 731 518 q 783 328 783 397 m 428 117 q 509 133 471 117 q 576 179 547 150 q 621 247 604 208 q 638 328 638 285 q 621 408 638 371 q 576 474 604 446 q 509 519 547 503 q 428 536 471 536 q 347 519 385 536 q 280 474 308 503 q 235 408 251 446 q 218 328 218 371 q 235 247 218 285 q 280 179 251 208 q 347 133 308 150 q 428 117 385 117 z "},"7":{"ha":761,"x_min":39,"x_max":758,"o":"m 517 669 l 39 669 l 39 810 l 758 810 l 265 -176 l 92 -176 l 517 669 z "},"8":{"ha":835,"x_min":64,"x_max":769,"o":"m 769 285 q 741 163 769 218 q 664 69 713 108 q 551 10 615 31 q 415 -11 488 -11 q 277 12 342 -11 q 165 75 213 35 q 91 171 118 115 q 64 292 64 226 q 79 372 64 335 q 119 440 94 410 q 174 492 143 469 q 235 528 204 514 q 138 604 178 553 q 97 721 97 656 q 126 834 97 785 q 201 917 156 883 q 304 969 247 951 q 417 986 361 986 q 530 969 472 986 q 634 918 588 951 q 710 835 681 885 q 739 722 739 786 q 698 605 739 657 q 599 528 657 553 q 663 490 632 513 q 718 435 694 467 q 756 367 742 404 q 769 285 769 329 m 615 294 q 598 366 615 335 q 552 419 581 397 q 488 453 524 442 q 417 464 453 464 q 344 452 379 464 q 281 418 308 440 q 238 365 254 396 q 221 294 221 333 q 238 224 221 256 q 283 172 256 193 q 347 138 311 150 q 418 126 382 126 q 491 139 456 126 q 554 174 526 151 q 599 226 582 196 q 615 294 615 257 m 251 715 q 267 657 251 682 q 306 615 282 632 q 358 590 329 599 q 417 581 388 581 q 476 590 446 581 q 529 616 506 599 q 568 659 553 633 q 583 718 583 685 q 569 773 583 749 q 533 815 556 797 q 480 841 510 832 q 417 850 450 850 q 353 840 383 850 q 301 813 324 831 q 265 771 278 796 q 251 715 251 746 z "},"9":{"ha":818,"x_min":47,"x_max":764,"o":"m 47 451 q 75 585 47 522 q 151 694 103 647 q 264 767 199 740 q 404 793 329 793 q 551 763 485 793 q 665 677 618 733 q 738 540 713 621 q 764 356 764 458 q 737 108 764 214 q 661 -70 710 1 q 542 -178 613 -142 q 388 -214 472 -214 q 215 -171 293 -214 q 88 -49 136 -128 l 178 46 q 266 -47 210 -12 q 390 -81 322 -81 q 556 8 494 -81 q 621 256 618 96 q 530 157 592 193 q 389 121 468 121 q 254 147 317 121 q 146 217 192 172 q 74 322 100 261 q 47 451 47 382 m 403 663 q 322 646 360 663 q 255 600 283 629 q 210 533 226 571 q 193 451 193 494 q 210 371 193 408 q 255 305 226 333 q 322 260 283 276 q 403 243 360 243 q 484 260 446 243 q 551 305 522 276 q 596 371 579 333 q 613 451 613 408 q 596 533 613 494 q 551 600 579 571 q 484 646 522 629 q 403 663 446 663 z "}," ":{"ha":343,"x_min":0,"x_max":0,"o":""},"!":{"ha":394,"x_min":121,"x_max":274,"o":"m 121 351 l 121 996 l 274 996 l 274 351 l 121 351 m 121 0 l 121 190 l 274 190 l 274 0 l 121 0 z "},"\"":{"ha":496,"x_min":89,"x_max":407,"o":"m 89 696 l 89 1001 l 219 1001 l 219 696 l 89 696 m 276 696 l 276 1001 l 407 1001 l 407 696 l 276 696 z "},"#":{"ha":981,"x_min":51,"x_max":929,"o":"m 929 606 l 736 606 l 683 386 l 867 386 l 867 269 l 656 269 l 590 0 l 465 0 l 532 269 l 331 269 l 265 0 l 140 0 l 208 269 l 51 269 l 51 386 l 235 386 l 288 606 l 114 606 l 114 714 l 315 714 l 381 986 l 506 986 l 439 714 l 639 714 l 706 986 l 831 986 l 763 714 l 929 714 l 929 606 m 560 386 l 613 606 l 411 606 l 358 386 l 560 386 z "},"$":{"ha":872,"x_min":49,"x_max":817,"o":"m 707 754 q 670 784 694 768 q 614 815 646 800 q 544 840 582 829 q 465 853 506 850 l 465 565 l 492 560 q 627 519 567 542 q 729 465 688 497 q 794 387 771 433 q 817 274 817 340 q 790 148 817 200 q 717 61 764 96 q 609 9 671 26 q 476 -10 547 -8 l 476 -156 l 404 -156 l 404 -7 q 214 33 304 0 q 49 124 124 65 l 119 257 q 164 221 135 240 q 232 183 193 201 q 317 151 271 165 q 414 132 364 138 l 414 419 q 397 424 406 422 q 379 429 388 426 q 251 470 306 449 q 160 522 196 492 q 105 594 124 553 q 86 693 86 635 q 110 814 86 761 q 176 905 133 867 q 277 965 219 943 q 404 992 335 986 l 404 1132 l 476 1132 l 476 992 q 643 956 567 986 q 778 882 719 925 l 707 754 m 650 257 q 601 349 650 318 q 465 406 553 381 l 465 131 q 602 164 554 132 q 650 257 650 196 m 249 718 q 290 631 249 660 q 414 579 331 601 l 414 853 q 289 813 329 849 q 249 718 249 778 z "},"S":{"ha":849,"x_min":36,"x_max":804,"o":"m 694 754 q 654 787 681 769 q 592 819 628 804 q 515 844 557 835 q 428 854 472 854 q 283 818 329 854 q 236 718 236 782 q 251 659 236 682 q 296 619 265 636 q 372 588 326 601 q 479 560 418 575 q 615 519 554 542 q 717 465 675 497 q 781 387 758 433 q 804 274 804 340 q 776 144 804 199 q 698 56 747 90 q 583 6 649 22 q 443 -10 518 -10 q 226 24 331 -10 q 36 124 121 58 l 107 257 q 159 217 125 239 q 238 176 193 194 q 336 144 283 157 q 446 131 389 131 q 588 163 538 131 q 638 257 638 194 q 619 319 638 294 q 565 363 600 344 q 481 397 531 382 q 367 429 431 413 q 238 470 293 449 q 147 522 183 492 q 92 594 111 553 q 74 693 74 635 q 101 822 74 765 q 177 916 129 878 q 290 974 225 954 q 432 993 356 993 q 617 961 532 993 q 765 882 701 929 l 694 754 z "},"%":{"ha":1053,"x_min":50,"x_max":1003,"o":"m 271 588 q 185 603 225 588 q 115 647 144 619 q 67 713 85 675 q 50 793 50 750 q 67 874 50 836 q 115 940 85 911 q 185 984 144 968 q 271 1000 225 1000 q 357 984 317 1000 q 427 940 397 968 q 474 874 457 911 q 492 793 492 836 q 474 713 492 750 q 427 647 457 675 q 357 603 397 619 q 271 588 317 588 m 271 667 q 315 677 294 667 q 350 705 335 688 q 374 745 365 722 q 383 793 383 768 q 374 843 383 819 q 350 884 365 867 q 314 911 335 901 q 271 921 293 921 q 191 883 224 921 q 158 793 158 844 q 167 744 158 767 q 192 703 176 721 q 227 676 207 686 q 271 667 247 667 m 782 -14 q 696 2 736 -14 q 626 47 656 18 q 578 113 596 75 q 561 193 561 150 q 578 274 561 236 q 626 339 596 311 q 696 383 656 367 q 782 399 736 399 q 868 383 828 399 q 938 339 908 367 q 985 274 968 311 q 1003 193 1003 236 q 985 113 1003 150 q 938 47 968 75 q 868 2 908 18 q 782 -14 828 -14 m 782 65 q 862 103 829 65 q 894 193 894 140 q 885 242 894 219 q 860 283 876 265 q 824 310 844 300 q 782 319 804 319 q 738 309 758 319 q 703 281 718 299 q 678 241 688 264 q 669 193 669 218 q 678 143 669 167 q 703 102 688 119 q 738 75 718 85 q 782 65 758 65 m 113 56 l 503 518 l 869 994 l 942 932 l 558 475 l 183 -8 l 113 56 z "},"⁄":{"ha":256,"x_min":-287,"x_max":542,"o":"m -287 56 l 103 518 l 469 994 l 542 932 l 158 475 l -217 -8 l -287 56 z "},"&":{"ha":967,"x_min":60,"x_max":963,"o":"m 761 0 l 671 94 q 537 14 610 42 q 385 -14 464 -14 q 253 8 313 -14 q 150 69 193 31 q 83 159 107 107 q 60 269 60 211 q 74 357 60 317 q 114 432 89 397 q 172 496 139 467 q 242 550 206 525 q 188 614 210 585 q 153 669 167 643 q 134 719 140 694 q 128 769 128 743 q 148 862 128 819 q 203 935 168 904 q 285 982 238 965 q 389 999 333 999 q 485 985 439 999 q 565 944 531 971 q 620 878 600 918 q 640 789 640 839 q 626 713 640 747 q 586 647 611 678 q 527 587 561 615 q 454 532 493 558 l 676 299 q 713 403 700 347 q 726 524 726 460 l 851 524 q 828 349 850 429 q 765 206 806 269 l 963 0 l 761 0 m 401 107 q 501 126 453 107 q 589 182 549 146 l 333 453 q 242 368 276 413 q 207 268 207 324 q 222 202 207 232 q 265 151 238 172 q 326 119 292 131 q 401 107 361 107 m 268 774 q 272 747 268 760 q 287 717 276 733 q 316 679 297 700 q 363 628 335 658 q 463 705 426 668 q 500 786 500 742 q 469 858 500 831 q 389 885 438 885 q 302 852 336 885 q 268 774 268 819 z "},"'":{"ha":308,"x_min":89,"x_max":219,"o":"m 89 694 l 89 1001 l 219 1001 l 219 694 l 89 694 z "},"(":{"ha":411,"x_min":53,"x_max":372,"o":"m 53 481 q 69 621 53 551 q 112 760 85 690 q 176 901 139 831 q 254 1042 213 971 l 372 992 q 317 897 347 956 q 259 767 286 838 q 214 622 232 697 q 196 476 196 546 q 242 243 196 367 q 368 -8 289 119 l 257 -65 q 111 203 169 65 q 53 481 53 342 z "},")":{"ha":411,"x_min":39,"x_max":357,"o":"m 357 481 q 299 203 357 342 q 154 -65 242 65 l 42 -8 q 168 243 121 119 q 215 476 215 367 q 197 622 215 546 q 151 767 178 697 q 93 897 124 838 q 39 992 63 956 l 156 1042 q 234 901 197 971 q 298 760 271 831 q 341 621 325 690 q 357 481 357 551 z "},"*":{"ha":468,"x_min":76,"x_max":390,"o":"m 111 736 l 174 829 l 76 860 l 99 929 l 197 889 l 192 994 l 276 994 l 271 889 l 369 929 l 390 860 l 294 829 l 357 736 l 296 694 l 235 793 l 172 694 l 111 736 z "},"+":{"ha":582,"x_min":68,"x_max":514,"o":"m 514 554 l 514 432 l 360 432 l 360 264 l 222 264 l 222 432 l 68 432 l 68 554 l 222 554 l 222 722 l 360 722 l 360 554 l 514 554 z "},",":{"ha":307,"x_min":85,"x_max":222,"o":"m 101 -135 l 135 8 l 85 8 l 85 178 l 222 178 l 222 8 l 174 -135 l 101 -135 z "},"-":{"ha":585,"x_min":85,"x_max":500,"o":"m 85 311 l 85 449 l 500 449 l 500 311 l 85 311 z "},".":{"ha":296,"x_min":85,"x_max":211,"o":"m 85 0 l 85 178 l 211 178 l 211 0 l 85 0 z "},"/":{"ha":922,"x_min":38,"x_max":883,"o":"m 883 986 l 207 0 l 38 0 l 714 986 l 883 986 z "},":":{"ha":310,"x_min":92,"x_max":218,"o":"m 92 543 l 92 719 l 218 719 l 218 543 l 92 543 m 92 0 l 92 178 l 218 178 l 218 0 l 92 0 z "},";":{"ha":332,"x_min":97,"x_max":235,"o":"m 99 543 l 99 719 l 224 719 l 224 543 l 99 543 m 114 -135 l 147 8 l 97 8 l 97 178 l 235 178 l 235 8 l 186 -135 l 114 -135 z "},"<":{"ha":711,"x_min":46,"x_max":629,"o":"m 46 394 l 629 747 l 629 585 l 267 360 l 629 140 l 629 -29 l 46 318 l 46 394 z "},"=":{"ha":608,"x_min":89,"x_max":518,"o":"m 89 225 l 89 326 l 518 326 l 518 225 l 89 225 m 89 440 l 89 542 l 518 542 l 518 440 l 89 440 z "},">":{"ha":711,"x_min":82,"x_max":667,"o":"m 667 318 l 82 -29 l 82 140 l 444 360 l 82 585 l 82 747 l 667 394 l 667 318 z "},"?":{"ha":669,"x_min":47,"x_max":619,"o":"m 185 307 q 209 435 185 379 q 300 531 233 490 q 356 562 324 544 q 417 603 388 579 q 466 658 446 626 q 486 733 486 690 q 473 793 486 767 q 439 838 460 819 q 390 865 418 856 q 333 874 363 874 q 272 863 300 874 q 221 835 244 853 q 178 796 197 818 q 147 751 160 774 l 47 819 q 164 952 85 906 q 338 999 243 999 q 440 983 389 999 q 531 934 490 967 q 595 850 571 901 q 619 728 619 799 q 607 644 619 679 q 573 580 594 608 q 522 530 551 551 q 458 490 492 508 q 404 459 431 475 q 358 422 378 443 q 325 374 338 401 q 313 307 313 346 l 185 307 m 185 0 l 185 175 l 313 175 l 313 0 l 185 0 z "},"@":{"ha":1171,"x_min":61,"x_max":1099,"o":"m 583 838 q 779 801 686 838 q 943 698 872 765 q 1056 532 1014 631 q 1099 308 1099 433 q 1097 256 1099 289 q 1088 188 1094 224 q 1067 114 1081 151 q 1029 46 1053 76 q 971 -3 1006 15 q 888 -22 936 -22 q 828 -12 851 -22 q 790 15 804 -1 q 770 53 776 32 q 761 97 764 75 q 659 27 721 54 q 525 0 597 0 q 368 54 422 0 q 314 192 314 108 q 337 285 314 247 q 397 347 360 324 q 480 379 433 369 q 572 389 526 389 q 674 378 631 389 q 738 358 717 367 q 731 435 738 400 q 705 494 724 469 q 654 533 686 519 q 574 547 622 547 q 469 531 517 547 q 385 485 421 514 l 354 568 q 464 619 406 601 q 588 638 522 638 q 722 610 672 638 q 795 542 771 583 q 826 449 819 500 q 832 350 832 397 l 832 200 q 834 142 832 169 q 843 94 836 115 q 864 62 850 74 q 901 50 878 50 q 966 78 940 50 q 1006 148 992 107 q 1025 234 1019 189 q 1031 311 1031 279 q 997 494 1031 410 q 904 641 964 579 q 761 738 844 703 q 579 774 678 774 q 400 740 482 774 q 258 645 318 706 q 163 501 197 585 q 129 319 129 418 q 161 142 129 225 q 251 -4 193 58 q 389 -103 308 -67 q 567 -139 469 -139 q 681 -124 632 -139 q 782 -86 731 -110 l 804 -147 q 686 -189 746 -175 q 565 -203 626 -203 q 369 -165 461 -203 q 209 -57 278 -126 q 101 108 140 13 q 61 319 61 204 q 104 537 61 440 q 219 700 147 633 q 386 802 292 767 q 583 838 481 838 m 658 113 q 720 166 704 135 q 736 231 736 197 l 736 283 q 674 300 717 288 q 572 313 631 313 q 456 286 504 313 q 408 196 408 260 q 442 115 408 147 q 533 83 475 83 q 597 92 564 83 q 658 113 631 100 z "},"A":{"ha":938,"x_min":10,"x_max":926,"o":"m 401 986 l 538 986 l 926 0 l 763 0 l 658 268 l 278 268 l 175 0 l 10 0 l 401 986 m 628 383 l 469 807 l 306 383 l 628 383 z "},"B":{"ha":938,"x_min":111,"x_max":886,"o":"m 886 254 q 862 147 886 194 q 797 67 838 100 q 700 17 756 35 q 582 0 644 0 l 111 0 l 111 986 l 619 986 q 713 964 671 986 q 783 906 754 942 q 828 826 813 871 q 844 735 844 781 q 808 599 844 663 q 703 506 771 536 q 837 415 788 481 q 886 254 886 349 m 726 283 q 716 342 726 314 q 688 390 706 369 q 646 424 671 411 q 592 436 621 436 l 267 436 l 267 135 l 582 135 q 639 147 613 135 q 685 178 665 158 q 715 226 704 199 q 726 283 726 253 m 267 851 l 267 561 l 553 561 q 606 572 582 561 q 649 602 631 583 q 678 647 668 621 q 689 706 689 674 q 653 810 689 769 q 561 851 617 851 l 267 851 z "},"C":{"ha":950,"x_min":49,"x_max":917,"o":"m 49 500 q 81 677 49 589 q 174 835 113 765 q 325 949 236 906 q 526 992 414 992 q 757 932 661 992 q 901 776 853 872 l 779 694 q 729 769 758 739 q 665 818 700 800 q 593 844 631 836 q 521 851 556 851 q 385 820 443 851 q 287 738 326 789 q 227 622 247 686 q 207 494 207 558 q 231 357 207 422 q 297 242 254 292 q 397 162 339 192 q 525 132 456 132 q 599 141 561 132 q 673 170 638 150 q 738 221 708 190 q 788 294 768 251 l 917 221 q 850 123 893 165 q 753 51 807 81 q 638 7 699 22 q 519 -8 578 -8 q 329 36 415 -8 q 181 152 243 81 q 83 315 118 224 q 49 500 49 406 z "},"D":{"ha":994,"x_min":111,"x_max":942,"o":"m 111 0 l 111 986 l 461 986 q 670 947 581 986 q 820 842 760 908 q 911 685 881 775 q 942 494 942 596 q 908 291 942 382 q 811 135 874 200 q 660 35 749 71 q 461 0 571 0 l 111 0 m 783 494 q 762 638 783 572 q 699 749 740 703 q 597 822 657 796 q 461 849 538 849 l 267 849 l 267 138 l 461 138 q 599 165 539 138 q 701 240 660 192 q 763 353 742 288 q 783 494 783 418 z "},"E":{"ha":838,"x_min":111,"x_max":788,"o":"m 788 138 l 788 0 l 111 0 l 111 986 l 775 986 l 775 849 l 267 849 l 267 568 l 707 568 l 707 439 l 267 439 l 267 138 l 788 138 z "},"F":{"ha":804,"x_min":111,"x_max":768,"o":"m 111 0 l 111 986 l 768 986 l 768 849 l 267 849 l 267 554 l 686 554 l 686 425 l 267 425 l 267 0 l 111 0 z "},"G":{"ha":999,"x_min":50,"x_max":932,"o":"m 801 122 q 514 -7 676 -7 q 331 34 415 -7 q 183 144 246 75 q 85 306 121 214 q 50 497 50 397 q 85 688 50 597 q 183 846 121 778 q 332 953 246 914 q 519 993 418 993 q 757 934 661 993 q 901 778 853 875 l 782 692 q 671 813 742 772 q 515 853 600 853 q 389 823 446 853 q 292 744 332 793 q 230 629 251 694 q 208 493 208 564 q 233 353 208 418 q 299 239 257 288 q 400 162 342 190 q 526 133 458 133 q 670 168 601 133 q 801 278 739 203 l 801 383 l 594 383 l 594 499 l 932 499 l 932 0 l 801 0 l 801 122 z "},"H":{"ha":1032,"x_min":111,"x_max":921,"o":"m 921 986 l 921 0 l 764 0 l 764 435 l 267 435 l 267 0 l 111 0 l 111 986 l 267 986 l 267 574 l 764 574 l 764 986 l 921 986 z "},"I":{"ha":378,"x_min":111,"x_max":267,"o":"m 111 0 l 111 986 l 267 986 l 267 0 l 111 0 z "},"J":{"ha":678,"x_min":14,"x_max":578,"o":"m 51 174 q 122 141 75 157 q 228 125 168 125 q 330 148 292 125 q 388 216 368 171 q 415 328 408 261 q 421 485 421 396 l 421 986 l 578 986 l 578 485 q 567 280 578 372 q 519 122 556 188 q 414 21 483 57 q 228 -15 344 -15 q 14 46 103 -15 l 51 174 z "},"K":{"ha":917,"x_min":111,"x_max":925,"o":"m 111 0 l 111 985 l 267 985 l 267 478 l 731 986 l 903 986 l 514 550 l 925 0 l 751 0 l 418 454 l 267 297 l 267 0 l 111 0 z "},"L":{"ha":811,"x_min":111,"x_max":796,"o":"m 111 0 l 111 986 l 267 986 l 267 138 l 796 138 l 796 0 l 111 0 z "},"M":{"ha":1208,"x_min":111,"x_max":1097,"o":"m 940 0 l 940 710 l 647 172 l 561 172 l 267 710 l 267 0 l 111 0 l 111 986 l 278 986 l 604 383 l 931 986 l 1097 986 l 1097 0 l 940 0 z "},"N":{"ha":1065,"x_min":111,"x_max":954,"o":"m 267 694 l 267 0 l 111 0 l 111 986 l 233 986 l 797 275 l 797 985 l 954 985 l 954 0 l 825 0 l 267 694 z "},"O":{"ha":1044,"x_min":49,"x_max":994,"o":"m 521 -7 q 328 35 415 -7 q 179 148 242 78 q 83 308 117 218 q 49 493 49 399 q 85 682 49 592 q 184 842 121 772 q 334 952 247 911 q 524 993 421 993 q 716 949 629 993 q 865 835 803 906 q 960 674 926 764 q 994 492 994 585 q 959 303 994 393 q 860 144 924 213 q 709 34 796 75 q 521 -7 622 -7 m 207 493 q 229 358 207 424 q 292 243 251 293 q 392 163 333 193 q 522 133 450 133 q 655 165 597 133 q 753 247 713 196 q 814 363 793 299 q 835 493 835 426 q 813 628 835 564 q 749 742 790 693 q 651 822 708 792 q 522 851 593 851 q 389 820 447 851 q 290 739 331 789 q 228 624 250 689 q 207 493 207 560 z "},"P":{"ha":865,"x_min":111,"x_max":831,"o":"m 111 0 l 111 986 l 525 986 q 648 958 592 986 q 744 885 704 931 q 808 783 785 840 q 831 665 831 725 q 809 545 831 603 q 749 442 788 488 q 655 370 710 397 q 533 343 600 343 l 267 343 l 267 0 l 111 0 m 267 481 l 524 481 q 584 494 557 481 q 631 533 611 508 q 661 592 650 558 q 672 665 672 625 q 660 740 672 707 q 625 798 647 774 q 574 835 603 822 q 515 849 546 849 l 267 849 l 267 481 z "},"Q":{"ha":1042,"x_min":49,"x_max":994,"o":"m 778 72 q 658 14 722 35 q 521 -7 593 -7 q 328 36 415 -7 q 179 149 242 79 q 83 308 117 218 q 49 493 49 399 q 85 682 49 592 q 184 842 121 772 q 334 952 247 911 q 524 993 421 993 q 716 949 629 993 q 865 835 803 906 q 960 674 926 764 q 994 492 994 585 q 960 305 994 393 q 863 147 925 217 l 992 0 l 842 0 l 778 72 m 522 133 q 608 146 568 133 q 682 181 649 158 l 542 343 l 692 343 l 763 261 q 817 370 799 310 q 835 493 835 431 q 813 628 835 564 q 749 743 790 693 q 651 823 708 793 q 522 853 593 853 q 389 822 447 853 q 290 740 331 790 q 228 624 250 689 q 207 493 207 560 q 229 358 207 424 q 292 243 251 293 q 392 163 333 193 q 522 133 450 133 z "},"R":{"ha":918,"x_min":111,"x_max":885,"o":"m 111 0 l 111 986 l 540 986 q 663 958 607 986 q 760 885 719 931 q 823 783 800 840 q 846 665 846 725 q 832 569 846 615 q 793 485 818 524 q 732 417 768 446 q 653 375 696 389 l 885 0 l 708 0 l 494 343 l 267 343 l 267 0 l 111 0 m 267 481 l 539 481 q 599 495 572 481 q 646 535 626 510 q 676 594 665 561 q 688 665 688 628 q 674 736 688 703 q 640 794 661 769 q 590 834 618 819 q 531 849 561 849 l 267 849 l 267 481 z "},"T":{"ha":856,"x_min":21,"x_max":835,"o":"m 835 849 l 507 849 l 507 0 l 350 0 l 350 849 l 21 849 l 21 986 l 835 986 l 835 849 z "},"U":{"ha":1044,"x_min":97,"x_max":949,"o":"m 522 133 q 651 164 600 133 q 734 244 703 194 q 778 356 765 293 q 792 486 792 419 l 792 986 l 949 986 l 949 486 q 925 295 949 385 q 850 138 901 206 q 717 32 799 71 q 522 -7 636 -7 q 323 34 404 -7 q 192 144 242 75 q 119 301 142 213 q 97 486 97 390 l 97 986 l 253 986 l 253 486 q 266 355 253 418 q 310 242 279 292 q 394 163 342 193 q 522 133 446 133 z "},"V":{"ha":942,"x_min":8,"x_max":932,"o":"m 174 986 l 471 196 l 767 986 l 932 986 l 538 0 l 404 0 l 8 986 l 174 986 z "},"W":{"ha":1460,"x_min":6,"x_max":1454,"o":"m 461 982 l 608 982 l 729 647 l 851 982 l 997 982 l 829 543 l 976 181 l 1283 986 l 1454 986 l 1047 0 l 914 0 l 731 442 l 546 0 l 413 0 l 6 986 l 175 986 l 483 181 l 631 543 l 461 982 z "},"X":{"ha":890,"x_min":0,"x_max":890,"o":"m 172 986 l 446 597 l 719 986 l 890 986 l 529 486 l 879 0 l 708 0 l 446 375 l 183 0 l 11 0 l 363 486 l 0 986 l 172 986 z "},"Y":{"ha":913,"x_min":13,"x_max":901,"o":"m 183 986 l 456 492 l 731 986 l 901 986 l 533 353 l 533 0 l 378 0 l 378 356 l 13 986 l 183 986 z "},"Z":{"ha":874,"x_min":43,"x_max":825,"o":"m 43 119 l 642 849 l 57 849 l 57 986 l 824 986 l 824 867 l 239 138 l 825 138 l 825 0 l 43 0 l 43 119 z "},"[":{"ha":406,"x_min":115,"x_max":342,"o":"m 115 -56 l 115 1028 l 342 1028 l 342 904 l 257 904 l 257 68 l 342 68 l 342 -56 l 115 -56 z "},"\\":{"ha":850,"x_min":38,"x_max":813,"o":"m 208 986 l 813 0 l 643 0 l 38 986 l 208 986 z "},"]":{"ha":406,"x_min":64,"x_max":290,"o":"m 64 -56 l 64 68 l 149 68 l 149 904 l 64 904 l 64 1028 l 290 1028 l 290 -56 l 64 -56 z "},"^":{"ha":790,"x_min":57,"x_max":733,"o":"m 57 421 l 332 986 l 460 986 l 733 421 l 606 421 l 396 854 l 182 421 l 57 421 z "},"_":{"ha":681,"x_min":82,"x_max":599,"o":"m 82 -137 l 82 0 l 599 0 l 599 -137 l 82 -137 z "},"`":{"ha":338,"x_min":65,"x_max":290,"o":"m 65 1014 l 211 1014 l 290 861 l 193 831 l 65 1014 z "},"a":{"ha":783,"x_min":39,"x_max":731,"o":"m 285 -14 q 187 3 232 -14 q 109 51 142 21 q 58 124 76 82 q 39 214 39 165 q 61 307 39 265 q 124 379 83 349 q 222 426 165 410 q 346 443 278 443 q 447 434 397 443 q 538 410 497 425 l 538 460 q 492 585 538 540 q 360 631 446 631 q 245 609 301 631 q 129 547 189 588 l 82 644 q 374 739 222 739 q 607 663 524 739 q 690 443 690 586 l 690 181 q 731 131 690 132 l 731 0 q 692 -6 708 -4 q 661 -7 676 -7 q 592 15 617 -7 q 563 72 568 38 l 558 118 q 438 20 510 54 q 285 -14 367 -14 m 326 99 q 431 119 382 99 q 508 175 481 139 q 538 228 538 200 l 538 324 q 455 347 499 339 q 369 356 411 356 q 235 320 288 356 q 183 226 183 285 q 224 135 183 172 q 326 99 264 99 z "},"b":{"ha":872,"x_min":92,"x_max":826,"o":"m 483 -14 q 333 26 400 -14 q 226 132 265 65 l 226 0 l 92 0 l 92 1014 l 244 1014 l 244 589 q 352 699 288 658 q 504 739 417 739 q 636 708 576 739 q 738 624 696 676 q 803 503 781 572 q 826 360 826 435 q 800 214 826 282 q 728 95 774 146 q 619 15 682 44 q 483 -14 556 -14 m 443 117 q 535 137 493 117 q 606 190 576 157 q 653 267 636 224 q 669 360 669 311 q 653 453 669 408 q 609 533 638 499 q 541 588 581 567 q 454 608 501 608 q 328 563 383 608 q 244 451 274 517 l 244 260 q 274 202 253 228 q 322 157 294 176 q 382 127 350 138 q 443 117 414 117 z "},"c":{"ha":776,"x_min":44,"x_max":742,"o":"m 44 364 q 71 508 44 440 q 147 628 97 576 q 265 709 196 679 q 421 739 335 739 q 615 690 533 739 q 736 558 696 640 l 588 511 q 517 583 561 557 q 418 608 472 608 q 333 590 372 608 q 264 540 293 572 q 218 463 235 507 q 201 364 201 418 q 219 266 201 311 q 266 188 236 221 q 335 135 296 154 q 419 117 375 117 q 475 124 447 117 q 526 146 503 132 q 566 178 549 160 q 592 217 583 196 l 742 172 q 621 38 706 90 q 421 -14 536 -14 q 267 17 336 -14 q 148 99 197 47 q 72 219 99 151 q 44 364 44 288 z "},"d":{"ha":885,"x_min":46,"x_max":824,"o":"m 388 -14 q 251 16 314 -14 q 143 97 189 46 q 72 217 97 149 q 46 365 46 286 q 70 509 46 442 q 138 628 94 576 q 241 709 182 679 q 371 739 300 739 q 525 697 458 739 q 629 589 592 654 l 629 1014 l 782 1014 l 782 181 q 791 143 782 154 q 824 131 800 132 l 824 0 q 785 -6 800 -4 q 761 -7 771 -7 q 686 17 715 -7 q 654 78 657 40 l 651 132 q 542 25 611 64 q 388 -14 472 -14 m 425 117 q 492 128 458 117 q 553 158 525 139 q 601 204 581 178 q 629 261 621 231 l 629 451 q 594 515 617 486 q 542 565 571 544 q 480 597 513 586 q 414 608 447 608 q 330 588 368 608 q 264 532 292 567 q 220 453 236 497 q 204 361 204 408 q 222 267 204 311 q 269 189 239 222 q 340 136 300 156 q 425 117 379 117 z "},"e":{"ha":826,"x_min":44,"x_max":793,"o":"m 421 -14 q 267 16 336 -14 q 148 97 197 46 q 72 217 99 149 q 44 361 44 285 q 72 506 44 438 q 148 627 99 575 q 267 709 197 679 q 422 739 336 739 q 576 708 507 739 q 693 627 644 678 q 767 509 742 576 q 793 368 793 442 q 792 337 793 351 q 789 313 790 322 l 207 313 q 230 225 211 264 q 278 158 249 186 q 347 114 308 129 q 426 99 385 99 q 487 106 457 99 q 542 128 517 114 q 586 164 567 143 q 617 210 606 185 l 747 172 q 623 38 710 90 q 421 -14 536 -14 m 642 418 q 619 503 638 464 q 571 569 600 542 q 503 611 542 596 q 421 626 464 626 q 340 611 378 626 q 272 569 301 596 q 225 503 243 542 q 203 418 207 464 l 642 418 z "},"f":{"ha":494,"x_min":36,"x_max":535,"o":"m 133 0 l 133 590 l 36 590 l 36 708 l 133 708 l 133 738 q 196 950 133 872 q 365 1028 258 1028 q 453 1016 410 1028 q 535 983 496 1004 l 501 869 q 452 890 481 882 q 397 899 424 899 q 315 858 343 899 q 286 742 286 818 l 286 708 l 472 708 l 472 590 l 286 590 l 286 0 l 133 0 z "},"g":{"ha":874,"x_min":47,"x_max":782,"o":"m 379 -7 q 244 23 306 -7 q 140 104 183 53 q 72 222 96 156 q 47 363 47 289 q 72 509 47 440 q 142 628 97 578 q 248 709 186 679 q 385 739 310 739 q 538 697 472 739 q 647 589 604 656 l 647 726 l 782 726 l 782 21 q 753 -119 782 -58 q 672 -223 724 -181 q 549 -287 619 -265 q 396 -310 478 -310 q 195 -269 275 -310 q 61 -154 115 -228 l 147 -74 q 255 -162 189 -132 q 396 -193 321 -193 q 485 -181 443 -193 q 560 -142 528 -168 q 610 -75 592 -115 q 629 21 629 -35 l 629 132 q 522 29 590 65 q 379 -7 454 -7 m 429 117 q 496 128 464 117 q 555 160 528 140 q 601 206 582 181 q 629 261 621 232 l 629 451 q 593 515 615 486 q 542 564 571 543 q 482 597 514 585 q 418 608 450 608 q 328 587 368 608 q 261 530 289 565 q 218 450 233 494 q 203 358 203 406 q 220 265 203 308 q 268 188 238 221 q 340 136 299 156 q 429 117 381 117 z "},"h":{"ha":829,"x_min":92,"x_max":743,"o":"m 743 0 l 590 0 l 590 407 q 555 555 590 507 q 453 603 519 603 q 389 590 421 603 q 328 555 357 578 q 278 501 300 532 q 244 432 256 469 l 244 0 l 92 0 l 92 1014 l 244 1014 l 244 581 q 358 697 286 656 q 514 739 429 739 q 626 715 582 739 q 696 650 669 690 q 733 556 722 610 q 743 443 743 503 l 743 0 z "},"i":{"ha":336,"x_min":92,"x_max":244,"o":"m 92 0 l 92 726 l 244 726 l 244 0 l 92 0 m 92 846 l 92 1014 l 244 1014 l 244 846 l 92 846 z "},"j":{"ha":344,"x_min":-160,"x_max":253,"o":"m 15 -265 q -79 -250 -35 -265 q -160 -203 -124 -235 l -92 -100 q -50 -124 -74 -117 q -3 -132 -26 -132 q 69 -102 38 -132 q 100 -26 100 -72 l 100 726 l 253 726 l 253 -15 q 234 -117 253 -71 q 183 -196 215 -162 q 107 -247 150 -229 q 15 -265 64 -265 m 100 846 l 100 1014 l 253 1014 l 253 846 l 100 846 z "},"k":{"ha":761,"x_min":92,"x_max":760,"o":"m 597 0 l 365 335 l 244 221 l 244 0 l 92 0 l 92 1014 l 244 1014 l 244 371 l 578 725 l 744 725 l 463 421 l 760 0 l 597 0 z "},"l":{"ha":418,"x_min":93,"x_max":421,"o":"m 93 1014 l 246 1014 l 246 210 q 267 147 246 169 q 325 124 288 124 q 360 129 340 124 q 399 142 381 135 l 421 22 q 342 -2 388 7 q 260 -11 296 -11 q 137 32 181 -11 q 93 154 93 75 l 93 1014 z "},"m":{"ha":1288,"x_min":92,"x_max":1203,"o":"m 1203 0 l 1050 0 l 1050 407 q 1017 556 1050 508 q 919 603 983 603 q 801 555 854 603 q 724 431 747 507 l 724 0 l 571 0 l 571 407 q 538 556 571 510 q 442 603 504 603 q 322 556 376 603 q 244 432 268 508 l 244 0 l 92 0 l 92 726 l 231 726 l 231 581 q 344 698 274 657 q 504 739 414 739 q 647 692 594 739 q 711 574 699 644 q 826 697 757 654 q 985 739 896 739 q 1091 715 1049 739 q 1158 650 1133 690 q 1193 556 1183 610 q 1203 443 1203 503 l 1203 0 z "},"n":{"ha":829,"x_min":92,"x_max":743,"o":"m 743 0 l 590 0 l 590 407 q 558 556 590 510 q 461 603 525 603 q 394 590 428 603 q 332 555 361 578 q 280 501 303 532 q 244 432 257 469 l 244 0 l 92 0 l 92 726 l 231 726 l 231 581 q 351 697 272 654 q 526 739 431 739 q 633 715 592 739 q 699 651 675 692 q 733 556 724 610 q 743 443 743 503 l 743 0 z "},"o":{"ha":836,"x_min":44,"x_max":792,"o":"m 418 -14 q 263 17 332 -14 q 146 99 194 47 q 71 219 97 150 q 44 363 44 288 q 71 506 44 438 q 147 626 97 575 q 265 708 196 678 q 418 739 333 739 q 572 708 503 739 q 690 626 640 678 q 765 506 739 575 q 792 363 792 438 q 765 219 792 288 q 690 99 739 150 q 572 17 640 47 q 418 -14 503 -14 m 201 361 q 218 264 201 308 q 264 187 235 219 q 333 135 293 154 q 418 117 372 117 q 503 135 464 117 q 572 188 543 154 q 618 265 601 221 q 635 363 635 310 q 618 459 635 414 q 572 538 601 504 q 503 590 543 571 q 418 608 464 608 q 334 589 374 608 q 265 536 294 569 q 219 458 236 503 q 201 361 201 413 z "},"p":{"ha":872,"x_min":92,"x_max":826,"o":"m 504 -14 q 350 28 417 -14 q 244 136 283 69 l 244 -296 l 92 -296 l 92 726 l 226 726 l 226 596 q 334 700 268 661 q 483 739 400 739 q 621 708 558 739 q 729 626 683 678 q 801 507 775 575 q 826 364 826 439 q 803 216 826 285 q 736 97 779 147 q 634 16 693 46 q 504 -14 575 -14 m 454 117 q 542 138 503 117 q 610 193 582 158 q 654 272 639 228 q 669 364 669 317 q 652 458 669 414 q 605 536 635 503 q 533 589 575 569 q 443 608 492 608 q 382 597 414 608 q 322 567 350 586 q 274 522 294 547 q 244 465 253 496 l 244 275 q 281 213 258 242 q 330 163 303 183 q 389 129 357 142 q 454 117 421 117 z "},"q":{"ha":872,"x_min":47,"x_max":825,"o":"m 368 -14 q 238 17 297 -14 q 137 99 179 47 q 71 219 94 150 q 47 364 47 288 q 73 510 47 442 q 144 629 99 578 q 253 710 190 681 q 389 739 315 739 q 539 699 472 739 q 646 594 606 658 l 646 726 l 781 726 l 781 -108 q 791 -145 781 -135 q 825 -158 801 -156 l 825 -289 q 783 -293 804 -292 q 743 -294 761 -294 q 662 -262 696 -294 q 628 -183 628 -231 l 628 136 q 517 24 583 61 q 368 -14 451 -14 m 424 117 q 544 156 493 117 q 628 256 594 196 l 628 447 q 600 510 621 481 q 551 560 579 539 q 489 595 522 582 q 424 608 456 608 q 335 588 375 608 q 265 532 294 567 q 219 452 236 497 q 203 360 203 407 q 219 265 203 310 q 265 188 236 221 q 335 136 294 156 q 424 117 375 117 z "},"r":{"ha":519,"x_min":92,"x_max":500,"o":"m 500 594 q 342 553 411 592 q 244 444 274 515 l 244 0 l 92 0 l 92 726 l 233 726 l 233 564 q 331 684 271 639 q 461 733 392 729 q 484 733 475 733 q 500 732 493 733 l 500 594 z "},"s":{"ha":689,"x_min":32,"x_max":647,"o":"m 356 -14 q 181 15 268 -14 q 32 96 94 43 l 93 193 q 222 122 158 146 q 353 97 286 97 q 460 124 421 97 q 500 199 500 150 q 456 265 500 244 q 317 311 411 286 q 200 346 249 329 q 121 385 151 363 q 76 436 90 407 q 63 507 63 465 q 84 606 63 563 q 144 678 106 649 q 233 724 182 708 q 344 739 285 739 q 497 714 426 739 q 624 642 568 689 l 558 550 q 343 631 457 631 q 245 606 285 631 q 206 529 206 582 q 214 492 206 507 q 241 465 222 476 q 290 445 260 454 q 364 425 319 436 q 491 389 438 407 q 579 347 544 371 q 631 290 614 322 q 647 211 647 257 q 569 47 647 107 q 356 -14 490 -14 z "},"t":{"ha":510,"x_min":33,"x_max":496,"o":"m 496 38 q 415 6 467 24 q 306 -11 364 -11 q 238 -1 269 -11 q 181 28 206 8 q 143 78 157 47 q 129 154 129 110 l 129 608 l 33 608 l 33 726 l 129 726 l 129 965 l 282 965 l 282 726 l 440 726 l 440 608 l 282 608 l 282 203 q 306 147 285 164 q 360 129 328 129 q 421 140 392 129 q 464 158 450 151 l 496 38 z "},"u":{"ha":846,"x_min":85,"x_max":785,"o":"m 315 -14 q 143 60 201 -14 q 85 282 85 135 l 85 726 l 238 726 l 238 313 q 376 117 238 117 q 500 157 442 117 q 590 274 558 197 l 590 726 l 743 726 l 743 181 q 752 143 743 154 q 785 131 761 132 l 785 0 q 746 -6 761 -4 q 717 -7 731 -7 q 646 16 675 -7 q 615 75 617 39 l 613 147 q 486 27 564 68 q 315 -14 408 -14 z "},"v":{"ha":754,"x_min":18,"x_max":738,"o":"m 296 0 l 18 726 l 175 726 l 383 129 l 593 726 l 738 726 l 460 0 l 296 0 z "},"w":{"ha":1153,"x_min":8,"x_max":1143,"o":"m 997 726 l 1143 726 l 838 0 l 711 0 l 576 338 l 442 0 l 315 0 l 8 726 l 154 726 l 389 147 l 494 417 l 368 725 l 493 725 l 576 497 l 658 725 l 783 725 l 658 417 l 764 147 l 997 726 z "},"x":{"ha":725,"x_min":11,"x_max":714,"o":"m 172 726 l 350 478 l 363 454 l 375 478 l 551 726 l 711 726 l 446 363 l 714 0 l 554 0 l 375 247 l 363 269 l 350 247 l 171 0 l 11 0 l 279 363 l 14 726 l 172 726 z "},"y":{"ha":760,"x_min":13,"x_max":739,"o":"m 117 -171 q 158 -178 138 -175 q 190 -181 178 -181 q 222 -173 208 -181 q 249 -146 235 -165 q 277 -91 263 -126 q 311 0 292 -56 l 13 726 l 169 726 l 394 135 l 594 726 l 739 726 l 410 -168 q 333 -273 388 -231 q 192 -315 278 -315 q 157 -313 175 -315 q 117 -304 139 -311 l 117 -171 z "},"z":{"ha":685,"x_min":39,"x_max":640,"o":"m 39 96 l 475 618 l 54 618 l 54 726 l 636 726 l 636 631 l 203 108 l 640 108 l 640 0 l 39 0 l 39 96 z "},"{":{"ha":407,"x_min":61,"x_max":340,"o":"m 264 904 l 264 593 q 253 544 264 569 q 219 500 242 519 q 252 456 240 481 q 264 407 264 431 l 264 81 l 340 81 l 340 -43 l 157 -43 q 136 -34 147 -43 q 125 -1 125 -25 l 125 360 q 107 417 125 393 q 61 447 89 442 l 61 556 q 87 564 75 556 q 107 585 99 572 q 120 613 115 599 q 125 640 125 628 l 125 986 q 138 1020 125 1013 q 157 1028 150 1028 l 340 1028 l 340 904 l 264 904 z "},"|":{"ha":356,"x_min":113,"x_max":243,"o":"m 113 -181 l 113 1076 l 243 1076 l 243 -181 l 113 -181 z "},"}":{"ha":407,"x_min":68,"x_max":346,"o":"m 68 904 l 68 1028 l 250 1028 q 269 1020 257 1028 q 282 986 282 1013 l 282 640 q 286 613 282 628 q 299 585 290 599 q 319 564 307 572 q 346 556 331 556 l 346 447 q 300 417 318 442 q 282 360 282 393 l 282 -1 q 271 -34 282 -25 q 250 -43 260 -43 l 68 -43 l 68 81 l 144 81 l 144 407 q 155 456 144 431 q 188 500 165 481 q 155 544 165 519 q 144 593 144 569 l 144 904 l 68 904 z "},"~":{"ha":763,"x_min":85,"x_max":681,"o":"m 85 322 q 94 360 85 332 q 124 417 103 388 q 178 469 144 446 q 261 492 211 492 q 326 480 296 492 q 385 453 357 468 q 440 427 413 439 q 497 415 467 415 q 544 426 525 415 q 574 449 563 436 q 589 472 585 461 q 593 486 593 483 l 681 486 q 672 454 681 481 q 641 399 663 428 q 584 346 619 369 q 496 322 549 322 q 428 334 460 322 q 369 360 397 346 q 315 387 342 375 q 260 399 288 399 q 215 387 232 399 q 188 361 199 375 q 174 335 178 347 q 171 322 171 324 l 85 322 l 85 322 z "}," ":{"ha":343,"x_min":0,"x_max":0,"o":""},"¡":{"ha":392,"x_min":119,"x_max":272,"o":"m 272 639 l 272 -6 l 119 -6 l 119 639 l 272 639 m 272 990 l 272 800 l 119 800 l 119 990 l 272 990 z "},"¢":{"ha":806,"x_min":57,"x_max":754,"o":"m 383 -167 l 383 -12 q 251 27 311 -7 q 149 113 192 61 q 81 228 106 164 q 57 358 57 292 q 79 493 57 429 q 143 608 101 557 q 245 694 185 660 q 383 738 306 728 l 383 896 l 456 896 l 456 738 q 631 688 556 735 q 749 558 706 642 l 601 511 q 538 577 576 554 q 456 603 500 600 l 456 121 q 500 131 476 124 q 545 151 524 139 q 583 181 567 164 q 606 217 599 197 l 754 172 q 699 91 735 126 q 622 33 664 56 q 535 -2 579 10 q 456 -14 492 -14 l 456 -167 l 383 -167 m 214 358 q 226 280 214 318 q 261 211 239 242 q 315 158 283 181 q 383 128 346 136 l 383 597 q 312 568 343 590 q 258 513 281 546 q 225 440 236 481 q 214 358 214 400 z "},"£":{"ha":733,"x_min":72,"x_max":679,"o":"m 76 525 l 188 525 q 133 635 160 581 q 106 750 106 689 q 127 844 106 800 q 186 922 149 889 q 274 974 224 956 q 381 993 324 993 q 533 954 461 993 q 654 847 606 915 l 572 753 q 485 837 539 806 q 378 868 431 868 q 282 831 319 868 q 244 736 244 793 q 253 684 244 710 q 274 633 261 658 q 301 581 286 607 q 328 525 315 554 l 581 525 l 581 408 l 360 408 q 362 392 361 400 q 363 376 363 385 q 333 252 363 311 q 235 119 304 193 q 288 131 263 126 q 339 135 314 135 q 437 122 392 135 q 531 110 482 110 q 583 116 557 110 q 642 133 608 122 l 679 19 q 603 -10 644 0 q 522 -21 563 -21 q 460 -15 490 -21 q 400 -2 431 -10 q 339 11 369 6 q 275 17 308 17 q 194 9 239 17 q 108 -11 149 1 l 72 99 q 192 238 156 172 q 229 369 229 303 q 228 389 229 379 q 226 408 228 399 l 76 408 l 76 525 z "},"¤":{"ha":757,"x_min":65,"x_max":692,"o":"m 229 682 q 297 715 260 703 q 379 726 335 726 q 459 715 422 726 q 528 682 496 703 l 625 781 l 692 715 l 593 618 q 639 468 639 553 q 592 318 639 385 l 692 221 l 632 163 l 531 257 q 462 224 500 236 q 379 211 424 211 q 295 224 333 211 q 225 257 257 236 l 124 163 l 65 221 l 164 319 q 130 390 142 351 q 118 468 118 428 q 163 617 118 553 l 65 715 l 131 781 l 229 682 m 238 467 q 249 405 238 433 q 278 356 260 376 q 324 323 297 335 q 379 311 350 311 q 480 356 439 311 q 521 469 521 401 q 480 581 521 538 q 379 625 439 625 q 278 581 319 625 q 238 467 238 536 z "},"¥":{"ha":971,"x_min":40,"x_max":929,"o":"m 664 540 l 771 540 l 771 439 l 610 439 l 561 353 l 561 313 l 772 313 l 772 211 l 561 211 l 561 0 l 404 0 l 404 211 l 196 211 l 196 313 l 404 313 l 404 356 l 358 439 l 196 439 l 196 540 l 306 540 l 40 986 l 211 986 l 483 492 l 758 986 l 929 986 l 664 540 z "},"¦":{"ha":358,"x_min":114,"x_max":244,"o":"m 244 374 l 244 -181 l 114 -181 l 114 374 l 244 374 m 244 1076 l 244 522 l 114 522 l 114 1076 l 244 1076 z "},"§":{"ha":728,"x_min":63,"x_max":669,"o":"m 615 289 q 655 234 640 269 q 669 146 669 199 q 640 24 669 75 q 567 -60 611 -28 q 471 -107 524 -92 q 371 -122 418 -122 q 273 -108 318 -122 q 191 -74 228 -94 q 126 -29 154 -53 q 79 15 97 -6 l 178 110 q 268 44 222 64 q 364 24 314 24 q 418 31 392 24 q 465 53 444 39 q 499 90 486 68 q 511 140 511 113 q 499 188 511 169 q 467 215 486 206 q 424 229 447 225 q 376 235 400 233 q 170 305 246 243 q 94 474 94 367 q 104 540 94 514 q 125 582 114 567 q 82 642 101 601 q 63 739 63 683 q 85 838 63 792 q 148 919 108 885 q 239 973 188 953 q 347 993 290 993 q 450 978 406 993 q 528 940 494 963 q 587 889 563 917 q 629 836 611 861 l 511 781 q 447 838 489 819 q 357 857 406 857 q 303 849 329 857 q 258 826 278 840 q 228 789 239 811 q 217 740 217 767 q 257 658 217 679 q 357 635 297 636 q 460 622 408 633 q 554 583 513 610 q 622 513 596 556 q 649 407 649 469 q 638 335 649 367 q 615 289 628 304 m 243 454 q 269 383 243 404 q 331 352 294 361 q 407 340 368 343 q 472 328 446 338 q 496 360 488 339 q 504 404 504 382 q 490 455 504 435 q 456 488 476 475 q 410 506 435 500 q 363 511 385 511 q 311 515 336 511 q 271 526 286 519 q 251 495 258 515 q 243 454 243 475 z "},"¨":{"ha":571,"x_min":99,"x_max":472,"o":"m 99 854 l 99 1007 l 226 1007 l 226 854 l 99 854 m 344 854 l 344 1007 l 472 1007 l 472 854 l 344 854 z "},"©":{"ha":1164,"x_min":63,"x_max":1103,"o":"m 579 -10 q 373 28 468 -10 q 209 134 278 67 q 101 293 140 201 q 63 493 63 385 q 101 692 63 600 q 209 850 140 783 q 373 955 278 917 q 579 993 468 993 q 788 955 692 993 q 953 850 883 917 q 1063 692 1024 783 q 1103 493 1103 600 q 1063 293 1103 385 q 953 134 1024 201 q 788 28 883 67 q 579 -10 692 -10 m 579 51 q 759 83 675 51 q 904 174 843 115 q 1001 313 965 232 q 1036 490 1036 393 q 1001 665 1036 585 q 906 806 967 746 q 761 899 844 865 q 579 932 678 932 q 399 899 482 932 q 256 806 317 865 q 162 665 196 746 q 128 492 128 585 q 162 318 128 399 q 256 178 196 238 q 399 85 317 119 q 579 51 482 51 m 590 165 q 456 190 518 165 q 347 258 393 214 q 276 362 301 301 q 250 493 250 422 q 271 613 250 554 q 333 719 292 672 q 438 794 375 765 q 585 822 501 822 q 765 777 689 822 q 878 653 842 732 l 731 606 q 701 647 718 631 q 664 673 683 664 q 624 686 644 682 q 585 690 603 690 q 508 674 542 690 q 452 630 475 657 q 417 567 429 603 q 406 493 406 531 q 422 409 406 446 q 464 347 438 372 q 523 309 490 322 q 588 296 556 296 q 674 319 631 296 q 736 383 717 342 l 885 339 q 844 276 871 307 q 781 220 818 244 q 695 181 743 196 q 590 165 647 165 z "},"ª":{"ha":613,"x_min":60,"x_max":540,"o":"m 226 475 q 160 487 190 475 q 108 519 131 499 q 72 569 85 540 q 60 631 60 597 q 75 695 60 665 q 118 746 90 725 q 183 778 146 767 q 267 790 221 790 q 392 768 339 790 l 392 799 q 363 878 392 850 q 278 907 335 907 q 201 893 239 907 q 122 851 164 879 l 86 925 q 289 989 183 989 q 451 937 393 989 q 508 785 508 885 l 508 621 q 540 585 508 586 l 540 483 q 489 478 513 478 q 435 493 454 478 q 413 536 417 508 l 411 565 q 328 498 376 521 q 226 475 281 475 m 260 561 q 325 574 294 561 q 374 607 356 586 q 392 643 392 621 l 392 703 q 341 718 368 714 q 288 722 314 722 q 202 699 235 722 q 169 640 169 676 q 195 584 169 607 q 260 561 221 561 z "},"«":{"ha":863,"x_min":53,"x_max":781,"o":"m 53 394 l 411 651 l 411 525 l 175 360 l 411 200 l 411 75 l 53 318 l 53 394 m 421 394 l 781 651 l 781 525 l 543 360 l 781 200 l 781 75 l 421 318 l 421 394 z "},"¬":{"ha":835,"x_min":88,"x_max":740,"o":"m 740 538 l 740 157 l 610 157 l 610 400 l 88 400 l 88 538 l 740 538 z "},"­":{"ha":822,"x_min":85,"x_max":738,"o":"m 85 311 l 85 449 l 738 449 l 738 311 l 85 311 z "},"®":{"ha":1164,"x_min":63,"x_max":1103,"o":"m 581 -10 q 374 28 468 -10 q 210 134 279 67 q 101 293 140 201 q 63 493 63 385 q 101 692 63 600 q 210 850 140 783 q 374 955 279 917 q 581 993 468 993 q 788 955 693 993 q 953 850 883 917 q 1063 692 1024 783 q 1103 493 1103 600 q 1063 293 1103 385 q 953 134 1024 201 q 788 28 883 67 q 581 -10 693 -10 m 581 50 q 759 82 676 50 q 903 172 842 114 q 1000 312 965 231 q 1035 492 1035 393 q 1001 665 1035 585 q 906 805 967 746 q 761 898 844 864 q 581 932 678 932 q 400 898 482 932 q 258 805 318 864 q 164 666 197 746 q 131 493 131 586 q 164 318 131 399 q 258 178 197 238 q 400 84 318 118 q 581 50 482 50 m 361 801 l 629 801 q 706 784 671 801 q 767 738 742 767 q 806 674 792 710 q 821 600 821 638 q 787 488 821 538 q 697 419 753 438 l 846 185 l 722 185 l 586 400 l 471 400 l 471 185 l 361 185 l 361 801 m 622 496 q 689 524 665 496 q 713 600 713 553 q 685 676 713 649 q 618 703 658 703 l 471 703 l 471 496 l 622 496 z "},"¯":{"ha":571,"x_min":81,"x_max":492,"o":"m 81 894 l 81 992 l 492 992 l 492 894 l 81 894 z "},"°":{"ha":386,"x_min":61,"x_max":325,"o":"m 61 876 q 99 969 61 932 q 193 1006 136 1006 q 288 969 251 1006 q 325 876 325 932 q 288 778 325 815 q 193 740 251 740 q 99 779 136 740 q 61 876 61 818 m 154 913 q 138 874 138 893 q 154 835 138 851 q 193 818 168 818 q 215 822 204 818 q 232 835 225 826 q 249 874 249 851 q 232 913 249 893 q 215 924 225 921 q 193 928 204 928 q 154 913 169 928 z "},"±":{"ha":651,"x_min":88,"x_max":564,"o":"m 88 56 l 88 179 l 563 179 l 563 56 l 88 56 m 564 579 l 564 456 l 394 456 l 394 272 l 257 272 l 257 456 l 88 456 l 88 579 l 257 579 l 257 761 l 394 761 l 394 579 l 564 579 z "},"²":{"ha":564,"x_min":44,"x_max":514,"o":"m 44 549 q 54 646 44 604 q 85 719 64 688 q 141 774 107 750 q 224 817 175 797 q 289 842 256 829 q 349 869 322 854 q 393 904 376 885 q 410 953 410 924 q 377 1015 410 992 q 282 1039 344 1039 q 176 1015 218 1039 q 110 968 133 992 l 50 1035 q 78 1063 58 1046 q 130 1094 99 1079 q 203 1119 161 1108 q 296 1129 244 1129 q 459 1081 404 1129 q 514 951 514 1033 q 495 876 514 907 q 448 824 476 846 q 387 790 419 803 q 326 768 354 776 q 210 708 247 743 q 172 639 172 674 l 501 639 l 501 549 l 44 549 z "},"³":{"ha":556,"x_min":42,"x_max":507,"o":"m 265 540 q 118 570 178 540 q 42 654 58 600 l 93 721 q 110 693 97 708 q 145 665 124 678 q 197 642 167 651 q 264 633 226 633 q 369 655 326 633 q 413 715 413 676 q 357 780 413 758 q 206 801 301 801 l 174 801 l 174 886 l 206 886 q 342 906 292 886 q 393 967 393 925 q 382 999 393 985 q 353 1024 371 1014 q 311 1038 335 1033 q 264 1043 288 1043 q 168 1024 207 1043 q 106 972 129 1004 l 44 1044 q 135 1107 74 1085 q 264 1129 196 1129 q 354 1117 313 1129 q 426 1084 396 1106 q 474 1033 457 1063 q 492 971 492 1004 q 458 891 492 922 q 363 849 425 860 q 468 798 429 839 q 507 701 507 757 q 487 631 507 661 q 433 581 467 601 q 356 551 400 561 q 265 540 313 540 z "},"´":{"ha":338,"x_min":65,"x_max":290,"o":"m 165 831 l 65 861 l 144 1014 l 290 1014 l 165 831 z "},"µ":{"ha":896,"x_min":107,"x_max":811,"o":"m 107 726 l 260 726 l 260 313 q 401 117 260 117 q 523 157 464 117 q 614 274 582 197 l 614 726 l 767 726 l 767 181 q 811 131 767 132 l 811 0 q 770 -6 786 -4 q 740 -7 754 -7 q 669 17 696 -7 q 639 81 642 42 l 636 147 q 597 89 622 118 q 539 37 571 60 q 469 0 507 14 q 393 -14 432 -14 q 299 16 333 -14 q 251 81 264 46 l 251 -294 l 107 -294 l 107 726 z "},"¶":{"ha":885,"x_min":49,"x_max":822,"o":"m 49 640 q 151 895 49 804 q 440 986 254 986 l 822 986 l 822 869 l 725 869 l 725 -111 l 594 -111 l 594 300 l 513 300 l 513 -111 l 381 -111 l 381 300 q 244 326 306 301 q 139 394 182 350 q 72 501 96 439 q 49 640 49 563 m 176 643 q 192 548 176 589 q 237 479 208 507 q 302 435 265 451 q 381 417 339 419 l 381 869 q 229 806 282 867 q 176 643 176 744 m 594 869 l 513 869 l 513 417 l 594 417 l 594 869 z "},"·":{"ha":296,"x_min":85,"x_max":211,"o":"m 85 338 l 85 528 l 211 528 l 211 338 l 85 338 z "},"¸":{"ha":431,"x_min":31,"x_max":339,"o":"m 63 -175 q 114 -194 79 -185 q 185 -203 149 -203 q 242 -192 221 -203 q 264 -156 264 -181 q 244 -118 264 -128 q 192 -108 224 -108 q 131 -114 163 -108 q 81 -125 99 -119 l 164 33 l 226 13 l 178 -62 q 201 -58 189 -60 q 225 -57 214 -57 q 306 -79 274 -57 q 339 -150 339 -101 q 298 -231 339 -200 q 174 -262 257 -262 q 94 -254 129 -262 q 31 -235 58 -246 l 63 -175 z "},"¹":{"ha":401,"x_min":46,"x_max":372,"o":"m 372 640 l 372 549 l 68 549 l 68 640 l 178 640 l 178 1028 q 156 1006 171 1018 q 122 984 140 994 q 83 966 103 974 q 46 958 63 958 l 46 1051 q 91 1063 68 1051 q 133 1089 114 1075 q 165 1115 153 1103 q 178 1129 178 1128 l 271 1129 l 271 640 l 372 640 z "},"º":{"ha":619,"x_min":54,"x_max":565,"o":"m 310 475 q 204 496 251 475 q 124 552 157 517 q 72 633 90 588 q 54 731 54 679 q 72 830 54 783 q 124 912 90 876 q 204 968 157 947 q 310 989 251 989 q 415 968 368 989 q 496 912 463 947 q 547 830 529 876 q 565 731 565 783 q 547 633 565 679 q 496 552 529 588 q 415 496 463 517 q 310 475 368 475 m 172 731 q 183 669 172 697 q 212 619 193 640 q 256 587 231 599 q 310 575 281 575 q 364 587 339 575 q 408 619 389 599 q 437 669 426 640 q 447 732 447 699 q 437 794 447 765 q 408 843 426 822 q 364 876 389 864 q 310 888 339 888 q 256 876 281 888 q 212 843 231 864 q 183 793 193 822 q 172 731 172 764 z "},"»":{"ha":863,"x_min":83,"x_max":810,"o":"m 810 318 l 451 75 l 451 200 l 689 360 l 451 525 l 451 651 l 810 394 l 810 318 m 442 318 l 83 75 l 83 200 l 319 360 l 83 525 l 83 651 l 442 394 l 442 318 z "},"¼":{"ha":1240,"x_min":60,"x_max":1192,"o":"m 1017 0 l 1017 135 l 706 135 l 706 224 l 1044 575 l 1108 575 l 1108 225 l 1192 225 l 1192 135 l 1108 135 l 1108 0 l 1017 0 m 799 225 l 1019 225 l 1019 457 l 799 225 m 224 56 l 614 518 l 981 994 l 1053 932 l 669 475 l 294 -8 l 224 56 m 386 526 l 386 435 l 82 435 l 82 526 l 192 526 l 192 914 q 169 892 185 904 q 135 870 154 881 q 97 852 117 860 q 60 844 76 844 l 60 936 q 105 948 82 936 q 147 974 128 960 q 179 1001 167 989 q 192 1015 192 1014 l 285 1015 l 285 526 l 386 526 z "},"½":{"ha":1281,"x_min":58,"x_max":1225,"o":"m 767 0 q 776 97 767 56 q 807 170 786 139 q 861 225 828 201 q 942 268 894 249 q 1005 292 972 281 q 1063 319 1038 304 q 1106 355 1089 335 q 1122 404 1122 375 q 1091 467 1122 444 q 997 490 1060 490 q 894 466 935 490 q 831 418 853 442 l 772 486 q 801 514 781 497 q 851 545 821 531 q 921 570 881 560 q 1011 581 961 581 q 1169 533 1115 581 q 1224 403 1224 485 q 1206 328 1224 358 q 1160 276 1188 297 q 1100 243 1132 256 q 1042 222 1068 231 q 939 161 965 197 q 913 90 913 125 l 1225 90 l 1225 0 l 767 0 m 171 56 l 561 518 l 928 994 l 1000 932 l 617 475 l 242 -8 l 171 56 m 385 526 l 385 435 l 81 435 l 81 526 l 190 526 l 190 914 q 168 892 183 904 q 134 870 153 881 q 95 852 115 860 q 58 844 75 844 l 58 936 q 103 948 81 936 q 146 974 126 960 q 178 1001 165 989 q 190 1015 190 1014 l 283 1015 l 283 526 l 385 526 z "},"¾":{"ha":1251,"x_min":54,"x_max":1201,"o":"m 278 425 q 131 456 190 425 q 54 540 71 486 l 106 607 q 124 578 110 593 q 160 549 138 563 q 211 528 182 536 q 276 519 240 519 q 382 541 339 519 q 425 601 425 563 q 369 666 425 644 q 218 688 314 688 l 186 688 l 186 772 l 218 772 q 355 792 304 772 q 406 851 406 811 q 394 885 406 871 q 365 910 383 900 q 324 924 347 919 q 276 929 300 929 q 181 909 219 929 q 118 857 142 889 l 57 931 q 147 993 86 971 q 276 1015 208 1015 q 367 1003 325 1015 q 439 970 408 992 q 487 919 469 949 q 504 857 504 890 q 471 777 504 808 q 375 735 438 746 q 481 684 442 725 q 519 588 519 643 q 499 517 519 547 q 446 466 479 486 q 369 435 413 446 q 278 425 325 425 m 1026 0 l 1026 135 l 715 135 l 715 224 l 1054 575 l 1118 575 l 1118 225 l 1201 225 l 1201 135 l 1118 135 l 1118 0 l 1026 0 m 808 225 l 1029 225 l 1029 457 l 808 225 m 267 56 l 657 518 l 1024 994 l 1096 932 l 713 475 l 338 -8 l 267 56 z "},"¿":{"ha":661,"x_min":44,"x_max":617,"o":"m 479 396 q 455 268 479 324 q 364 172 431 213 q 308 141 340 158 q 247 100 276 124 q 198 44 218 76 q 178 -31 178 13 q 191 -90 178 -64 q 225 -135 204 -117 q 274 -162 246 -153 q 331 -171 301 -171 q 392 -160 364 -171 q 443 -133 419 -150 q 485 -94 467 -115 q 517 -49 504 -72 l 617 -117 q 500 -249 579 -203 q 326 -296 421 -296 q 224 -280 274 -296 q 133 -231 174 -264 q 69 -147 93 -199 q 44 -25 44 -96 q 57 58 44 22 q 91 123 69 94 q 142 172 113 151 q 206 213 172 193 q 260 244 233 228 q 306 281 286 260 q 339 329 326 301 q 351 396 351 357 l 479 396 m 479 703 l 479 528 l 351 528 l 351 703 l 479 703 z "},"À":{"ha":938,"x_min":10,"x_max":926,"o":"m 401 986 l 538 986 l 926 0 l 763 0 l 658 268 l 278 268 l 175 0 l 10 0 l 401 986 m 628 383 l 469 807 l 306 383 l 628 383 m 308 1274 l 454 1274 l 533 1121 l 436 1090 l 308 1274 z "},"Á":{"ha":938,"x_min":10,"x_max":926,"o":"m 401 986 l 538 986 l 926 0 l 763 0 l 658 268 l 278 268 l 175 0 l 10 0 l 401 986 m 628 383 l 469 807 l 306 383 l 628 383 m 503 1089 l 403 1119 l 482 1272 l 628 1272 l 503 1089 z "},"Â":{"ha":938,"x_min":10,"x_max":926,"o":"m 401 986 l 538 986 l 926 0 l 763 0 l 658 268 l 278 268 l 175 0 l 10 0 l 401 986 m 628 383 l 469 807 l 306 383 l 628 383 m 269 1140 l 414 1272 l 524 1272 l 668 1140 l 586 1101 l 468 1189 l 350 1101 l 269 1140 z "},"ˆ":{"ha":493,"x_min":47,"x_max":446,"o":"m 47 882 l 192 1014 l 301 1014 l 446 882 l 364 843 l 246 931 l 128 843 l 47 882 z "},"Ã":{"ha":938,"x_min":10,"x_max":926,"o":"m 401 986 l 538 986 l 926 0 l 763 0 l 658 268 l 278 268 l 175 0 l 10 0 l 401 986 m 628 383 l 469 807 l 306 383 l 628 383 m 557 1113 q 501 1122 525 1113 q 458 1142 478 1131 q 418 1163 438 1154 q 376 1172 399 1172 q 340 1163 353 1172 q 319 1141 326 1153 q 310 1118 313 1129 q 308 1106 308 1107 l 222 1106 q 229 1143 222 1117 q 253 1197 236 1169 q 299 1244 271 1224 q 371 1265 328 1265 q 424 1256 401 1265 q 467 1235 447 1246 q 508 1214 488 1224 q 553 1204 528 1204 q 593 1214 578 1204 q 616 1236 608 1224 q 626 1259 624 1249 q 628 1272 628 1269 l 715 1272 q 708 1238 715 1264 q 682 1183 700 1211 q 633 1134 664 1156 q 557 1113 603 1113 z "},"˜":{"ha":592,"x_min":50,"x_max":543,"o":"m 385 854 q 329 863 353 854 q 285 884 306 872 q 246 905 265 896 q 204 914 226 914 q 167 904 181 914 q 147 883 154 894 q 138 860 140 871 q 136 847 136 849 l 50 847 q 57 885 50 858 q 81 938 64 911 q 127 986 99 965 q 199 1007 156 1007 q 252 997 229 1007 q 295 976 275 988 q 335 956 315 965 q 381 946 356 946 q 421 956 406 946 q 444 978 436 965 q 453 1001 451 990 q 456 1014 456 1011 l 543 1014 q 535 979 543 1006 q 510 925 528 953 q 461 876 492 897 q 385 854 431 854 z "},"Ä":{"ha":938,"x_min":10,"x_max":926,"o":"m 401 986 l 538 986 l 926 0 l 763 0 l 658 268 l 278 268 l 175 0 l 10 0 l 401 986 m 628 383 l 469 807 l 306 383 l 628 383 m 283 1114 l 283 1267 l 411 1267 l 411 1114 l 283 1114 m 529 1114 l 529 1267 l 657 1267 l 657 1114 l 529 1114 z "},"Å":{"ha":938,"x_min":10,"x_max":926,"o":"m 401 986 l 538 986 l 926 0 l 763 0 l 658 268 l 278 268 l 175 0 l 10 0 l 401 986 m 628 383 l 469 807 l 306 383 l 628 383 m 346 1171 q 380 1246 346 1219 q 468 1272 414 1272 q 558 1246 524 1272 q 592 1171 592 1219 q 558 1097 592 1124 q 468 1069 524 1069 q 380 1097 414 1069 q 346 1171 346 1124 m 468 1222 q 428 1208 444 1222 q 413 1171 413 1194 q 428 1135 413 1150 q 468 1119 444 1119 q 508 1134 492 1119 q 525 1171 525 1149 q 508 1208 525 1194 q 468 1222 492 1222 z "},"˚":{"ha":357,"x_min":56,"x_max":301,"o":"m 56 913 q 90 988 56 961 q 178 1014 124 1014 q 267 988 233 1014 q 301 913 301 961 q 267 838 301 865 q 178 811 233 811 q 90 838 124 811 q 56 913 56 865 m 178 964 q 138 950 154 964 q 122 913 122 936 q 138 876 122 892 q 178 861 154 861 q 218 876 201 861 q 235 913 235 890 q 218 950 235 936 q 178 964 201 964 z "},"Æ":{"ha":1338,"x_min":-35,"x_max":1289,"o":"m 588 986 l 1276 986 l 1276 849 l 785 849 l 785 571 l 1201 571 l 1201 433 l 785 433 l 785 138 l 1289 138 l 1289 0 l 629 0 l 629 268 l 297 268 l 133 0 l -35 0 l 588 986 m 618 407 l 618 807 l 365 407 l 618 407 z "},"Ç":{"ha":947,"x_min":46,"x_max":914,"o":"m 401 -175 q 453 -194 418 -185 q 524 -203 488 -203 q 581 -192 560 -203 q 603 -156 603 -181 q 583 -118 603 -128 q 531 -108 563 -108 q 469 -114 501 -108 q 419 -125 438 -119 l 482 -7 q 305 47 385 0 q 167 164 225 93 q 78 322 110 235 q 46 500 46 410 q 78 677 46 589 q 172 835 110 765 q 322 949 233 906 q 524 992 411 992 q 754 932 658 992 q 899 776 850 872 l 776 694 q 726 769 756 739 q 663 818 697 800 q 590 844 628 836 q 518 851 553 851 q 382 820 440 851 q 284 738 324 789 q 224 622 244 686 q 204 494 204 558 q 228 357 204 422 q 294 242 251 292 q 394 162 336 192 q 522 132 453 132 q 597 141 558 132 q 670 170 635 150 q 735 221 706 190 q 785 294 765 251 l 914 221 q 854 129 893 169 q 767 60 815 89 q 663 14 718 31 q 553 -7 607 -3 l 517 -62 q 540 -58 528 -60 q 564 -57 553 -57 q 645 -79 613 -57 q 678 -150 678 -101 q 637 -231 678 -200 q 513 -262 596 -262 q 433 -254 468 -262 q 369 -235 397 -246 l 401 -175 z "},"È":{"ha":838,"x_min":111,"x_max":788,"o":"m 788 138 l 788 0 l 111 0 l 111 986 l 775 986 l 775 849 l 267 849 l 267 568 l 707 568 l 707 439 l 267 439 l 267 138 l 788 138 m 297 1274 l 443 1274 l 522 1121 l 425 1090 l 297 1274 z "},"É":{"ha":838,"x_min":111,"x_max":788,"o":"m 493 1089 l 393 1119 l 472 1272 l 618 1272 l 493 1089 m 788 138 l 788 0 l 111 0 l 111 986 l 775 986 l 775 849 l 267 849 l 267 568 l 707 568 l 707 439 l 267 439 l 267 138 l 788 138 z "},"Ê":{"ha":838,"x_min":111,"x_max":788,"o":"m 260 1140 l 404 1272 l 514 1272 l 658 1140 l 576 1101 l 458 1189 l 340 1101 l 260 1140 m 788 138 l 788 0 l 111 0 l 111 986 l 775 986 l 775 849 l 267 849 l 267 568 l 707 568 l 707 439 l 267 439 l 267 138 l 788 138 z "},"Ë":{"ha":838,"x_min":111,"x_max":788,"o":"m 272 1114 l 272 1267 l 400 1267 l 400 1114 l 272 1114 m 518 1114 l 518 1267 l 646 1267 l 646 1114 l 518 1114 m 788 138 l 788 0 l 111 0 l 111 986 l 775 986 l 775 849 l 267 849 l 267 568 l 707 568 l 707 439 l 267 439 l 267 138 l 788 138 z "},"Ì":{"ha":378,"x_min":28,"x_max":267,"o":"m 111 0 l 111 986 l 267 986 l 267 0 l 111 0 m 28 1274 l 174 1274 l 253 1121 l 156 1090 l 28 1274 z "},"Í":{"ha":378,"x_min":111,"x_max":349,"o":"m 111 0 l 111 986 l 267 986 l 267 0 l 111 0 m 224 1089 l 124 1119 l 203 1272 l 349 1272 l 224 1089 z "},"Î":{"ha":378,"x_min":-10,"x_max":389,"o":"m 111 0 l 111 986 l 267 986 l 267 0 l 111 0 m -10 1140 l 135 1272 l 244 1272 l 389 1140 l 307 1101 l 189 1189 l 71 1101 l -10 1140 z "},"Ï":{"ha":378,"x_min":3,"x_max":376,"o":"m 111 0 l 111 986 l 267 986 l 267 0 l 111 0 m 3 1114 l 3 1267 l 131 1267 l 131 1114 l 3 1114 m 249 1114 l 249 1267 l 376 1267 l 376 1114 l 249 1114 z "},"Ð":{"ha":1003,"x_min":46,"x_max":950,"o":"m 119 0 l 119 438 l 46 438 l 46 554 l 119 554 l 119 986 l 469 986 q 678 947 589 986 q 828 842 768 908 q 919 685 889 775 q 950 494 950 596 q 916 291 950 382 q 819 135 882 200 q 668 35 757 71 q 469 0 579 0 l 119 0 m 792 494 q 770 638 792 572 q 707 749 749 703 q 606 822 665 796 q 469 849 546 849 l 275 849 l 275 554 l 485 554 l 485 438 l 275 438 l 275 138 l 469 138 q 608 165 547 138 q 709 240 668 192 q 771 353 750 288 q 792 494 792 418 z "},"Ñ":{"ha":1065,"x_min":111,"x_max":954,"o":"m 267 694 l 267 0 l 111 0 l 111 986 l 233 986 l 797 275 l 797 985 l 954 985 l 954 0 l 825 0 l 267 694 m 621 1111 q 565 1120 589 1111 q 522 1141 542 1129 q 482 1162 501 1153 q 440 1171 463 1171 q 403 1161 417 1171 q 383 1140 390 1151 q 374 1117 376 1128 q 372 1104 372 1106 l 286 1104 q 293 1142 286 1115 q 317 1195 300 1168 q 363 1243 335 1222 q 435 1264 392 1264 q 488 1254 465 1264 q 531 1233 511 1244 q 572 1213 551 1222 q 617 1203 592 1203 q 657 1213 642 1203 q 680 1235 672 1222 q 690 1258 688 1247 q 692 1271 692 1268 l 779 1271 q 772 1236 779 1263 q 746 1182 764 1210 q 697 1133 728 1154 q 621 1111 667 1111 z "},"Ò":{"ha":1044,"x_min":49,"x_max":994,"o":"m 521 -7 q 328 35 415 -7 q 179 148 242 78 q 83 308 117 218 q 49 493 49 399 q 85 682 49 592 q 184 842 121 772 q 334 952 247 911 q 524 993 421 993 q 716 949 629 993 q 865 835 803 906 q 960 674 926 764 q 994 492 994 585 q 959 303 994 393 q 860 144 924 213 q 709 34 796 75 q 521 -7 622 -7 m 207 493 q 229 358 207 424 q 292 243 251 293 q 392 163 333 193 q 522 133 450 133 q 655 165 597 133 q 753 247 713 196 q 814 363 793 299 q 835 493 835 426 q 813 628 835 564 q 749 742 790 693 q 651 822 708 792 q 522 851 593 851 q 389 820 447 851 q 290 739 331 789 q 228 624 250 689 q 207 493 207 560 m 364 1274 l 510 1274 l 589 1121 l 492 1090 l 364 1274 z "},"Ó":{"ha":1044,"x_min":49,"x_max":994,"o":"m 560 1089 l 460 1119 l 539 1272 l 685 1272 l 560 1089 m 521 -7 q 328 35 415 -7 q 179 148 242 78 q 83 308 117 218 q 49 493 49 399 q 85 682 49 592 q 184 842 121 772 q 334 952 247 911 q 524 993 421 993 q 716 949 629 993 q 865 835 803 906 q 960 674 926 764 q 994 492 994 585 q 959 303 994 393 q 860 144 924 213 q 709 34 796 75 q 521 -7 622 -7 m 207 493 q 229 358 207 424 q 292 243 251 293 q 392 163 333 193 q 522 133 450 133 q 655 165 597 133 q 753 247 713 196 q 814 363 793 299 q 835 493 835 426 q 813 628 835 564 q 749 742 790 693 q 651 822 708 792 q 522 851 593 851 q 389 820 447 851 q 290 739 331 789 q 228 624 250 689 q 207 493 207 560 z "},"Ô":{"ha":1044,"x_min":49,"x_max":994,"o":"m 324 1140 l 468 1272 l 578 1272 l 722 1140 l 640 1101 l 522 1189 l 404 1101 l 324 1140 m 521 -7 q 328 35 415 -7 q 179 148 242 78 q 83 308 117 218 q 49 493 49 399 q 85 682 49 592 q 184 842 121 772 q 334 952 247 911 q 524 993 421 993 q 716 949 629 993 q 865 835 803 906 q 960 674 926 764 q 994 492 994 585 q 959 303 994 393 q 860 144 924 213 q 709 34 796 75 q 521 -7 622 -7 m 207 493 q 229 358 207 424 q 292 243 251 293 q 392 163 333 193 q 522 133 450 133 q 655 165 597 133 q 753 247 713 196 q 814 363 793 299 q 835 493 835 426 q 813 628 835 564 q 749 742 790 693 q 651 822 708 792 q 522 851 593 851 q 389 820 447 851 q 290 739 331 789 q 228 624 250 689 q 207 493 207 560 z "},"Õ":{"ha":1044,"x_min":49,"x_max":994,"o":"m 521 -7 q 328 35 415 -7 q 179 148 242 78 q 83 308 117 218 q 49 493 49 399 q 85 682 49 592 q 184 842 121 772 q 334 952 247 911 q 524 993 421 993 q 716 949 629 993 q 865 835 803 906 q 960 674 926 764 q 994 492 994 585 q 959 303 994 393 q 860 144 924 213 q 709 34 796 75 q 521 -7 622 -7 m 207 493 q 229 358 207 424 q 292 243 251 293 q 392 163 333 193 q 522 133 450 133 q 655 165 597 133 q 753 247 713 196 q 814 363 793 299 q 835 493 835 426 q 813 628 835 564 q 749 742 790 693 q 651 822 708 792 q 522 851 593 851 q 389 820 447 851 q 290 739 331 789 q 228 624 250 689 q 207 493 207 560 m 613 1113 q 557 1122 581 1113 q 513 1142 533 1131 q 474 1163 493 1154 q 432 1172 454 1172 q 395 1163 408 1172 q 375 1141 382 1153 q 366 1118 368 1129 q 364 1106 364 1107 l 278 1106 q 285 1143 278 1117 q 309 1197 292 1169 q 355 1244 326 1224 q 426 1265 383 1265 q 480 1256 457 1265 q 523 1235 503 1246 q 563 1214 543 1224 q 608 1204 583 1204 q 649 1214 633 1204 q 672 1236 664 1224 q 681 1259 679 1249 q 683 1272 683 1269 l 771 1272 q 763 1238 771 1264 q 738 1183 756 1211 q 689 1134 719 1156 q 613 1113 658 1113 z "},"Ö":{"ha":1044,"x_min":49,"x_max":994,"o":"m 338 1114 l 338 1267 l 465 1267 l 465 1114 l 338 1114 m 583 1114 l 583 1267 l 711 1267 l 711 1114 l 583 1114 m 521 -7 q 328 35 415 -7 q 179 148 242 78 q 83 308 117 218 q 49 493 49 399 q 85 682 49 592 q 184 842 121 772 q 334 952 247 911 q 524 993 421 993 q 716 949 629 993 q 865 835 803 906 q 960 674 926 764 q 994 492 994 585 q 959 303 994 393 q 860 144 924 213 q 709 34 796 75 q 521 -7 622 -7 m 207 493 q 229 358 207 424 q 292 243 251 293 q 392 163 333 193 q 522 133 450 133 q 655 165 597 133 q 753 247 713 196 q 814 363 793 299 q 835 493 835 426 q 813 628 835 564 q 749 742 790 693 q 651 822 708 792 q 522 851 593 851 q 389 820 447 851 q 290 739 331 789 q 228 624 250 689 q 207 493 207 560 z "},"×":{"ha":653,"x_min":79,"x_max":575,"o":"m 575 228 l 479 133 l 326 285 l 174 133 l 79 229 l 229 381 l 83 529 l 179 624 l 326 476 l 475 625 l 569 529 l 422 381 l 575 228 z "},"Ø":{"ha":1043,"x_min":49,"x_max":994,"o":"m 944 986 l 851 850 q 957 683 919 778 q 994 492 994 589 q 959 303 994 393 q 860 144 924 213 q 709 34 796 75 q 521 -7 622 -7 q 404 8 458 -7 q 301 49 350 22 l 268 0 l 99 0 l 190 135 q 85 299 122 206 q 49 493 49 393 q 85 682 49 592 q 184 842 121 772 q 334 952 247 911 q 524 993 421 993 q 639 978 585 993 q 740 936 693 964 l 775 986 l 944 986 m 207 493 q 225 369 207 429 q 278 261 243 310 l 658 817 q 522 851 596 851 q 389 820 447 851 q 290 739 331 789 q 228 624 250 689 q 207 493 207 560 m 835 493 q 817 616 835 557 q 764 724 799 675 l 383 167 q 449 142 414 151 q 522 133 483 133 q 655 165 597 133 q 753 247 713 196 q 814 363 793 299 q 835 493 835 426 z "},"Ù":{"ha":1044,"x_min":97,"x_max":949,"o":"m 522 133 q 651 164 600 133 q 734 244 703 194 q 778 356 765 293 q 792 486 792 419 l 792 986 l 949 986 l 949 486 q 925 295 949 385 q 850 138 901 206 q 717 32 799 71 q 522 -7 636 -7 q 323 34 404 -7 q 192 144 242 75 q 119 301 142 213 q 97 486 97 390 l 97 986 l 253 986 l 253 486 q 266 355 253 418 q 310 242 279 292 q 394 163 342 193 q 522 133 446 133 m 363 1274 l 508 1274 l 588 1121 l 490 1090 l 363 1274 z "},"Ú":{"ha":1044,"x_min":97,"x_max":949,"o":"m 557 1089 l 457 1119 l 536 1272 l 682 1272 l 557 1089 m 522 133 q 651 164 600 133 q 734 244 703 194 q 778 356 765 293 q 792 486 792 419 l 792 986 l 949 986 l 949 486 q 925 295 949 385 q 850 138 901 206 q 717 32 799 71 q 522 -7 636 -7 q 323 34 404 -7 q 192 144 242 75 q 119 301 142 213 q 97 486 97 390 l 97 986 l 253 986 l 253 486 q 266 355 253 418 q 310 242 279 292 q 394 163 342 193 q 522 133 446 133 z "},"Û":{"ha":1044,"x_min":97,"x_max":949,"o":"m 324 1140 l 468 1272 l 578 1272 l 722 1140 l 640 1101 l 522 1189 l 404 1101 l 324 1140 m 522 133 q 651 164 600 133 q 734 244 703 194 q 778 356 765 293 q 792 486 792 419 l 792 986 l 949 986 l 949 486 q 925 295 949 385 q 850 138 901 206 q 717 32 799 71 q 522 -7 636 -7 q 323 34 404 -7 q 192 144 242 75 q 119 301 142 213 q 97 486 97 390 l 97 986 l 253 986 l 253 486 q 266 355 253 418 q 310 242 279 292 q 394 163 342 193 q 522 133 446 133 z "},"Ü":{"ha":1044,"x_min":97,"x_max":949,"o":"m 336 1114 l 336 1267 l 464 1267 l 464 1114 l 336 1114 m 582 1114 l 582 1267 l 710 1267 l 710 1114 l 582 1114 m 522 133 q 651 164 600 133 q 734 244 703 194 q 778 356 765 293 q 792 486 792 419 l 792 986 l 949 986 l 949 486 q 925 295 949 385 q 850 138 901 206 q 717 32 799 71 q 522 -7 636 -7 q 323 34 404 -7 q 192 144 242 75 q 119 301 142 213 q 97 486 97 390 l 97 986 l 253 986 l 253 486 q 266 355 253 418 q 310 242 279 292 q 394 163 342 193 q 522 133 446 133 z "},"Ý":{"ha":913,"x_min":13,"x_max":901,"o":"m 183 986 l 456 492 l 731 986 l 901 986 l 533 353 l 533 0 l 378 0 l 378 356 l 13 986 l 183 986 m 490 1089 l 390 1119 l 469 1272 l 615 1272 l 490 1089 z "},"Þ":{"ha":839,"x_min":111,"x_max":807,"o":"m 501 801 q 624 774 568 801 q 721 701 681 746 q 784 598 761 656 q 807 481 807 540 q 785 360 807 418 q 725 257 764 301 q 631 185 686 213 q 508 158 575 158 l 267 158 l 267 0 l 111 0 l 111 986 l 267 986 l 267 801 l 501 801 m 501 297 q 562 313 535 297 q 609 353 589 328 q 640 411 629 378 q 650 481 650 444 q 638 553 650 519 q 603 611 625 586 q 553 650 582 636 q 493 664 525 664 l 267 664 l 267 297 l 501 297 z "},"ß":{"ha":771,"x_min":92,"x_max":728,"o":"m 339 132 q 431 144 389 133 q 503 175 474 154 q 551 228 533 196 q 568 306 568 261 q 554 378 568 346 q 515 433 540 411 q 456 467 490 456 q 383 479 422 479 l 356 479 l 356 618 l 382 618 q 476 652 440 618 q 511 742 511 686 q 499 797 511 774 q 469 834 488 819 q 427 855 450 849 q 381 861 404 861 q 315 847 342 861 q 270 809 288 832 q 245 756 253 786 q 238 696 238 726 l 238 0 l 92 0 l 92 722 q 114 831 92 781 q 176 916 136 881 q 270 972 215 951 q 389 992 325 992 q 495 976 446 992 q 580 930 544 960 q 635 858 615 900 q 656 765 656 817 q 645 695 656 729 q 617 633 635 661 q 576 586 600 606 q 526 558 553 567 q 674 463 621 535 q 728 290 728 390 q 697 160 728 215 q 614 67 667 104 q 490 12 561 31 q 339 -8 419 -7 l 339 132 z "},"à":{"ha":783,"x_min":39,"x_max":731,"o":"m 285 -14 q 187 3 232 -14 q 109 51 142 21 q 58 124 76 82 q 39 214 39 165 q 61 307 39 265 q 124 379 83 349 q 222 426 165 410 q 346 443 278 443 q 447 434 397 443 q 538 410 497 425 l 538 460 q 492 585 538 540 q 360 631 446 631 q 245 609 301 631 q 129 547 189 588 l 82 644 q 374 739 222 739 q 607 663 524 739 q 690 443 690 586 l 690 181 q 731 131 690 132 l 731 0 q 692 -6 708 -4 q 661 -7 676 -7 q 592 15 617 -7 q 563 72 568 38 l 558 118 q 438 20 510 54 q 285 -14 367 -14 m 326 99 q 431 119 382 99 q 508 175 481 139 q 538 228 538 200 l 538 324 q 455 347 499 339 q 369 356 411 356 q 235 320 288 356 q 183 226 183 285 q 224 135 183 172 q 326 99 264 99 m 213 1014 l 358 1014 l 438 861 l 340 831 l 213 1014 z "},"á":{"ha":783,"x_min":39,"x_max":731,"o":"m 285 -14 q 187 3 232 -14 q 109 51 142 21 q 58 124 76 82 q 39 214 39 165 q 61 307 39 265 q 124 379 83 349 q 222 426 165 410 q 346 443 278 443 q 447 434 397 443 q 538 410 497 425 l 538 460 q 492 585 538 540 q 360 631 446 631 q 245 609 301 631 q 129 547 189 588 l 82 644 q 374 739 222 739 q 607 663 524 739 q 690 443 690 586 l 690 181 q 731 131 690 132 l 731 0 q 692 -6 708 -4 q 661 -7 676 -7 q 592 15 617 -7 q 563 72 568 38 l 558 118 q 438 20 510 54 q 285 -14 367 -14 m 326 99 q 431 119 382 99 q 508 175 481 139 q 538 228 538 200 l 538 324 q 455 347 499 339 q 369 356 411 356 q 235 320 288 356 q 183 226 183 285 q 224 135 183 172 q 326 99 264 99 m 408 831 l 308 861 l 388 1014 l 533 1014 l 408 831 z "},"â":{"ha":783,"x_min":39,"x_max":731,"o":"m 285 -14 q 187 3 232 -14 q 109 51 142 21 q 58 124 76 82 q 39 214 39 165 q 61 307 39 265 q 124 379 83 349 q 222 426 165 410 q 346 443 278 443 q 447 434 397 443 q 538 410 497 425 l 538 460 q 492 585 538 540 q 360 631 446 631 q 245 609 301 631 q 129 547 189 588 l 82 644 q 374 739 222 739 q 607 663 524 739 q 690 443 690 586 l 690 181 q 731 131 690 132 l 731 0 q 692 -6 708 -4 q 661 -7 676 -7 q 592 15 617 -7 q 563 72 568 38 l 558 118 q 438 20 510 54 q 285 -14 367 -14 m 326 99 q 431 119 382 99 q 508 175 481 139 q 538 228 538 200 l 538 324 q 455 347 499 339 q 369 356 411 356 q 235 320 288 356 q 183 226 183 285 q 224 135 183 172 q 326 99 264 99 m 175 882 l 319 1014 l 429 1014 l 574 882 l 492 843 l 374 931 l 256 843 l 175 882 z "},"ã":{"ha":783,"x_min":39,"x_max":731,"o":"m 285 -14 q 187 3 232 -14 q 109 51 142 21 q 58 124 76 82 q 39 214 39 165 q 61 307 39 265 q 124 379 83 349 q 222 426 165 410 q 346 443 278 443 q 447 434 397 443 q 538 410 497 425 l 538 460 q 492 585 538 540 q 360 631 446 631 q 245 609 301 631 q 129 547 189 588 l 82 644 q 374 739 222 739 q 607 663 524 739 q 690 443 690 586 l 690 181 q 731 131 690 132 l 731 0 q 692 -6 708 -4 q 661 -7 676 -7 q 592 15 617 -7 q 563 72 568 38 l 558 118 q 438 20 510 54 q 285 -14 367 -14 m 326 99 q 431 119 382 99 q 508 175 481 139 q 538 228 538 200 l 538 324 q 455 347 499 339 q 369 356 411 356 q 235 320 288 356 q 183 226 183 285 q 224 135 183 172 q 326 99 264 99 m 461 854 q 406 863 429 854 q 362 884 382 872 q 322 905 342 896 q 281 914 303 914 q 244 904 257 914 q 224 883 231 894 q 215 860 217 871 q 213 847 213 849 l 126 847 q 133 885 126 858 q 158 938 140 911 q 203 986 175 965 q 275 1007 232 1007 q 328 997 306 1007 q 372 976 351 988 q 412 956 392 965 q 457 946 432 946 q 497 956 482 946 q 520 978 513 965 q 530 1001 528 990 q 532 1014 532 1011 l 619 1014 q 612 979 619 1006 q 586 925 604 953 q 538 876 568 897 q 461 854 507 854 z "},"ä":{"ha":783,"x_min":39,"x_max":731,"o":"m 285 -14 q 187 3 232 -14 q 109 51 142 21 q 58 124 76 82 q 39 214 39 165 q 61 307 39 265 q 124 379 83 349 q 222 426 165 410 q 346 443 278 443 q 447 434 397 443 q 538 410 497 425 l 538 460 q 492 585 538 540 q 360 631 446 631 q 245 609 301 631 q 129 547 189 588 l 82 644 q 374 739 222 739 q 607 663 524 739 q 690 443 690 586 l 690 181 q 731 131 690 132 l 731 0 q 692 -6 708 -4 q 661 -7 676 -7 q 592 15 617 -7 q 563 72 568 38 l 558 118 q 438 20 510 54 q 285 -14 367 -14 m 326 99 q 431 119 382 99 q 508 175 481 139 q 538 228 538 200 l 538 324 q 455 347 499 339 q 369 356 411 356 q 235 320 288 356 q 183 226 183 285 q 224 135 183 172 q 326 99 264 99 m 188 854 l 188 1007 l 315 1007 l 315 854 l 188 854 m 433 854 l 433 1007 l 561 1007 l 561 854 l 433 854 z "},"å":{"ha":783,"x_min":39,"x_max":731,"o":"m 285 -14 q 187 3 232 -14 q 109 51 142 21 q 58 124 76 82 q 39 214 39 165 q 61 307 39 265 q 124 379 83 349 q 222 426 165 410 q 346 443 278 443 q 447 434 397 443 q 538 410 497 425 l 538 460 q 492 585 538 540 q 360 631 446 631 q 245 609 301 631 q 129 547 189 588 l 82 644 q 374 739 222 739 q 607 663 524 739 q 690 443 690 586 l 690 181 q 731 131 690 132 l 731 0 q 692 -6 708 -4 q 661 -7 676 -7 q 592 15 617 -7 q 563 72 568 38 l 558 118 q 438 20 510 54 q 285 -14 367 -14 m 326 99 q 431 119 382 99 q 508 175 481 139 q 538 228 538 200 l 538 324 q 455 347 499 339 q 369 356 411 356 q 235 320 288 356 q 183 226 183 285 q 224 135 183 172 q 326 99 264 99 m 250 913 q 284 988 250 961 q 372 1014 318 1014 q 462 988 428 1014 q 496 913 496 961 q 462 838 496 865 q 372 811 428 811 q 284 838 318 811 q 250 913 250 865 m 372 964 q 333 950 349 964 q 317 913 317 936 q 333 876 317 892 q 372 861 349 861 q 413 876 396 861 q 429 913 429 890 q 413 950 429 936 q 372 964 396 964 z "},"æ":{"ha":1299,"x_min":39,"x_max":1265,"o":"m 283 -14 q 186 3 231 -14 q 109 51 142 21 q 58 124 76 82 q 39 214 39 165 q 61 307 39 265 q 124 379 83 349 q 220 426 164 410 q 344 443 276 443 q 435 436 390 443 q 517 415 481 429 q 522 456 519 433 q 532 493 525 478 q 480 595 524 560 q 358 631 436 631 q 245 609 301 631 q 129 547 189 588 l 81 644 q 372 739 224 739 q 524 708 460 739 q 625 621 589 678 q 739 706 671 674 q 890 739 807 739 q 1044 709 975 739 q 1163 628 1114 679 q 1238 508 1211 576 q 1265 363 1265 439 q 1265 337 1265 351 q 1261 313 1264 322 l 668 313 q 692 225 672 264 q 742 158 711 186 q 814 114 774 129 q 899 99 854 99 q 959 106 929 99 q 1014 128 989 114 q 1058 164 1039 143 q 1089 210 1078 185 l 1219 172 q 1169 98 1201 132 q 1095 39 1138 64 q 1001 0 1053 14 q 893 -14 950 -14 q 714 28 793 -14 q 586 140 635 69 q 526 69 563 99 q 449 22 490 40 q 365 -6 408 3 q 283 -14 322 -14 m 325 99 q 431 119 382 99 q 508 175 481 139 q 538 224 535 197 q 523 276 528 242 q 517 331 518 310 q 444 349 482 342 q 369 356 406 356 q 234 320 286 356 q 182 226 182 285 q 193 176 182 199 q 224 135 204 153 q 269 108 243 118 q 325 99 294 99 m 1113 410 q 1090 497 1108 457 q 1042 566 1071 538 q 973 610 1013 594 q 888 626 933 626 q 802 610 842 626 q 733 565 763 594 q 686 497 704 536 q 665 410 668 457 l 1113 410 z "},"ç":{"ha":776,"x_min":44,"x_max":742,"o":"m 313 -175 q 364 -194 329 -185 q 435 -203 399 -203 q 492 -192 471 -203 q 514 -156 514 -181 q 494 -118 514 -128 q 442 -108 474 -108 q 381 -114 413 -108 q 331 -125 349 -119 l 389 -12 q 247 26 311 -7 q 138 109 183 58 q 69 226 93 160 q 44 364 44 292 q 71 508 44 440 q 147 628 97 576 q 265 709 196 679 q 421 739 335 739 q 615 690 533 739 q 736 558 696 640 l 588 511 q 517 583 561 557 q 418 608 472 608 q 333 590 372 608 q 264 540 293 572 q 218 463 235 507 q 201 364 201 418 q 219 266 201 311 q 266 188 236 221 q 335 135 296 154 q 419 117 375 117 q 475 124 447 117 q 526 146 503 132 q 566 178 549 160 q 592 217 583 196 l 742 172 q 635 47 710 97 q 460 -12 561 -3 l 428 -62 q 451 -58 439 -60 q 475 -57 464 -57 q 556 -79 524 -57 q 589 -150 589 -101 q 548 -231 589 -200 q 424 -262 507 -262 q 344 -254 379 -262 q 281 -235 308 -246 l 313 -175 z "},"è":{"ha":826,"x_min":44,"x_max":793,"o":"m 421 -14 q 267 16 336 -14 q 148 97 197 46 q 72 217 99 149 q 44 361 44 285 q 72 506 44 438 q 148 627 99 575 q 267 709 197 679 q 422 739 336 739 q 576 708 507 739 q 693 627 644 678 q 767 509 742 576 q 793 368 793 442 q 792 337 793 351 q 789 313 790 322 l 207 313 q 230 225 211 264 q 278 158 249 186 q 347 114 308 129 q 426 99 385 99 q 487 106 457 99 q 542 128 517 114 q 586 164 567 143 q 617 210 606 185 l 747 172 q 623 38 710 90 q 421 -14 536 -14 m 642 418 q 619 503 638 464 q 571 569 600 542 q 503 611 542 596 q 421 626 464 626 q 340 611 378 626 q 272 569 301 596 q 225 503 243 542 q 203 418 207 464 l 642 418 m 257 1014 l 403 1014 l 482 861 l 385 831 l 257 1014 z "},"é":{"ha":826,"x_min":44,"x_max":793,"o":"m 451 831 l 351 861 l 431 1014 l 576 1014 l 451 831 m 421 -14 q 267 16 336 -14 q 148 97 197 46 q 72 217 99 149 q 44 361 44 285 q 72 506 44 438 q 148 627 99 575 q 267 709 197 679 q 422 739 336 739 q 576 708 507 739 q 693 627 644 678 q 767 509 742 576 q 793 368 793 442 q 792 337 793 351 q 789 313 790 322 l 207 313 q 230 225 211 264 q 278 158 249 186 q 347 114 308 129 q 426 99 385 99 q 487 106 457 99 q 542 128 517 114 q 586 164 567 143 q 617 210 606 185 l 747 172 q 623 38 710 90 q 421 -14 536 -14 m 642 418 q 619 503 638 464 q 571 569 600 542 q 503 611 542 596 q 421 626 464 626 q 340 611 378 626 q 272 569 301 596 q 225 503 243 542 q 203 418 207 464 l 642 418 z "},"ê":{"ha":826,"x_min":44,"x_max":793,"o":"m 218 882 l 363 1014 l 472 1014 l 617 882 l 535 843 l 417 931 l 299 843 l 218 882 m 421 -14 q 267 16 336 -14 q 148 97 197 46 q 72 217 99 149 q 44 361 44 285 q 72 506 44 438 q 148 627 99 575 q 267 709 197 679 q 422 739 336 739 q 576 708 507 739 q 693 627 644 678 q 767 509 742 576 q 793 368 793 442 q 792 337 793 351 q 789 313 790 322 l 207 313 q 230 225 211 264 q 278 158 249 186 q 347 114 308 129 q 426 99 385 99 q 487 106 457 99 q 542 128 517 114 q 586 164 567 143 q 617 210 606 185 l 747 172 q 623 38 710 90 q 421 -14 536 -14 m 642 418 q 619 503 638 464 q 571 569 600 542 q 503 611 542 596 q 421 626 464 626 q 340 611 378 626 q 272 569 301 596 q 225 503 243 542 q 203 418 207 464 l 642 418 z "},"ë":{"ha":826,"x_min":44,"x_max":793,"o":"m 231 854 l 231 1007 l 358 1007 l 358 854 l 231 854 m 476 854 l 476 1007 l 604 1007 l 604 854 l 476 854 m 421 -14 q 267 16 336 -14 q 148 97 197 46 q 72 217 99 149 q 44 361 44 285 q 72 506 44 438 q 148 627 99 575 q 267 709 197 679 q 422 739 336 739 q 576 708 507 739 q 693 627 644 678 q 767 509 742 576 q 793 368 793 442 q 792 337 793 351 q 789 313 790 322 l 207 313 q 230 225 211 264 q 278 158 249 186 q 347 114 308 129 q 426 99 385 99 q 487 106 457 99 q 542 128 517 114 q 586 164 567 143 q 617 210 606 185 l 747 172 q 623 38 710 90 q 421 -14 536 -14 m 642 418 q 619 503 638 464 q 571 569 600 542 q 503 611 542 596 q 421 626 464 626 q 340 611 378 626 q 272 569 301 596 q 225 503 243 542 q 203 418 207 464 l 642 418 z "},"ì":{"ha":336,"x_min":7,"x_max":244,"o":"m 92 0 l 92 726 l 244 726 l 244 0 l 92 0 m 7 1014 l 153 1014 l 232 861 l 135 831 l 7 1014 z "},"ı":{"ha":336,"x_min":92,"x_max":244,"o":"m 92 0 l 92 726 l 244 726 l 244 0 l 92 0 z "},"í":{"ha":336,"x_min":92,"x_max":328,"o":"m 203 831 l 103 861 l 182 1014 l 328 1014 l 203 831 m 92 0 l 92 726 l 244 726 l 244 0 l 92 0 z "},"î":{"ha":336,"x_min":-31,"x_max":368,"o":"m -31 882 l 114 1014 l 224 1014 l 368 882 l 286 843 l 168 931 l 50 843 l -31 882 m 92 0 l 92 726 l 244 726 l 244 0 l 92 0 z "},"ï":{"ha":336,"x_min":-18,"x_max":356,"o":"m -18 854 l -18 1007 l 110 1007 l 110 854 l -18 854 m 228 854 l 228 1007 l 356 1007 l 356 854 l 228 854 m 92 0 l 92 726 l 244 726 l 244 0 l 92 0 z "},"ð":{"ha":846,"x_min":49,"x_max":796,"o":"m 715 928 l 613 869 q 696 756 661 815 q 753 637 731 697 q 785 517 775 576 q 796 403 796 457 q 766 228 796 306 q 685 97 736 151 q 565 15 635 43 q 417 -14 496 -14 q 273 12 340 -14 q 156 83 206 38 q 77 191 106 129 q 49 324 49 253 q 75 453 49 392 q 147 559 101 514 q 254 631 193 604 q 386 657 315 657 q 534 622 467 657 q 639 528 601 586 q 591 674 624 603 q 496 813 558 744 l 356 732 l 311 794 l 439 868 q 225 1014 356 942 l 429 1014 q 557 924 500 975 l 671 990 l 715 928 m 206 324 q 222 242 206 279 q 268 176 239 204 q 336 133 297 149 q 419 117 375 117 q 507 133 467 117 q 576 179 547 150 q 622 247 606 208 q 639 331 639 286 q 622 411 639 374 q 576 476 606 449 q 508 518 547 503 q 424 533 469 533 q 338 517 378 533 q 268 472 297 500 q 222 406 239 444 q 206 324 206 367 z "},"ñ":{"ha":829,"x_min":92,"x_max":743,"o":"m 743 0 l 590 0 l 590 407 q 558 556 590 510 q 461 603 525 603 q 394 590 428 603 q 332 555 361 578 q 280 501 303 532 q 244 432 257 469 l 244 0 l 92 0 l 92 726 l 231 726 l 231 581 q 351 697 272 654 q 526 739 431 739 q 633 715 592 739 q 699 651 675 692 q 733 556 724 610 q 743 443 743 503 l 743 0 m 517 854 q 461 863 485 854 q 417 884 438 872 q 378 905 397 896 q 336 914 358 914 q 299 904 313 914 q 279 883 286 894 q 270 860 272 871 q 268 847 268 849 l 182 847 q 189 885 182 858 q 213 938 196 911 q 259 986 231 965 q 331 1007 288 1007 q 384 997 361 1007 q 427 976 407 988 q 467 956 447 965 q 513 946 488 946 q 553 956 538 946 q 576 978 568 965 q 585 1001 583 990 q 588 1014 588 1011 l 675 1014 q 667 979 675 1006 q 642 925 660 953 q 593 876 624 897 q 517 854 563 854 z "},"ò":{"ha":836,"x_min":44,"x_max":792,"o":"m 418 -14 q 263 17 332 -14 q 146 99 194 47 q 71 219 97 150 q 44 363 44 288 q 71 506 44 438 q 147 626 97 575 q 265 708 196 678 q 418 739 333 739 q 572 708 503 739 q 690 626 640 678 q 765 506 739 575 q 792 363 792 438 q 765 219 792 288 q 690 99 739 150 q 572 17 640 47 q 418 -14 503 -14 m 201 361 q 218 264 201 308 q 264 187 235 219 q 333 135 293 154 q 418 117 372 117 q 503 135 464 117 q 572 188 543 154 q 618 265 601 221 q 635 363 635 310 q 618 459 635 414 q 572 538 601 504 q 503 590 543 571 q 418 608 464 608 q 334 589 374 608 q 265 536 294 569 q 219 458 236 503 q 201 361 201 413 m 258 1014 l 404 1014 l 483 861 l 386 831 l 258 1014 z "},"ó":{"ha":836,"x_min":44,"x_max":792,"o":"m 451 831 l 351 861 l 431 1014 l 576 1014 l 451 831 m 418 -14 q 263 17 332 -14 q 146 99 194 47 q 71 219 97 150 q 44 363 44 288 q 71 506 44 438 q 147 626 97 575 q 265 708 196 678 q 418 739 333 739 q 572 708 503 739 q 690 626 640 678 q 765 506 739 575 q 792 363 792 438 q 765 219 792 288 q 690 99 739 150 q 572 17 640 47 q 418 -14 503 -14 m 201 361 q 218 264 201 308 q 264 187 235 219 q 333 135 293 154 q 418 117 372 117 q 503 135 464 117 q 572 188 543 154 q 618 265 601 221 q 635 363 635 310 q 618 459 635 414 q 572 538 601 504 q 503 590 543 571 q 418 608 464 608 q 334 589 374 608 q 265 536 294 569 q 219 458 236 503 q 201 361 201 413 z "},"ô":{"ha":836,"x_min":44,"x_max":792,"o":"m 218 882 l 363 1014 l 472 1014 l 617 882 l 535 843 l 417 931 l 299 843 l 218 882 m 418 -14 q 263 17 332 -14 q 146 99 194 47 q 71 219 97 150 q 44 363 44 288 q 71 506 44 438 q 147 626 97 575 q 265 708 196 678 q 418 739 333 739 q 572 708 503 739 q 690 626 640 678 q 765 506 739 575 q 792 363 792 438 q 765 219 792 288 q 690 99 739 150 q 572 17 640 47 q 418 -14 503 -14 m 201 361 q 218 264 201 308 q 264 187 235 219 q 333 135 293 154 q 418 117 372 117 q 503 135 464 117 q 572 188 543 154 q 618 265 601 221 q 635 363 635 310 q 618 459 635 414 q 572 538 601 504 q 503 590 543 571 q 418 608 464 608 q 334 589 374 608 q 265 536 294 569 q 219 458 236 503 q 201 361 201 413 z "},"õ":{"ha":836,"x_min":44,"x_max":792,"o":"m 418 -14 q 263 17 332 -14 q 146 99 194 47 q 71 219 97 150 q 44 363 44 288 q 71 506 44 438 q 147 626 97 575 q 265 708 196 678 q 418 739 333 739 q 572 708 503 739 q 690 626 640 678 q 765 506 739 575 q 792 363 792 438 q 765 219 792 288 q 690 99 739 150 q 572 17 640 47 q 418 -14 503 -14 m 201 361 q 218 264 201 308 q 264 187 235 219 q 333 135 293 154 q 418 117 372 117 q 503 135 464 117 q 572 188 543 154 q 618 265 601 221 q 635 363 635 310 q 618 459 635 414 q 572 538 601 504 q 503 590 543 571 q 418 608 464 608 q 334 589 374 608 q 265 536 294 569 q 219 458 236 503 q 201 361 201 413 m 506 854 q 450 863 474 854 q 406 884 426 872 q 367 905 386 896 q 325 914 347 914 q 288 904 301 914 q 268 883 275 894 q 259 860 261 871 q 257 847 257 849 l 171 847 q 178 885 171 858 q 202 938 185 911 q 248 986 219 965 q 319 1007 276 1007 q 373 997 350 1007 q 416 976 396 988 q 456 956 436 965 q 501 946 476 946 q 542 956 526 946 q 565 978 557 965 q 574 1001 572 990 q 576 1014 576 1011 l 664 1014 q 656 979 664 1006 q 631 925 649 953 q 582 876 613 897 q 506 854 551 854 z "},"ö":{"ha":836,"x_min":44,"x_max":792,"o":"m 231 854 l 231 1007 l 358 1007 l 358 854 l 231 854 m 476 854 l 476 1007 l 604 1007 l 604 854 l 476 854 m 418 -14 q 263 17 332 -14 q 146 99 194 47 q 71 219 97 150 q 44 363 44 288 q 71 506 44 438 q 147 626 97 575 q 265 708 196 678 q 418 739 333 739 q 572 708 503 739 q 690 626 640 678 q 765 506 739 575 q 792 363 792 438 q 765 219 792 288 q 690 99 739 150 q 572 17 640 47 q 418 -14 503 -14 m 201 361 q 218 264 201 308 q 264 187 235 219 q 333 135 293 154 q 418 117 372 117 q 503 135 464 117 q 572 188 543 154 q 618 265 601 221 q 635 363 635 310 q 618 459 635 414 q 572 538 601 504 q 503 590 543 571 q 418 608 464 608 q 334 589 374 608 q 265 536 294 569 q 219 458 236 503 q 201 361 201 413 z "},"÷":{"ha":726,"x_min":83,"x_max":643,"o":"m 299 571 l 299 731 l 428 731 l 428 571 l 299 571 m 299 81 l 299 239 l 428 239 l 428 81 l 299 81 m 83 344 l 83 467 l 643 467 l 643 344 l 83 344 z "},"ø":{"ha":836,"x_min":44,"x_max":792,"o":"m 92 -4 l 163 82 q 74 207 104 135 q 44 363 44 279 q 71 506 44 438 q 147 626 97 575 q 265 708 196 678 q 418 739 333 739 q 524 725 475 739 q 614 686 572 711 l 649 731 l 740 731 l 669 644 q 760 519 728 592 q 792 363 792 446 q 765 219 792 288 q 690 99 739 150 q 572 17 640 47 q 418 -14 503 -14 q 217 40 303 -14 l 181 -4 l 92 -4 m 418 117 q 503 135 464 117 q 572 188 543 154 q 618 265 601 221 q 635 363 635 310 q 619 454 635 411 q 578 531 604 497 l 303 153 q 418 117 354 117 m 201 361 q 216 269 201 313 q 257 194 231 226 l 529 574 q 418 608 476 608 q 334 589 374 608 q 265 536 294 569 q 219 458 236 503 q 201 361 201 413 z "},"ù":{"ha":846,"x_min":85,"x_max":785,"o":"m 315 -14 q 143 60 201 -14 q 85 282 85 135 l 85 726 l 238 726 l 238 313 q 376 117 238 117 q 500 157 442 117 q 590 274 558 197 l 590 726 l 743 726 l 743 181 q 752 143 743 154 q 785 131 761 132 l 785 0 q 746 -6 761 -4 q 717 -7 731 -7 q 646 16 675 -7 q 615 75 617 39 l 613 147 q 486 27 564 68 q 315 -14 408 -14 m 253 1014 l 399 1014 l 478 861 l 381 831 l 253 1014 z "},"ú":{"ha":846,"x_min":85,"x_max":785,"o":"m 447 831 l 347 861 l 426 1014 l 572 1014 l 447 831 m 315 -14 q 143 60 201 -14 q 85 282 85 135 l 85 726 l 238 726 l 238 313 q 376 117 238 117 q 500 157 442 117 q 590 274 558 197 l 590 726 l 743 726 l 743 181 q 752 143 743 154 q 785 131 761 132 l 785 0 q 746 -6 761 -4 q 717 -7 731 -7 q 646 16 675 -7 q 615 75 617 39 l 613 147 q 486 27 564 68 q 315 -14 408 -14 z "},"û":{"ha":846,"x_min":85,"x_max":785,"o":"m 214 882 l 358 1014 l 468 1014 l 613 882 l 531 843 l 413 931 l 294 843 l 214 882 m 315 -14 q 143 60 201 -14 q 85 282 85 135 l 85 726 l 238 726 l 238 313 q 376 117 238 117 q 500 157 442 117 q 590 274 558 197 l 590 726 l 743 726 l 743 181 q 752 143 743 154 q 785 131 761 132 l 785 0 q 746 -6 761 -4 q 717 -7 731 -7 q 646 16 675 -7 q 615 75 617 39 l 613 147 q 486 27 564 68 q 315 -14 408 -14 z "},"ü":{"ha":846,"x_min":85,"x_max":785,"o":"m 226 854 l 226 1007 l 354 1007 l 354 854 l 226 854 m 472 854 l 472 1007 l 600 1007 l 600 854 l 472 854 m 315 -14 q 143 60 201 -14 q 85 282 85 135 l 85 726 l 238 726 l 238 313 q 376 117 238 117 q 500 157 442 117 q 590 274 558 197 l 590 726 l 743 726 l 743 181 q 752 143 743 154 q 785 131 761 132 l 785 0 q 746 -6 761 -4 q 717 -7 731 -7 q 646 16 675 -7 q 615 75 617 39 l 613 147 q 486 27 564 68 q 315 -14 408 -14 z "},"ý":{"ha":760,"x_min":13,"x_max":739,"o":"m 117 -171 q 158 -178 138 -175 q 190 -181 178 -181 q 222 -173 208 -181 q 249 -146 235 -165 q 277 -91 263 -126 q 311 0 292 -56 l 13 726 l 169 726 l 394 135 l 594 726 l 739 726 l 410 -168 q 333 -273 388 -231 q 192 -315 278 -315 q 157 -313 175 -315 q 117 -304 139 -311 l 117 -171 m 428 831 l 328 861 l 407 1014 l 553 1014 l 428 831 z "},"þ":{"ha":836,"x_min":92,"x_max":793,"o":"m 793 357 q 763 210 792 281 q 685 88 735 140 q 571 3 636 35 q 431 -29 506 -29 q 316 -1 364 -29 q 249 61 268 28 l 249 -296 l 92 -296 l 92 986 l 249 986 l 249 646 q 321 714 275 683 q 443 744 367 744 q 588 710 524 744 q 699 620 653 675 q 769 496 744 565 q 793 357 793 426 m 636 358 q 622 453 636 408 q 581 532 607 497 q 517 587 554 567 q 433 607 479 607 q 322 567 367 607 q 249 472 276 528 l 249 242 q 265 194 249 218 q 308 152 282 171 q 365 122 333 133 q 426 110 397 110 q 510 130 472 110 q 577 185 549 150 q 621 264 606 219 q 636 358 636 308 z "},"ÿ":{"ha":760,"x_min":13,"x_max":739,"o":"m 117 -171 q 158 -178 138 -175 q 190 -181 178 -181 q 222 -173 208 -181 q 249 -146 235 -165 q 277 -91 263 -126 q 311 0 292 -56 l 13 726 l 169 726 l 394 135 l 594 726 l 739 726 l 410 -168 q 333 -273 388 -231 q 192 -315 278 -315 q 157 -313 175 -315 q 117 -304 139 -311 l 117 -171 m 207 854 l 207 1007 l 335 1007 l 335 854 l 207 854 m 453 854 l 453 1007 l 581 1007 l 581 854 l 453 854 z "},"Ā":{"ha":938,"x_min":10,"x_max":926,"o":"m 401 986 l 538 986 l 926 0 l 763 0 l 658 268 l 278 268 l 175 0 l 10 0 l 401 986 m 628 383 l 469 807 l 306 383 l 628 383 m 264 1153 l 264 1250 l 675 1250 l 675 1153 l 264 1153 z "},"ā":{"ha":783,"x_min":39,"x_max":731,"o":"m 285 -14 q 187 3 232 -14 q 109 51 142 21 q 58 124 76 82 q 39 214 39 165 q 61 307 39 265 q 124 379 83 349 q 222 426 165 410 q 346 443 278 443 q 447 434 397 443 q 538 410 497 425 l 538 460 q 492 585 538 540 q 360 631 446 631 q 245 609 301 631 q 129 547 189 588 l 82 644 q 374 739 222 739 q 607 663 524 739 q 690 443 690 586 l 690 181 q 731 131 690 132 l 731 0 q 692 -6 708 -4 q 661 -7 676 -7 q 592 15 617 -7 q 563 72 568 38 l 558 118 q 438 20 510 54 q 285 -14 367 -14 m 326 99 q 431 119 382 99 q 508 175 481 139 q 538 228 538 200 l 538 324 q 455 347 499 339 q 369 356 411 356 q 235 320 288 356 q 183 226 183 285 q 224 135 183 172 q 326 99 264 99 m 169 894 l 169 992 l 581 992 l 581 894 l 169 894 z "},"Ă":{"ha":938,"x_min":10,"x_max":926,"o":"m 401 986 l 538 986 l 926 0 l 763 0 l 658 268 l 278 268 l 175 0 l 10 0 l 401 986 m 628 383 l 469 807 l 306 383 l 628 383 m 469 1174 q 523 1201 500 1174 q 550 1272 546 1229 l 635 1272 q 622 1205 635 1236 q 588 1151 610 1174 q 535 1115 565 1128 q 469 1103 504 1103 q 403 1115 433 1103 q 351 1151 374 1128 q 317 1205 329 1174 q 304 1272 304 1236 l 389 1272 q 413 1203 389 1232 q 469 1174 438 1174 z "},"˘":{"ha":433,"x_min":51,"x_max":382,"o":"m 217 915 q 270 943 247 915 q 297 1014 293 971 l 382 1014 q 369 947 382 978 q 335 892 357 915 q 282 857 313 869 q 217 844 251 844 q 151 857 181 844 q 99 892 121 869 q 64 947 76 915 q 51 1014 51 978 l 136 1014 q 160 944 136 974 q 217 915 185 915 z "},"ă":{"ha":783,"x_min":39,"x_max":731,"o":"m 285 -14 q 187 3 232 -14 q 109 51 142 21 q 58 124 76 82 q 39 214 39 165 q 61 307 39 265 q 124 379 83 349 q 222 426 165 410 q 346 443 278 443 q 447 434 397 443 q 538 410 497 425 l 538 460 q 492 585 538 540 q 360 631 446 631 q 245 609 301 631 q 129 547 189 588 l 82 644 q 374 739 222 739 q 607 663 524 739 q 690 443 690 586 l 690 181 q 731 131 690 132 l 731 0 q 692 -6 708 -4 q 661 -7 676 -7 q 592 15 617 -7 q 563 72 568 38 l 558 118 q 438 20 510 54 q 285 -14 367 -14 m 326 99 q 431 119 382 99 q 508 175 481 139 q 538 228 538 200 l 538 324 q 455 347 499 339 q 369 356 411 356 q 235 320 288 356 q 183 226 183 285 q 224 135 183 172 q 326 99 264 99 m 374 915 q 427 943 404 915 q 454 1014 450 971 l 539 1014 q 526 947 539 978 q 492 892 514 915 q 439 857 469 869 q 374 844 408 844 q 308 857 338 844 q 256 892 278 869 q 221 947 233 915 q 208 1014 208 978 l 293 1014 q 317 944 293 974 q 374 915 342 915 z "},"Ą":{"ha":940,"x_min":10,"x_max":926,"o":"m 861 -261 q 758 -219 793 -250 q 724 -147 724 -187 q 833 0 724 -71 l 763 0 l 658 268 l 278 268 l 175 0 l 10 0 l 401 986 l 538 986 l 926 0 q 842 -65 868 -36 q 815 -124 815 -94 q 896 -181 815 -175 l 861 -261 m 628 383 l 469 807 l 306 383 l 628 383 z "},"˛":{"ha":378,"x_min":85,"x_max":288,"o":"m 222 -261 q 119 -219 154 -250 q 85 -147 85 -187 q 242 28 85 -58 l 288 0 q 203 -65 229 -36 q 176 -124 176 -94 q 257 -181 176 -175 l 222 -261 l 222 -261 z "},"ą":{"ha":783,"x_min":39,"x_max":731,"o":"m 665 -261 q 563 -219 597 -250 q 528 -147 528 -187 q 632 -4 528 -74 q 584 24 601 3 q 563 72 567 44 l 558 118 q 438 20 510 54 q 285 -14 367 -14 q 187 3 232 -14 q 109 51 142 21 q 58 124 76 82 q 39 214 39 165 q 61 307 39 265 q 124 379 83 349 q 222 426 165 410 q 346 443 278 443 q 447 434 397 443 q 538 410 497 425 l 538 460 q 492 585 538 540 q 360 631 446 631 q 245 609 301 631 q 129 547 189 588 l 82 644 q 374 739 222 739 q 607 663 524 739 q 690 443 690 586 l 690 181 q 731 131 690 132 l 731 0 q 646 -65 672 -36 q 619 -124 619 -94 q 700 -181 619 -175 l 665 -261 m 326 99 q 431 119 382 99 q 508 175 481 139 q 538 228 538 200 l 538 324 q 455 347 499 339 q 369 356 411 356 q 235 320 288 356 q 183 226 183 285 q 224 135 183 172 q 326 99 264 99 z "},"Ć":{"ha":950,"x_min":49,"x_max":917,"o":"m 561 1089 l 461 1119 l 540 1272 l 686 1272 l 561 1089 m 49 500 q 81 677 49 589 q 174 835 113 765 q 325 949 236 906 q 526 992 414 992 q 757 932 661 992 q 901 776 853 872 l 779 694 q 729 769 758 739 q 665 818 700 800 q 593 844 631 836 q 521 851 556 851 q 385 820 443 851 q 287 738 326 789 q 227 622 247 686 q 207 494 207 558 q 231 357 207 422 q 297 242 254 292 q 397 162 339 192 q 525 132 456 132 q 599 141 561 132 q 673 170 638 150 q 738 221 708 190 q 788 294 768 251 l 917 221 q 850 123 893 165 q 753 51 807 81 q 638 7 699 22 q 519 -8 578 -8 q 329 36 415 -8 q 181 152 243 81 q 83 315 118 224 q 49 500 49 406 z "},"ć":{"ha":776,"x_min":44,"x_max":742,"o":"m 453 831 l 353 861 l 432 1014 l 578 1014 l 453 831 m 44 364 q 71 508 44 440 q 147 628 97 576 q 265 709 196 679 q 421 739 335 739 q 615 690 533 739 q 736 558 696 640 l 588 511 q 517 583 561 557 q 418 608 472 608 q 333 590 372 608 q 264 540 293 572 q 218 463 235 507 q 201 364 201 418 q 219 266 201 311 q 266 188 236 221 q 335 135 296 154 q 419 117 375 117 q 475 124 447 117 q 526 146 503 132 q 566 178 549 160 q 592 217 583 196 l 742 172 q 621 38 706 90 q 421 -14 536 -14 q 267 17 336 -14 q 148 99 197 47 q 72 219 99 151 q 44 364 44 288 z "},"Ĉ":{"ha":950,"x_min":49,"x_max":917,"o":"m 325 1140 l 469 1272 l 579 1272 l 724 1140 l 642 1101 l 524 1189 l 406 1101 l 325 1140 m 49 500 q 81 677 49 589 q 174 835 113 765 q 325 949 236 906 q 526 992 414 992 q 757 932 661 992 q 901 776 853 872 l 779 694 q 729 769 758 739 q 665 818 700 800 q 593 844 631 836 q 521 851 556 851 q 385 820 443 851 q 287 738 326 789 q 227 622 247 686 q 207 494 207 558 q 231 357 207 422 q 297 242 254 292 q 397 162 339 192 q 525 132 456 132 q 599 141 561 132 q 673 170 638 150 q 738 221 708 190 q 788 294 768 251 l 917 221 q 850 123 893 165 q 753 51 807 81 q 638 7 699 22 q 519 -8 578 -8 q 329 36 415 -8 q 181 152 243 81 q 83 315 118 224 q 49 500 49 406 z "},"ĉ":{"ha":776,"x_min":44,"x_max":742,"o":"m 219 882 l 364 1014 l 474 1014 l 618 882 l 536 843 l 418 931 l 300 843 l 219 882 m 44 364 q 71 508 44 440 q 147 628 97 576 q 265 709 196 679 q 421 739 335 739 q 615 690 533 739 q 736 558 696 640 l 588 511 q 517 583 561 557 q 418 608 472 608 q 333 590 372 608 q 264 540 293 572 q 218 463 235 507 q 201 364 201 418 q 219 266 201 311 q 266 188 236 221 q 335 135 296 154 q 419 117 375 117 q 475 124 447 117 q 526 146 503 132 q 566 178 549 160 q 592 217 583 196 l 742 172 q 621 38 706 90 q 421 -14 536 -14 q 267 17 336 -14 q 148 99 197 47 q 72 219 99 151 q 44 364 44 288 z "},"Ċ":{"ha":950,"x_min":49,"x_max":917,"o":"m 49 500 q 81 677 49 589 q 174 835 113 765 q 325 949 236 906 q 526 992 414 992 q 757 932 661 992 q 901 776 853 872 l 779 694 q 729 769 758 739 q 665 818 700 800 q 593 844 631 836 q 521 851 556 851 q 385 820 443 851 q 287 738 326 789 q 227 622 247 686 q 207 494 207 558 q 231 357 207 422 q 297 242 254 292 q 397 162 339 192 q 525 132 456 132 q 599 141 561 132 q 673 170 638 150 q 738 221 708 190 q 788 294 768 251 l 917 221 q 850 123 893 165 q 753 51 807 81 q 638 7 699 22 q 519 -8 578 -8 q 329 36 415 -8 q 181 152 243 81 q 83 315 118 224 q 49 500 49 406 m 457 1113 l 457 1272 l 594 1272 l 594 1113 l 457 1113 z "},"˙":{"ha":276,"x_min":69,"x_max":207,"o":"m 69 854 l 69 1014 l 207 1014 l 207 854 l 69 854 z "},"ċ":{"ha":776,"x_min":44,"x_max":742,"o":"m 44 364 q 71 508 44 440 q 147 628 97 576 q 265 709 196 679 q 421 739 335 739 q 615 690 533 739 q 736 558 696 640 l 588 511 q 517 583 561 557 q 418 608 472 608 q 333 590 372 608 q 264 540 293 572 q 218 463 235 507 q 201 364 201 418 q 219 266 201 311 q 266 188 236 221 q 335 135 296 154 q 419 117 375 117 q 475 124 447 117 q 526 146 503 132 q 566 178 549 160 q 592 217 583 196 l 742 172 q 621 38 706 90 q 421 -14 536 -14 q 267 17 336 -14 q 148 99 197 47 q 72 219 99 151 q 44 364 44 288 m 350 854 l 350 1014 l 488 1014 l 488 854 l 350 854 z "},"Č":{"ha":950,"x_min":49,"x_max":917,"o":"m 410 1272 l 528 1185 l 646 1272 l 728 1233 l 583 1101 l 474 1101 l 329 1233 l 410 1272 m 49 500 q 81 677 49 589 q 174 835 113 765 q 325 949 236 906 q 526 992 414 992 q 757 932 661 992 q 901 776 853 872 l 779 694 q 729 769 758 739 q 665 818 700 800 q 593 844 631 836 q 521 851 556 851 q 385 820 443 851 q 287 738 326 789 q 227 622 247 686 q 207 494 207 558 q 231 357 207 422 q 297 242 254 292 q 397 162 339 192 q 525 132 456 132 q 599 141 561 132 q 673 170 638 150 q 738 221 708 190 q 788 294 768 251 l 917 221 q 850 123 893 165 q 753 51 807 81 q 638 7 699 22 q 519 -8 578 -8 q 329 36 415 -8 q 181 152 243 81 q 83 315 118 224 q 49 500 49 406 z "},"ˇ":{"ha":493,"x_min":47,"x_max":446,"o":"m 128 1014 l 246 926 l 364 1014 l 446 975 l 301 843 l 192 843 l 47 975 l 128 1014 z "},"č":{"ha":776,"x_min":44,"x_max":742,"o":"m 300 1014 l 418 926 l 536 1014 l 618 975 l 474 843 l 364 843 l 219 975 l 300 1014 m 44 364 q 71 508 44 440 q 147 628 97 576 q 265 709 196 679 q 421 739 335 739 q 615 690 533 739 q 736 558 696 640 l 588 511 q 517 583 561 557 q 418 608 472 608 q 333 590 372 608 q 264 540 293 572 q 218 463 235 507 q 201 364 201 418 q 219 266 201 311 q 266 188 236 221 q 335 135 296 154 q 419 117 375 117 q 475 124 447 117 q 526 146 503 132 q 566 178 549 160 q 592 217 583 196 l 742 172 q 621 38 706 90 q 421 -14 536 -14 q 267 17 336 -14 q 148 99 197 47 q 72 219 99 151 q 44 364 44 288 z "},"Ď":{"ha":994,"x_min":111,"x_max":942,"o":"m 347 1272 l 465 1185 l 583 1272 l 665 1233 l 521 1101 l 411 1101 l 267 1233 l 347 1272 m 111 0 l 111 986 l 461 986 q 670 947 581 986 q 820 842 760 908 q 911 685 881 775 q 942 494 942 596 q 908 291 942 382 q 811 135 874 200 q 660 35 749 71 q 461 0 571 0 l 111 0 m 783 494 q 762 638 783 572 q 699 749 740 703 q 597 822 657 796 q 461 849 538 849 l 267 849 l 267 138 l 461 138 q 599 165 539 138 q 701 240 660 192 q 763 353 742 288 q 783 494 783 418 z "},"ď":{"ha":885,"x_min":46,"x_max":1049,"o":"m 924 831 l 824 861 l 903 1014 l 1049 1014 l 924 831 m 388 -14 q 251 16 314 -14 q 143 97 189 46 q 72 217 97 149 q 46 365 46 286 q 70 509 46 442 q 138 628 94 576 q 241 709 182 679 q 371 739 300 739 q 525 697 458 739 q 629 589 592 654 l 629 1014 l 782 1014 l 782 181 q 791 143 782 154 q 824 131 800 132 l 824 0 q 785 -6 800 -4 q 761 -7 771 -7 q 686 17 715 -7 q 654 78 657 40 l 651 132 q 542 25 611 64 q 388 -14 472 -14 m 425 117 q 492 128 458 117 q 553 158 525 139 q 601 204 581 178 q 629 261 621 231 l 629 451 q 594 515 617 486 q 542 565 571 544 q 480 597 513 586 q 414 608 447 608 q 330 588 368 608 q 264 532 292 567 q 220 453 236 497 q 204 361 204 408 q 222 267 204 311 q 269 189 239 222 q 340 136 300 156 q 425 117 379 117 z "},"Đ":{"ha":1003,"x_min":46,"x_max":950,"o":"m 119 0 l 119 438 l 46 438 l 46 554 l 119 554 l 119 986 l 469 986 q 678 947 589 986 q 828 842 768 908 q 919 685 889 775 q 950 494 950 596 q 916 291 950 382 q 819 135 882 200 q 668 35 757 71 q 469 0 579 0 l 119 0 m 792 494 q 770 638 792 572 q 707 749 749 703 q 606 822 665 796 q 469 849 546 849 l 275 849 l 275 554 l 485 554 l 485 438 l 275 438 l 275 138 l 469 138 q 608 165 547 138 q 709 240 668 192 q 771 353 750 288 q 792 494 792 418 z "},"đ":{"ha":885,"x_min":46,"x_max":874,"o":"m 388 -14 q 251 16 314 -14 q 143 97 189 46 q 72 217 97 149 q 46 365 46 286 q 70 509 46 442 q 138 628 94 576 q 241 709 182 679 q 371 739 300 739 q 525 697 458 739 q 629 589 592 654 l 629 839 l 483 839 l 483 933 l 629 933 l 629 1014 l 782 1014 l 782 933 l 874 933 l 874 839 l 782 839 l 782 181 q 791 143 782 154 q 824 131 800 132 l 824 0 q 785 -6 800 -4 q 761 -7 771 -7 q 686 17 715 -7 q 654 78 657 40 l 651 132 q 542 25 611 64 q 388 -14 472 -14 m 425 117 q 492 128 458 117 q 553 158 525 139 q 601 204 581 178 q 629 261 621 231 l 629 451 q 594 515 617 486 q 542 565 571 544 q 480 597 513 586 q 414 608 447 608 q 330 588 368 608 q 264 532 292 567 q 220 453 236 497 q 204 361 204 408 q 222 267 204 311 q 269 189 239 222 q 340 136 300 156 q 425 117 379 117 z "},"Ē":{"ha":838,"x_min":111,"x_max":788,"o":"m 788 138 l 788 0 l 111 0 l 111 986 l 775 986 l 775 849 l 267 849 l 267 568 l 707 568 l 707 439 l 267 439 l 267 138 l 788 138 m 254 1153 l 254 1250 l 665 1250 l 665 1153 l 254 1153 z "},"ē":{"ha":826,"x_min":44,"x_max":793,"o":"m 421 -14 q 267 16 336 -14 q 148 97 197 46 q 72 217 99 149 q 44 361 44 285 q 72 506 44 438 q 148 627 99 575 q 267 709 197 679 q 422 739 336 739 q 576 708 507 739 q 693 627 644 678 q 767 509 742 576 q 793 368 793 442 q 792 337 793 351 q 789 313 790 322 l 207 313 q 230 225 211 264 q 278 158 249 186 q 347 114 308 129 q 426 99 385 99 q 487 106 457 99 q 542 128 517 114 q 586 164 567 143 q 617 210 606 185 l 747 172 q 623 38 710 90 q 421 -14 536 -14 m 642 418 q 619 503 638 464 q 571 569 600 542 q 503 611 542 596 q 421 626 464 626 q 340 611 378 626 q 272 569 301 596 q 225 503 243 542 q 203 418 207 464 l 642 418 m 213 894 l 213 992 l 624 992 l 624 894 l 213 894 z "},"Ĕ":{"ha":838,"x_min":111,"x_max":788,"o":"m 788 138 l 788 0 l 111 0 l 111 986 l 775 986 l 775 849 l 267 849 l 267 568 l 707 568 l 707 439 l 267 439 l 267 138 l 788 138 m 458 1174 q 512 1201 489 1174 q 539 1272 535 1229 l 624 1272 q 611 1205 624 1236 q 576 1151 599 1174 q 524 1115 554 1128 q 458 1103 493 1103 q 392 1115 422 1103 q 340 1151 363 1128 q 306 1205 318 1174 q 293 1272 293 1236 l 378 1272 q 402 1203 378 1232 q 458 1174 426 1174 z "},"ĕ":{"ha":826,"x_min":44,"x_max":793,"o":"m 421 -14 q 267 16 336 -14 q 148 97 197 46 q 72 217 99 149 q 44 361 44 285 q 72 506 44 438 q 148 627 99 575 q 267 709 197 679 q 422 739 336 739 q 576 708 507 739 q 693 627 644 678 q 767 509 742 576 q 793 368 793 442 q 792 337 793 351 q 789 313 790 322 l 207 313 q 230 225 211 264 q 278 158 249 186 q 347 114 308 129 q 426 99 385 99 q 487 106 457 99 q 542 128 517 114 q 586 164 567 143 q 617 210 606 185 l 747 172 q 623 38 710 90 q 421 -14 536 -14 m 642 418 q 619 503 638 464 q 571 569 600 542 q 503 611 542 596 q 421 626 464 626 q 340 611 378 626 q 272 569 301 596 q 225 503 243 542 q 203 418 207 464 l 642 418 m 418 915 q 472 943 449 915 q 499 1014 494 971 l 583 1014 q 571 947 583 978 q 536 892 558 915 q 483 857 514 869 q 418 844 453 844 q 352 857 382 844 q 300 892 322 869 q 265 947 278 915 q 253 1014 253 978 l 338 1014 q 362 944 338 974 q 418 915 386 915 z "},"Ė":{"ha":838,"x_min":111,"x_max":788,"o":"m 788 138 l 788 0 l 111 0 l 111 986 l 775 986 l 775 849 l 267 849 l 267 568 l 707 568 l 707 439 l 267 439 l 267 138 l 788 138 m 389 1113 l 389 1272 l 526 1272 l 526 1113 l 389 1113 z "},"ė":{"ha":826,"x_min":44,"x_max":793,"o":"m 421 -14 q 267 16 336 -14 q 148 97 197 46 q 72 217 99 149 q 44 361 44 285 q 72 506 44 438 q 148 627 99 575 q 267 709 197 679 q 422 739 336 739 q 576 708 507 739 q 693 627 644 678 q 767 509 742 576 q 793 368 793 442 q 792 337 793 351 q 789 313 790 322 l 207 313 q 230 225 211 264 q 278 158 249 186 q 347 114 308 129 q 426 99 385 99 q 487 106 457 99 q 542 128 517 114 q 586 164 567 143 q 617 210 606 185 l 747 172 q 623 38 710 90 q 421 -14 536 -14 m 642 418 q 619 503 638 464 q 571 569 600 542 q 503 611 542 596 q 421 626 464 626 q 340 611 378 626 q 272 569 301 596 q 225 503 243 542 q 203 418 207 464 l 642 418 m 349 854 l 349 1014 l 486 1014 l 486 854 l 349 854 z "},"Ę":{"ha":838,"x_min":111,"x_max":788,"o":"m 788 138 l 788 0 q 703 -65 729 -36 q 676 -124 676 -94 q 757 -181 676 -175 l 722 -261 q 619 -219 654 -250 q 585 -147 585 -187 q 694 0 585 -71 l 111 0 l 111 986 l 775 986 l 775 849 l 267 849 l 267 568 l 707 568 l 707 439 l 267 439 l 267 138 l 788 138 z "},"ę":{"ha":826,"x_min":44,"x_max":793,"o":"m 439 -267 q 336 -224 371 -256 q 301 -153 301 -193 q 399 -12 301 -82 q 253 22 318 -8 q 141 103 188 53 q 69 221 94 154 q 44 361 44 288 q 72 506 44 438 q 148 627 99 575 q 267 709 197 679 q 422 739 336 739 q 576 708 507 739 q 693 627 644 678 q 767 509 742 576 q 793 368 793 442 q 792 337 793 351 q 789 313 790 322 l 207 313 q 230 225 211 264 q 278 158 249 186 q 347 114 308 129 q 426 99 385 99 q 487 106 457 99 q 542 128 517 114 q 586 164 567 143 q 617 210 606 185 l 747 172 q 653 58 717 106 q 504 -6 589 11 q 419 -71 446 -42 q 393 -129 393 -100 q 474 -186 393 -181 l 439 -267 m 642 418 q 619 503 638 464 q 571 569 600 542 q 503 611 542 596 q 421 626 464 626 q 340 611 378 626 q 272 569 301 596 q 225 503 243 542 q 203 418 207 464 l 642 418 z "},"Ě":{"ha":838,"x_min":111,"x_max":788,"o":"m 340 1272 l 458 1185 l 576 1272 l 658 1233 l 514 1101 l 404 1101 l 260 1233 l 340 1272 m 788 138 l 788 0 l 111 0 l 111 986 l 775 986 l 775 849 l 267 849 l 267 568 l 707 568 l 707 439 l 267 439 l 267 138 l 788 138 z "},"ě":{"ha":826,"x_min":44,"x_max":793,"o":"m 299 1014 l 417 926 l 535 1014 l 617 975 l 472 843 l 363 843 l 218 975 l 299 1014 m 421 -14 q 267 16 336 -14 q 148 97 197 46 q 72 217 99 149 q 44 361 44 285 q 72 506 44 438 q 148 627 99 575 q 267 709 197 679 q 422 739 336 739 q 576 708 507 739 q 693 627 644 678 q 767 509 742 576 q 793 368 793 442 q 792 337 793 351 q 789 313 790 322 l 207 313 q 230 225 211 264 q 278 158 249 186 q 347 114 308 129 q 426 99 385 99 q 487 106 457 99 q 542 128 517 114 q 586 164 567 143 q 617 210 606 185 l 747 172 q 623 38 710 90 q 421 -14 536 -14 m 642 418 q 619 503 638 464 q 571 569 600 542 q 503 611 542 596 q 421 626 464 626 q 340 611 378 626 q 272 569 301 596 q 225 503 243 542 q 203 418 207 464 l 642 418 z "},"Ĝ":{"ha":999,"x_min":50,"x_max":932,"o":"m 319 1140 l 464 1272 l 574 1272 l 718 1140 l 636 1101 l 518 1189 l 400 1101 l 319 1140 m 801 122 q 514 -7 676 -7 q 331 34 415 -7 q 183 144 246 75 q 85 306 121 214 q 50 497 50 397 q 85 688 50 597 q 183 846 121 778 q 332 953 246 914 q 519 993 418 993 q 757 934 661 993 q 901 778 853 875 l 782 692 q 671 813 742 772 q 515 853 600 853 q 389 823 446 853 q 292 744 332 793 q 230 629 251 694 q 208 493 208 564 q 233 353 208 418 q 299 239 257 288 q 400 162 342 190 q 526 133 458 133 q 670 168 601 133 q 801 278 739 203 l 801 383 l 594 383 l 594 499 l 932 499 l 932 0 l 801 0 l 801 122 z "},"ĝ":{"ha":872,"x_min":46,"x_max":781,"o":"m 265 882 l 410 1014 l 519 1014 l 664 882 l 582 843 l 464 931 l 346 843 l 265 882 m 378 -7 q 243 23 304 -7 q 138 104 182 53 q 70 222 94 156 q 46 363 46 289 q 71 509 46 440 q 140 628 96 578 q 247 709 185 679 q 383 739 308 739 q 537 697 471 739 q 646 589 603 656 l 646 726 l 781 726 l 781 21 q 751 -119 781 -58 q 670 -223 722 -181 q 547 -287 618 -265 q 394 -310 476 -310 q 194 -269 274 -310 q 60 -154 114 -228 l 146 -74 q 253 -162 188 -132 q 394 -193 319 -193 q 484 -181 442 -193 q 558 -142 526 -168 q 609 -75 590 -115 q 628 21 628 -35 l 628 132 q 521 29 589 65 q 378 -7 453 -7 m 428 117 q 494 128 463 117 q 553 160 526 140 q 600 206 581 181 q 628 261 619 232 l 628 451 q 592 515 614 486 q 541 564 569 543 q 481 597 513 585 q 417 608 449 608 q 327 587 367 608 q 260 530 288 565 q 217 450 232 494 q 201 358 201 406 q 219 265 201 308 q 267 188 236 221 q 338 136 297 156 q 428 117 379 117 z "},"Ğ":{"ha":999,"x_min":50,"x_max":932,"o":"m 801 122 q 514 -7 676 -7 q 331 34 415 -7 q 183 144 246 75 q 85 306 121 214 q 50 497 50 397 q 85 688 50 597 q 183 846 121 778 q 332 953 246 914 q 519 993 418 993 q 757 934 661 993 q 901 778 853 875 l 782 692 q 671 813 742 772 q 515 853 600 853 q 389 823 446 853 q 292 744 332 793 q 230 629 251 694 q 208 493 208 564 q 233 353 208 418 q 299 239 257 288 q 400 162 342 190 q 526 133 458 133 q 670 168 601 133 q 801 278 739 203 l 801 383 l 594 383 l 594 499 l 932 499 l 932 0 l 801 0 l 801 122 m 519 1174 q 573 1201 550 1174 q 600 1272 596 1229 l 685 1272 q 672 1205 685 1236 q 638 1151 660 1174 q 585 1115 615 1128 q 519 1103 554 1103 q 453 1115 483 1103 q 401 1151 424 1128 q 367 1205 379 1174 q 354 1272 354 1236 l 439 1272 q 463 1203 439 1232 q 519 1174 488 1174 z "},"ğ":{"ha":872,"x_min":46,"x_max":781,"o":"m 378 -7 q 243 23 304 -7 q 138 104 182 53 q 70 222 94 156 q 46 363 46 289 q 71 509 46 440 q 140 628 96 578 q 247 709 185 679 q 383 739 308 739 q 537 697 471 739 q 646 589 603 656 l 646 726 l 781 726 l 781 21 q 751 -119 781 -58 q 670 -223 722 -181 q 547 -287 618 -265 q 394 -310 476 -310 q 194 -269 274 -310 q 60 -154 114 -228 l 146 -74 q 253 -162 188 -132 q 394 -193 319 -193 q 484 -181 442 -193 q 558 -142 526 -168 q 609 -75 590 -115 q 628 21 628 -35 l 628 132 q 521 29 589 65 q 378 -7 453 -7 m 428 117 q 494 128 463 117 q 553 160 526 140 q 600 206 581 181 q 628 261 619 232 l 628 451 q 592 515 614 486 q 541 564 569 543 q 481 597 513 585 q 417 608 449 608 q 327 587 367 608 q 260 530 288 565 q 217 450 232 494 q 201 358 201 406 q 219 265 201 308 q 267 188 236 221 q 338 136 297 156 q 428 117 379 117 m 465 915 q 519 943 496 915 q 546 1014 542 971 l 631 1014 q 618 947 631 978 q 583 892 606 915 q 531 857 561 869 q 465 844 500 844 q 399 857 429 844 q 347 892 369 869 q 313 947 325 915 q 300 1014 300 978 l 385 1014 q 409 944 385 974 q 465 915 433 915 z "},"Ġ":{"ha":999,"x_min":50,"x_max":932,"o":"m 801 122 q 514 -7 676 -7 q 331 34 415 -7 q 183 144 246 75 q 85 306 121 214 q 50 497 50 397 q 85 688 50 597 q 183 846 121 778 q 332 953 246 914 q 519 993 418 993 q 757 934 661 993 q 901 778 853 875 l 782 692 q 671 813 742 772 q 515 853 600 853 q 389 823 446 853 q 292 744 332 793 q 230 629 251 694 q 208 493 208 564 q 233 353 208 418 q 299 239 257 288 q 400 162 342 190 q 526 133 458 133 q 670 168 601 133 q 801 278 739 203 l 801 383 l 594 383 l 594 499 l 932 499 l 932 0 l 801 0 l 801 122 m 450 1113 l 450 1272 l 588 1272 l 588 1113 l 450 1113 z "},"ġ":{"ha":872,"x_min":46,"x_max":781,"o":"m 378 -7 q 243 23 304 -7 q 138 104 182 53 q 70 222 94 156 q 46 363 46 289 q 71 509 46 440 q 140 628 96 578 q 247 709 185 679 q 383 739 308 739 q 537 697 471 739 q 646 589 603 656 l 646 726 l 781 726 l 781 21 q 751 -119 781 -58 q 670 -223 722 -181 q 547 -287 618 -265 q 394 -310 476 -310 q 194 -269 274 -310 q 60 -154 114 -228 l 146 -74 q 253 -162 188 -132 q 394 -193 319 -193 q 484 -181 442 -193 q 558 -142 526 -168 q 609 -75 590 -115 q 628 21 628 -35 l 628 132 q 521 29 589 65 q 378 -7 453 -7 m 428 117 q 494 128 463 117 q 553 160 526 140 q 600 206 581 181 q 628 261 619 232 l 628 451 q 592 515 614 486 q 541 564 569 543 q 481 597 513 585 q 417 608 449 608 q 327 587 367 608 q 260 530 288 565 q 217 450 232 494 q 201 358 201 406 q 219 265 201 308 q 267 188 236 221 q 338 136 297 156 q 428 117 379 117 m 396 854 l 396 1014 l 533 1014 l 533 854 l 396 854 z "},"Ģ":{"ha":999,"x_min":50,"x_max":932,"o":"m 461 -296 l 493 -189 l 449 -189 l 449 -67 l 581 -67 l 581 -189 l 532 -296 l 461 -296 m 801 122 q 514 -7 676 -7 q 331 34 415 -7 q 183 144 246 75 q 85 306 121 214 q 50 497 50 397 q 85 688 50 597 q 183 846 121 778 q 332 953 246 914 q 519 993 418 993 q 757 934 661 993 q 901 778 853 875 l 782 692 q 671 813 742 772 q 515 853 600 853 q 389 823 446 853 q 292 744 332 793 q 230 629 251 694 q 208 493 208 564 q 233 353 208 418 q 299 239 257 288 q 400 162 342 190 q 526 133 458 133 q 670 168 601 133 q 801 278 739 203 l 801 383 l 594 383 l 594 499 l 932 499 l 932 0 l 801 0 l 801 122 z "},"":{"ha":256,"x_min":82,"x_max":214,"o":"m 94 -296 l 126 -189 l 82 -189 l 82 -67 l 214 -67 l 214 -189 l 165 -296 l 94 -296 z "},"ģ":{"ha":872,"x_min":46,"x_max":781,"o":"m 496 1036 l 464 929 l 508 929 l 508 807 l 376 807 l 376 929 l 425 1036 l 496 1036 m 378 -7 q 243 23 304 -7 q 138 104 182 53 q 70 222 94 156 q 46 363 46 289 q 71 509 46 440 q 140 628 96 578 q 247 709 185 679 q 383 739 308 739 q 537 697 471 739 q 646 589 603 656 l 646 726 l 781 726 l 781 21 q 751 -119 781 -58 q 670 -223 722 -181 q 547 -287 618 -265 q 394 -310 476 -310 q 194 -269 274 -310 q 60 -154 114 -228 l 146 -74 q 253 -162 188 -132 q 394 -193 319 -193 q 484 -181 442 -193 q 558 -142 526 -168 q 609 -75 590 -115 q 628 21 628 -35 l 628 132 q 521 29 589 65 q 378 -7 453 -7 m 428 117 q 494 128 463 117 q 553 160 526 140 q 600 206 581 181 q 628 261 619 232 l 628 451 q 592 515 614 486 q 541 564 569 543 q 481 597 513 585 q 417 608 449 608 q 327 587 367 608 q 260 530 288 565 q 217 450 232 494 q 201 358 201 406 q 219 265 201 308 q 267 188 236 221 q 338 136 297 156 q 428 117 379 117 z "},"Ĥ":{"ha":1032,"x_min":111,"x_max":921,"o":"m 321 1139 l 465 1271 l 575 1271 l 719 1139 l 638 1100 l 519 1188 l 401 1100 l 321 1139 m 921 986 l 921 0 l 764 0 l 764 435 l 267 435 l 267 0 l 111 0 l 111 986 l 267 986 l 267 574 l 764 574 l 764 986 l 921 986 z "},"ĥ":{"ha":829,"x_min":92,"x_max":743,"o":"m 328 882 l 458 1013 l 557 1013 l 688 882 l 614 844 l 507 931 l 400 844 l 328 882 m 743 0 l 590 0 l 590 407 q 555 555 590 507 q 453 603 519 603 q 389 590 421 603 q 328 555 357 578 q 278 501 300 532 q 244 432 256 469 l 244 0 l 92 0 l 92 1014 l 244 1014 l 244 581 q 358 697 286 656 q 514 739 429 739 q 626 715 582 739 q 696 650 669 690 q 733 556 722 610 q 743 443 743 503 l 743 0 z "},"Ħ":{"ha":1044,"x_min":47,"x_max":997,"o":"m 928 986 l 928 836 l 997 836 l 997 758 l 928 758 l 928 0 l 771 0 l 771 435 l 274 435 l 274 0 l 118 0 l 118 758 l 47 758 l 47 836 l 118 836 l 118 986 l 274 986 l 274 836 l 771 836 l 771 986 l 928 986 m 771 574 l 771 758 l 274 758 l 274 574 l 771 574 z "},"ħ":{"ha":829,"x_min":22,"x_max":743,"o":"m 743 0 l 590 0 l 590 407 q 555 555 590 507 q 453 603 519 603 q 389 590 421 603 q 328 555 357 578 q 278 501 300 532 q 244 432 256 469 l 244 0 l 92 0 l 92 839 l 22 839 l 22 933 l 92 933 l 92 1014 l 244 1014 l 244 933 l 413 933 l 413 839 l 244 839 l 244 581 q 358 697 286 656 q 514 739 429 739 q 626 715 582 739 q 696 650 669 690 q 733 556 722 610 q 743 443 743 503 l 743 0 z "},"Ĩ":{"ha":378,"x_min":-58,"x_max":435,"o":"m 111 0 l 111 986 l 267 986 l 267 0 l 111 0 m 276 1113 q 221 1122 244 1113 q 177 1142 197 1131 q 138 1163 157 1154 q 96 1172 118 1172 q 59 1163 72 1172 q 39 1141 46 1153 q 30 1118 32 1129 q 28 1106 28 1107 l -58 1106 q -51 1143 -58 1117 q -27 1197 -44 1169 q 19 1244 -10 1224 q 90 1265 47 1265 q 144 1256 121 1265 q 187 1235 167 1246 q 227 1214 207 1224 q 272 1204 247 1204 q 313 1214 297 1204 q 335 1236 328 1224 q 345 1259 343 1249 q 347 1272 347 1269 l 435 1272 q 427 1238 435 1264 q 401 1183 419 1211 q 353 1134 383 1156 q 276 1113 322 1113 z "},"ĩ":{"ha":336,"x_min":-79,"x_max":414,"o":"m 92 0 l 92 726 l 244 726 l 244 0 l 92 0 m 256 854 q 200 863 224 854 q 156 884 176 872 q 117 905 136 896 q 75 914 97 914 q 38 904 51 914 q 18 883 25 894 q 9 860 11 871 q 7 847 7 849 l -79 847 q -72 885 -79 858 q -48 938 -65 911 q -2 986 -31 965 q 69 1007 26 1007 q 123 997 100 1007 q 166 976 146 988 q 206 956 186 965 q 251 946 226 946 q 292 956 276 946 q 315 978 307 965 q 324 1001 322 990 q 326 1014 326 1011 l 414 1014 q 406 979 414 1006 q 381 925 399 953 q 332 876 363 897 q 256 854 301 854 z "},"Ī":{"ha":378,"x_min":-15,"x_max":396,"o":"m 111 0 l 111 986 l 267 986 l 267 0 l 111 0 m -15 1153 l -15 1250 l 396 1250 l 396 1153 l -15 1153 z "},"ī":{"ha":336,"x_min":-36,"x_max":375,"o":"m 92 0 l 92 726 l 244 726 l 244 0 l 92 0 m -36 894 l -36 992 l 375 992 l 375 894 l -36 894 z "},"Ĭ":{"ha":378,"x_min":24,"x_max":354,"o":"m 111 0 l 111 986 l 267 986 l 267 0 l 111 0 m 189 1174 q 242 1201 219 1174 q 269 1272 265 1229 l 354 1272 q 342 1205 354 1236 q 307 1151 329 1174 q 254 1115 285 1128 q 189 1103 224 1103 q 123 1115 153 1103 q 71 1151 93 1128 q 36 1205 49 1174 q 24 1272 24 1236 l 108 1272 q 133 1203 108 1232 q 189 1174 157 1174 z "},"ĭ":{"ha":336,"x_min":3,"x_max":333,"o":"m 92 0 l 92 726 l 244 726 l 244 0 l 92 0 m 168 915 q 222 943 199 915 q 249 1014 244 971 l 333 1014 q 321 947 333 978 q 286 892 308 915 q 233 857 264 869 q 168 844 203 844 q 102 857 132 844 q 50 892 72 869 q 15 947 28 915 q 3 1014 3 978 l 88 1014 q 112 944 88 974 q 168 915 136 915 z "},"Į":{"ha":379,"x_min":64,"x_max":267,"o":"m 201 -261 q 99 -219 133 -250 q 64 -147 64 -187 q 174 0 64 -71 l 111 0 l 111 986 l 267 986 l 267 0 q 182 -65 208 -36 q 156 -124 156 -94 q 236 -181 156 -175 l 201 -261 l 201 -261 z "},"į":{"ha":336,"x_min":42,"x_max":244,"o":"m 179 -261 q 76 -219 111 -250 q 42 -147 42 -187 q 151 0 42 -71 l 92 0 l 92 726 l 244 726 l 244 0 q 160 -65 186 -36 q 133 -124 133 -94 q 214 -181 133 -175 l 179 -261 m 92 846 l 92 1014 l 244 1014 l 244 846 l 92 846 z "},"İ":{"ha":378,"x_min":111,"x_max":267,"o":"m 111 0 l 111 986 l 267 986 l 267 0 l 111 0 m 119 1113 l 119 1272 l 257 1272 l 257 1113 l 119 1113 z "},"Ĳ":{"ha":1056,"x_min":111,"x_max":956,"o":"m 111 0 l 111 986 l 267 986 l 267 0 l 111 0 m 429 174 q 499 141 453 157 q 606 125 546 125 q 708 148 669 125 q 766 216 746 171 q 792 328 786 261 q 799 485 799 396 l 799 986 l 956 986 l 956 485 q 944 280 956 372 q 897 122 933 188 q 792 21 861 57 q 606 -15 722 -15 q 392 46 481 -15 l 429 174 z "},"ĳ":{"ha":682,"x_min":92,"x_max":589,"o":"m 92 0 l 92 726 l 244 726 l 244 0 l 92 0 m 92 846 l 92 1014 l 244 1014 l 244 846 l 92 846 m 351 -265 q 257 -250 301 -265 q 176 -203 213 -235 l 244 -100 q 286 -124 263 -117 q 333 -132 310 -132 q 405 -102 374 -132 q 436 -26 436 -72 l 436 726 l 589 726 l 589 -15 q 570 -117 589 -71 q 519 -196 551 -162 q 443 -247 486 -229 q 351 -265 400 -265 m 436 846 l 436 1014 l 589 1014 l 589 846 l 436 846 z "},"Ĵ":{"ha":678,"x_min":14,"x_max":701,"o":"m 303 1140 l 447 1272 l 557 1272 l 701 1140 l 619 1101 l 501 1189 l 383 1101 l 303 1140 m 51 174 q 122 141 75 157 q 228 125 168 125 q 330 148 292 125 q 388 216 368 171 q 415 328 408 261 q 421 485 421 396 l 421 986 l 578 986 l 578 485 q 567 280 578 372 q 519 122 556 188 q 414 21 483 57 q 228 -15 344 -15 q 14 46 103 -15 l 51 174 z "},"ĵ":{"ha":336,"x_min":-169,"x_max":368,"o":"m 7 -265 q -88 -250 -43 -265 q -169 -203 -133 -235 l -101 -100 q -58 -124 -82 -117 q -11 -132 -35 -132 q 60 -102 29 -132 q 92 -26 92 -72 l 92 726 l 244 726 l 244 -15 q 225 -117 244 -71 q 174 -196 206 -162 q 98 -247 142 -229 q 7 -265 54 -265 m -31 882 l 114 1014 l 224 1014 l 368 882 l 286 843 l 168 931 l 50 843 l -31 882 z "},"ȷ":{"ha":336,"x_min":-169,"x_max":244,"o":"m 7 -265 q -88 -250 -43 -265 q -169 -203 -133 -235 l -101 -100 q -58 -124 -82 -117 q -11 -132 -35 -132 q 60 -102 29 -132 q 92 -26 92 -72 l 92 726 l 244 726 l 244 -15 q 225 -117 244 -71 q 174 -196 206 -162 q 98 -247 142 -229 q 7 -265 54 -265 z "},"Ķ":{"ha":917,"x_min":111,"x_max":925,"o":"m 419 -296 l 451 -189 l 407 -189 l 407 -67 l 539 -67 l 539 -189 l 490 -296 l 419 -296 m 111 0 l 111 985 l 267 985 l 267 478 l 731 986 l 903 986 l 514 550 l 925 0 l 751 0 l 418 454 l 267 297 l 267 0 l 111 0 z "},"ķ":{"ha":761,"x_min":92,"x_max":760,"o":"m 336 -296 l 368 -189 l 324 -189 l 324 -67 l 456 -67 l 456 -189 l 407 -296 l 336 -296 m 597 0 l 365 335 l 244 221 l 244 0 l 92 0 l 92 1014 l 244 1014 l 244 371 l 578 725 l 744 725 l 463 421 l 760 0 l 597 0 z "},"ĸ":{"ha":761,"x_min":92,"x_max":760,"o":"m 597 0 l 365 335 l 244 221 l 244 0 l 92 0 l 92 726 l 244 726 l 244 371 l 578 725 l 744 725 l 463 421 l 760 0 l 597 0 z "},"Ĺ":{"ha":811,"x_min":111,"x_max":796,"o":"m 525 1089 l 425 1119 l 504 1272 l 650 1272 l 525 1089 m 111 0 l 111 986 l 267 986 l 267 138 l 796 138 l 796 0 l 111 0 z "},"ĺ":{"ha":418,"x_min":93,"x_max":421,"o":"m 197 1067 l 97 1097 l 176 1250 l 322 1250 l 197 1067 m 93 1014 l 246 1014 l 246 210 q 267 147 246 169 q 325 124 288 124 q 360 129 340 124 q 399 142 381 135 l 421 22 q 342 -2 388 7 q 260 -11 296 -11 q 137 32 181 -11 q 93 154 93 75 l 93 1014 z "},"Ļ":{"ha":811,"x_min":111,"x_max":796,"o":"m 407 -296 l 439 -189 l 394 -189 l 394 -67 l 526 -67 l 526 -189 l 478 -296 l 407 -296 m 111 0 l 111 986 l 267 986 l 267 138 l 796 138 l 796 0 l 111 0 z "},"ļ":{"ha":418,"x_min":93,"x_max":421,"o":"m 197 -296 l 229 -189 l 185 -189 l 185 -67 l 317 -67 l 317 -189 l 268 -296 l 197 -296 m 93 1014 l 246 1014 l 246 210 q 267 147 246 169 q 325 124 288 124 q 360 129 340 124 q 399 142 381 135 l 421 22 q 342 -2 388 7 q 260 -11 296 -11 q 137 32 181 -11 q 93 154 93 75 l 93 1014 z "},"Ľ":{"ha":811,"x_min":111,"x_max":796,"o":"m 558 831 l 458 861 l 538 1014 l 683 1014 l 558 831 m 111 0 l 111 986 l 267 986 l 267 138 l 796 138 l 796 0 l 111 0 z "},"ľ":{"ha":418,"x_min":93,"x_max":528,"o":"m 403 831 l 303 861 l 382 1014 l 528 1014 l 403 831 m 93 1014 l 246 1014 l 246 210 q 267 147 246 169 q 325 124 288 124 q 360 129 340 124 q 399 142 381 135 l 421 22 q 342 -2 388 7 q 260 -11 296 -11 q 137 32 181 -11 q 93 154 93 75 l 93 1014 z "},"Ŀ":{"ha":811,"x_min":111,"x_max":796,"o":"m 111 0 l 111 986 l 267 986 l 267 138 l 796 138 l 796 0 l 111 0 m 508 468 l 508 658 l 635 658 l 635 468 l 508 468 z "},"ŀ":{"ha":510,"x_min":93,"x_max":486,"o":"m 93 1014 l 246 1014 l 246 210 q 267 147 246 169 q 325 124 288 124 q 360 129 340 124 q 399 142 381 135 l 421 22 q 342 -2 388 7 q 260 -11 296 -11 q 137 32 181 -11 q 93 154 93 75 l 93 1014 m 360 382 l 360 572 l 486 572 l 486 382 l 360 382 z "},"Ł":{"ha":822,"x_min":6,"x_max":807,"o":"m 122 0 l 122 382 l 47 329 l 6 414 l 122 496 l 122 986 l 278 986 l 278 604 l 454 728 l 494 644 l 278 492 l 278 138 l 807 138 l 807 0 l 122 0 z "},"ł":{"ha":451,"x_min":6,"x_max":453,"o":"m 125 435 l 47 383 l 6 468 l 125 546 l 125 1014 l 278 1014 l 278 647 l 397 726 l 440 643 l 278 535 l 278 210 q 299 147 278 169 q 357 124 319 124 q 392 129 372 124 q 431 142 413 135 l 453 22 q 374 -2 419 7 q 292 -11 328 -11 q 169 32 213 -11 q 125 154 125 75 l 125 435 z "},"Ń":{"ha":1065,"x_min":111,"x_max":954,"o":"m 568 1088 l 468 1118 l 547 1271 l 693 1271 l 568 1088 m 267 694 l 267 0 l 111 0 l 111 986 l 233 986 l 797 275 l 797 985 l 954 985 l 954 0 l 825 0 l 267 694 z "},"ń":{"ha":829,"x_min":92,"x_max":743,"o":"m 464 831 l 364 861 l 443 1014 l 589 1014 l 464 831 m 743 0 l 590 0 l 590 407 q 558 556 590 510 q 461 603 525 603 q 394 590 428 603 q 332 555 361 578 q 280 501 303 532 q 244 432 257 469 l 244 0 l 92 0 l 92 726 l 231 726 l 231 581 q 351 697 272 654 q 526 739 431 739 q 633 715 592 739 q 699 651 675 692 q 733 556 724 610 q 743 443 743 503 l 743 0 z "},"Ņ":{"ha":1065,"x_min":111,"x_max":954,"o":"m 475 -296 l 507 -189 l 463 -189 l 463 -67 l 594 -67 l 594 -189 l 546 -296 l 475 -296 m 267 694 l 267 0 l 111 0 l 111 986 l 233 986 l 797 275 l 797 985 l 954 985 l 954 0 l 825 0 l 267 694 z "},"ņ":{"ha":829,"x_min":92,"x_max":743,"o":"m 354 -296 l 386 -189 l 342 -189 l 342 -67 l 474 -67 l 474 -189 l 425 -296 l 354 -296 m 743 0 l 590 0 l 590 407 q 558 556 590 510 q 461 603 525 603 q 394 590 428 603 q 332 555 361 578 q 280 501 303 532 q 244 432 257 469 l 244 0 l 92 0 l 92 726 l 231 726 l 231 581 q 351 697 272 654 q 526 739 431 739 q 633 715 592 739 q 699 651 675 692 q 733 556 724 610 q 743 443 743 503 l 743 0 z "},"Ň":{"ha":1065,"x_min":111,"x_max":954,"o":"m 415 1271 l 533 1183 l 651 1271 l 733 1232 l 589 1100 l 479 1100 l 335 1232 l 415 1271 m 267 694 l 267 0 l 111 0 l 111 986 l 233 986 l 797 275 l 797 985 l 954 985 l 954 0 l 825 0 l 267 694 z "},"ň":{"ha":829,"x_min":92,"x_max":743,"o":"m 311 1014 l 429 926 l 547 1014 l 629 975 l 485 843 l 375 843 l 231 975 l 311 1014 m 743 0 l 590 0 l 590 407 q 558 556 590 510 q 461 603 525 603 q 394 590 428 603 q 332 555 361 578 q 280 501 303 532 q 244 432 257 469 l 244 0 l 92 0 l 92 726 l 231 726 l 231 581 q 351 697 272 654 q 526 739 431 739 q 633 715 592 739 q 699 651 675 692 q 733 556 724 610 q 743 443 743 503 l 743 0 z "},"ŉ":{"ha":829,"x_min":-22,"x_max":743,"o":"m 75 831 l -22 861 l 26 956 l 21 1014 l 201 1014 l 75 831 m 743 0 l 590 0 l 590 407 q 558 556 590 510 q 461 603 525 603 q 394 590 428 603 q 332 555 361 578 q 280 501 303 532 q 244 432 257 469 l 244 0 l 92 0 l 92 726 l 231 726 l 231 581 q 351 697 272 654 q 526 739 431 739 q 633 715 592 739 q 699 651 675 692 q 733 556 724 610 q 743 443 743 503 l 743 0 z "},"ʼ":{"ha":747,"x_min":275,"x_max":499,"o":"m 372 831 l 275 861 l 324 956 l 318 1014 l 499 1014 l 372 831 z "},"Ŋ":{"ha":1050,"x_min":111,"x_max":939,"o":"m 267 692 l 267 0 l 111 0 l 111 986 l 231 986 l 782 283 l 782 985 l 939 985 l 939 -21 q 919 -120 939 -75 q 867 -198 900 -165 q 790 -248 833 -231 q 700 -265 747 -265 q 606 -250 651 -265 q 525 -203 561 -235 l 593 -100 q 635 -124 611 -117 q 682 -132 658 -132 q 754 -102 722 -132 q 786 -26 786 -72 l 786 29 l 267 692 z "},"ŋ":{"ha":828,"x_min":92,"x_max":743,"o":"m 506 -265 q 410 -250 456 -265 q 329 -203 365 -235 l 397 -100 q 440 -124 417 -117 q 488 -132 464 -132 q 559 -102 528 -132 q 590 -26 590 -72 l 590 407 q 558 556 590 510 q 461 603 525 603 q 394 590 428 603 q 332 555 361 578 q 280 501 303 532 q 244 432 257 469 l 244 0 l 92 0 l 92 726 l 231 726 l 231 581 q 351 697 272 654 q 526 739 431 739 q 634 715 592 739 q 701 651 676 692 q 734 556 725 610 q 743 443 743 503 l 743 -15 q 724 -117 743 -71 q 672 -196 704 -162 q 597 -247 640 -229 q 506 -265 553 -265 z "},"Ō":{"ha":1044,"x_min":49,"x_max":994,"o":"m 321 1153 l 321 1250 l 732 1250 l 732 1153 l 321 1153 m 521 -7 q 328 35 415 -7 q 179 148 242 78 q 83 308 117 218 q 49 493 49 399 q 85 682 49 592 q 184 842 121 772 q 334 952 247 911 q 524 993 421 993 q 716 949 629 993 q 865 835 803 906 q 960 674 926 764 q 994 492 994 585 q 959 303 994 393 q 860 144 924 213 q 709 34 796 75 q 521 -7 622 -7 m 207 493 q 229 358 207 424 q 292 243 251 293 q 392 163 333 193 q 522 133 450 133 q 655 165 597 133 q 753 247 713 196 q 814 363 793 299 q 835 493 835 426 q 813 628 835 564 q 749 742 790 693 q 651 822 708 792 q 522 851 593 851 q 389 820 447 851 q 290 739 331 789 q 228 624 250 689 q 207 493 207 560 z "},"ō":{"ha":836,"x_min":44,"x_max":792,"o":"m 214 894 l 214 992 l 625 992 l 625 894 l 214 894 m 418 -14 q 263 17 332 -14 q 146 99 194 47 q 71 219 97 150 q 44 363 44 288 q 71 506 44 438 q 147 626 97 575 q 265 708 196 678 q 418 739 333 739 q 572 708 503 739 q 690 626 640 678 q 765 506 739 575 q 792 363 792 438 q 765 219 792 288 q 690 99 739 150 q 572 17 640 47 q 418 -14 503 -14 m 201 361 q 218 264 201 308 q 264 187 235 219 q 333 135 293 154 q 418 117 372 117 q 503 135 464 117 q 572 188 543 154 q 618 265 601 221 q 635 363 635 310 q 618 459 635 414 q 572 538 601 504 q 503 590 543 571 q 418 608 464 608 q 334 589 374 608 q 265 536 294 569 q 219 458 236 503 q 201 361 201 413 z "},"Ŏ":{"ha":1044,"x_min":49,"x_max":994,"o":"m 521 -7 q 328 35 415 -7 q 179 148 242 78 q 83 308 117 218 q 49 493 49 399 q 85 682 49 592 q 184 842 121 772 q 334 952 247 911 q 524 993 421 993 q 716 949 629 993 q 865 835 803 906 q 960 674 926 764 q 994 492 994 585 q 959 303 994 393 q 860 144 924 213 q 709 34 796 75 q 521 -7 622 -7 m 207 493 q 229 358 207 424 q 292 243 251 293 q 392 163 333 193 q 522 133 450 133 q 655 165 597 133 q 753 247 713 196 q 814 363 793 299 q 835 493 835 426 q 813 628 835 564 q 749 742 790 693 q 651 822 708 792 q 522 851 593 851 q 389 820 447 851 q 290 739 331 789 q 228 624 250 689 q 207 493 207 560 m 525 1174 q 578 1201 556 1174 q 606 1272 601 1229 l 690 1272 q 678 1205 690 1236 q 643 1151 665 1174 q 590 1115 621 1128 q 525 1103 560 1103 q 459 1115 489 1103 q 407 1151 429 1128 q 372 1205 385 1174 q 360 1272 360 1236 l 444 1272 q 469 1203 444 1232 q 525 1174 493 1174 z "},"ŏ":{"ha":836,"x_min":44,"x_max":792,"o":"m 418 -14 q 263 17 332 -14 q 146 99 194 47 q 71 219 97 150 q 44 363 44 288 q 71 506 44 438 q 147 626 97 575 q 265 708 196 678 q 418 739 333 739 q 572 708 503 739 q 690 626 640 678 q 765 506 739 575 q 792 363 792 438 q 765 219 792 288 q 690 99 739 150 q 572 17 640 47 q 418 -14 503 -14 m 201 361 q 218 264 201 308 q 264 187 235 219 q 333 135 293 154 q 418 117 372 117 q 503 135 464 117 q 572 188 543 154 q 618 265 601 221 q 635 363 635 310 q 618 459 635 414 q 572 538 601 504 q 503 590 543 571 q 418 608 464 608 q 334 589 374 608 q 265 536 294 569 q 219 458 236 503 q 201 361 201 413 m 418 915 q 472 943 449 915 q 499 1014 494 971 l 583 1014 q 571 947 583 978 q 536 892 558 915 q 483 857 514 869 q 418 844 453 844 q 352 857 382 844 q 300 892 322 869 q 265 947 278 915 q 253 1014 253 978 l 338 1014 q 362 944 338 974 q 418 915 386 915 z "},"Ő":{"ha":1044,"x_min":49,"x_max":994,"o":"m 438 1090 l 361 1121 l 432 1274 l 556 1274 l 438 1090 m 643 1090 l 565 1121 l 636 1274 l 761 1274 l 643 1090 m 521 -7 q 328 35 415 -7 q 179 148 242 78 q 83 308 117 218 q 49 493 49 399 q 85 682 49 592 q 184 842 121 772 q 334 952 247 911 q 524 993 421 993 q 716 949 629 993 q 865 835 803 906 q 960 674 926 764 q 994 492 994 585 q 959 303 994 393 q 860 144 924 213 q 709 34 796 75 q 521 -7 622 -7 m 207 493 q 229 358 207 424 q 292 243 251 293 q 392 163 333 193 q 522 133 450 133 q 655 165 597 133 q 753 247 713 196 q 814 363 793 299 q 835 493 835 426 q 813 628 835 564 q 749 742 790 693 q 651 822 708 792 q 522 851 593 851 q 389 820 447 851 q 290 739 331 789 q 228 624 250 689 q 207 493 207 560 z "},"˝":{"ha":488,"x_min":51,"x_max":451,"o":"m 128 831 l 51 861 l 122 1014 l 246 1014 l 128 831 m 333 831 l 256 861 l 326 1014 l 451 1014 l 333 831 z "},"ő":{"ha":836,"x_min":44,"x_max":792,"o":"m 329 831 l 253 861 l 324 1014 l 447 1014 l 329 831 m 535 831 l 457 861 l 528 1014 l 653 1014 l 535 831 m 418 -14 q 263 17 332 -14 q 146 99 194 47 q 71 219 97 150 q 44 363 44 288 q 71 506 44 438 q 147 626 97 575 q 265 708 196 678 q 418 739 333 739 q 572 708 503 739 q 690 626 640 678 q 765 506 739 575 q 792 363 792 438 q 765 219 792 288 q 690 99 739 150 q 572 17 640 47 q 418 -14 503 -14 m 201 361 q 218 264 201 308 q 264 187 235 219 q 333 135 293 154 q 418 117 372 117 q 503 135 464 117 q 572 188 543 154 q 618 265 601 221 q 635 363 635 310 q 618 459 635 414 q 572 538 601 504 q 503 590 543 571 q 418 608 464 608 q 334 589 374 608 q 265 536 294 569 q 219 458 236 503 q 201 361 201 413 z "},"Œ":{"ha":1540,"x_min":49,"x_max":1492,"o":"m 1492 138 l 1492 0 l 829 0 l 829 183 q 773 108 806 143 q 700 48 740 74 q 613 8 660 22 q 515 -7 567 -7 q 325 35 411 -7 q 178 148 239 78 q 83 308 117 218 q 49 493 49 399 q 84 682 49 592 q 182 842 119 772 q 331 952 244 911 q 518 993 417 993 q 616 978 569 993 q 702 938 663 964 q 774 878 742 913 q 829 803 806 843 l 829 986 l 1479 986 l 1479 849 l 986 849 l 986 571 l 1404 571 l 1404 433 l 986 433 l 986 138 l 1492 138 m 517 133 q 646 165 589 133 q 742 247 703 196 q 803 363 782 297 q 824 494 824 428 q 801 628 824 564 q 739 743 779 693 q 642 823 699 793 q 515 853 585 853 q 385 822 443 853 q 288 740 328 790 q 228 624 249 689 q 207 493 207 560 q 228 358 207 424 q 290 243 250 293 q 388 163 331 193 q 517 133 446 133 z "},"œ":{"ha":1417,"x_min":44,"x_max":1382,"o":"m 417 -14 q 268 15 336 -14 q 150 93 200 43 q 72 212 100 143 q 44 361 44 281 q 73 511 44 442 q 151 631 101 581 q 269 710 201 682 q 417 739 338 739 q 592 689 515 739 q 713 547 668 639 q 835 690 760 642 q 1011 739 911 739 q 1157 712 1090 739 q 1272 635 1224 685 q 1349 517 1321 586 q 1382 363 1378 447 q 1382 337 1382 351 q 1379 313 1382 322 l 797 313 q 820 227 801 267 q 869 158 839 188 q 940 113 900 129 q 1025 96 979 96 q 1088 104 1057 96 q 1144 128 1118 113 q 1189 164 1169 143 q 1218 210 1208 185 l 1344 172 q 1216 37 1304 88 q 1019 -14 1128 -14 q 848 35 925 -14 q 713 172 771 85 q 582 33 656 81 q 417 -14 508 -14 m 418 117 q 503 135 464 117 q 572 187 543 154 q 618 265 601 219 q 635 363 635 310 q 618 459 635 414 q 573 538 601 504 q 505 590 544 571 q 419 608 465 608 q 333 589 374 608 q 264 536 293 569 q 218 458 235 503 q 201 360 201 413 q 218 263 201 307 q 264 186 235 218 q 333 135 293 154 q 418 117 372 117 m 1229 410 q 1206 497 1225 457 q 1158 566 1188 538 q 1089 610 1128 594 q 1007 626 1050 626 q 925 610 963 626 q 859 565 888 594 q 813 497 831 536 q 793 410 796 457 l 1229 410 z "},"Ŕ":{"ha":918,"x_min":111,"x_max":885,"o":"m 478 1090 l 378 1121 l 457 1274 l 603 1274 l 478 1090 m 111 0 l 111 986 l 540 986 q 663 958 607 986 q 760 885 719 931 q 823 783 800 840 q 846 665 846 725 q 832 569 846 615 q 793 485 818 524 q 732 417 768 446 q 653 375 696 389 l 885 0 l 708 0 l 494 343 l 267 343 l 267 0 l 111 0 m 267 481 l 539 481 q 599 495 572 481 q 646 535 626 510 q 676 594 665 561 q 688 665 688 628 q 674 736 688 703 q 640 794 661 769 q 590 834 618 819 q 531 849 561 849 l 267 849 l 267 481 z "},"ŕ":{"ha":519,"x_min":92,"x_max":500,"o":"m 342 831 l 242 861 l 321 1014 l 467 1014 l 342 831 m 500 594 q 342 553 411 592 q 244 444 274 515 l 244 0 l 92 0 l 92 726 l 233 726 l 233 564 q 331 684 271 639 q 461 733 392 729 q 484 733 475 733 q 500 732 493 733 l 500 594 z "},"Ŗ":{"ha":918,"x_min":111,"x_max":885,"o":"m 410 -296 l 442 -189 l 397 -189 l 397 -67 l 529 -67 l 529 -189 l 481 -296 l 410 -296 m 111 0 l 111 986 l 540 986 q 663 958 607 986 q 760 885 719 931 q 823 783 800 840 q 846 665 846 725 q 832 569 846 615 q 793 485 818 524 q 732 417 768 446 q 653 375 696 389 l 885 0 l 708 0 l 494 343 l 267 343 l 267 0 l 111 0 m 267 481 l 539 481 q 599 495 572 481 q 646 535 626 510 q 676 594 665 561 q 688 665 688 628 q 674 736 688 703 q 640 794 661 769 q 590 834 618 819 q 531 849 561 849 l 267 849 l 267 481 z "},"ŗ":{"ha":519,"x_min":92,"x_max":500,"o":"m 104 -296 l 136 -189 l 92 -189 l 92 -67 l 224 -67 l 224 -189 l 175 -296 l 104 -296 m 500 594 q 342 553 411 592 q 244 444 274 515 l 244 0 l 92 0 l 92 726 l 233 726 l 233 564 q 331 684 271 639 q 461 733 392 729 q 484 733 475 733 q 500 732 493 733 l 500 594 z "},"Ř":{"ha":918,"x_min":111,"x_max":885,"o":"m 324 1274 l 442 1186 l 560 1274 l 642 1235 l 497 1103 l 388 1103 l 243 1235 l 324 1274 m 111 0 l 111 986 l 540 986 q 663 958 607 986 q 760 885 719 931 q 823 783 800 840 q 846 665 846 725 q 832 569 846 615 q 793 485 818 524 q 732 417 768 446 q 653 375 696 389 l 885 0 l 708 0 l 494 343 l 267 343 l 267 0 l 111 0 m 267 481 l 539 481 q 599 495 572 481 q 646 535 626 510 q 676 594 665 561 q 688 665 688 628 q 674 736 688 703 q 640 794 661 769 q 590 834 618 819 q 531 849 561 849 l 267 849 l 267 481 z "},"ř":{"ha":519,"x_min":92,"x_max":507,"o":"m 189 1014 l 307 926 l 425 1014 l 507 975 l 363 843 l 253 843 l 108 975 l 189 1014 m 500 594 q 342 553 411 592 q 244 444 274 515 l 244 0 l 92 0 l 92 726 l 233 726 l 233 564 q 331 684 271 639 q 461 733 392 729 q 484 733 475 733 q 500 732 493 733 l 500 594 z "},"Ś":{"ha":849,"x_min":36,"x_max":804,"o":"m 476 1104 l 376 1135 l 456 1288 l 601 1288 l 476 1104 m 694 754 q 654 787 681 769 q 592 819 628 804 q 515 844 557 835 q 428 854 472 854 q 283 818 329 854 q 236 718 236 782 q 251 659 236 682 q 296 619 265 636 q 372 588 326 601 q 479 560 418 575 q 615 519 554 542 q 717 465 675 497 q 781 387 758 433 q 804 274 804 340 q 776 144 804 199 q 698 56 747 90 q 583 6 649 22 q 443 -10 518 -10 q 226 24 331 -10 q 36 124 121 58 l 107 257 q 159 217 125 239 q 238 176 193 194 q 336 144 283 157 q 446 131 389 131 q 588 163 538 131 q 638 257 638 194 q 619 319 638 294 q 565 363 600 344 q 481 397 531 382 q 367 429 431 413 q 238 470 293 449 q 147 522 183 492 q 92 594 111 553 q 74 693 74 635 q 101 822 74 765 q 177 916 129 878 q 290 974 225 954 q 432 993 356 993 q 617 961 532 993 q 765 882 701 929 l 694 754 z "},"ś":{"ha":689,"x_min":32,"x_max":647,"o":"m 376 831 l 276 861 l 356 1014 l 501 1014 l 376 831 m 356 -14 q 181 15 268 -14 q 32 96 94 43 l 93 193 q 222 122 158 146 q 353 97 286 97 q 460 124 421 97 q 500 199 500 150 q 456 265 500 244 q 317 311 411 286 q 200 346 249 329 q 121 385 151 363 q 76 436 90 407 q 63 507 63 465 q 84 606 63 563 q 144 678 106 649 q 233 724 182 708 q 344 739 285 739 q 497 714 426 739 q 624 642 568 689 l 558 550 q 343 631 457 631 q 245 606 285 631 q 206 529 206 582 q 214 492 206 507 q 241 465 222 476 q 290 445 260 454 q 364 425 319 436 q 491 389 438 407 q 579 347 544 371 q 631 290 614 322 q 647 211 647 257 q 569 47 647 107 q 356 -14 490 -14 z "},"Ŝ":{"ha":849,"x_min":36,"x_max":804,"o":"m 243 1156 l 388 1288 l 497 1288 l 642 1156 l 560 1117 l 442 1204 l 324 1117 l 243 1156 m 694 754 q 654 787 681 769 q 592 819 628 804 q 515 844 557 835 q 428 854 472 854 q 283 818 329 854 q 236 718 236 782 q 251 659 236 682 q 296 619 265 636 q 372 588 326 601 q 479 560 418 575 q 615 519 554 542 q 717 465 675 497 q 781 387 758 433 q 804 274 804 340 q 776 144 804 199 q 698 56 747 90 q 583 6 649 22 q 443 -10 518 -10 q 226 24 331 -10 q 36 124 121 58 l 107 257 q 159 217 125 239 q 238 176 193 194 q 336 144 283 157 q 446 131 389 131 q 588 163 538 131 q 638 257 638 194 q 619 319 638 294 q 565 363 600 344 q 481 397 531 382 q 367 429 431 413 q 238 470 293 449 q 147 522 183 492 q 92 594 111 553 q 74 693 74 635 q 101 822 74 765 q 177 916 129 878 q 290 974 225 954 q 432 993 356 993 q 617 961 532 993 q 765 882 701 929 l 694 754 z "},"ŝ":{"ha":689,"x_min":32,"x_max":647,"o":"m 143 882 l 288 1014 l 397 1014 l 542 882 l 460 843 l 342 931 l 224 843 l 143 882 m 356 -14 q 181 15 268 -14 q 32 96 94 43 l 93 193 q 222 122 158 146 q 353 97 286 97 q 460 124 421 97 q 500 199 500 150 q 456 265 500 244 q 317 311 411 286 q 200 346 249 329 q 121 385 151 363 q 76 436 90 407 q 63 507 63 465 q 84 606 63 563 q 144 678 106 649 q 233 724 182 708 q 344 739 285 739 q 497 714 426 739 q 624 642 568 689 l 558 550 q 343 631 457 631 q 245 606 285 631 q 206 529 206 582 q 214 492 206 507 q 241 465 222 476 q 290 445 260 454 q 364 425 319 436 q 491 389 438 407 q 579 347 544 371 q 631 290 614 322 q 647 211 647 257 q 569 47 647 107 q 356 -14 490 -14 z "},"Ş":{"ha":849,"x_min":36,"x_max":804,"o":"m 335 -175 q 386 -194 351 -185 q 457 -203 421 -203 q 515 -192 493 -203 q 536 -156 536 -181 q 516 -118 536 -128 q 464 -108 496 -108 q 403 -114 435 -108 q 353 -125 371 -119 l 414 -8 q 212 29 308 -4 q 36 124 115 63 l 107 257 q 159 217 125 239 q 238 176 193 194 q 336 144 283 157 q 446 131 389 131 q 588 163 538 131 q 638 257 638 194 q 619 319 638 294 q 565 363 600 344 q 481 397 531 382 q 367 429 431 413 q 238 470 293 449 q 147 522 183 492 q 92 594 111 553 q 74 693 74 635 q 101 822 74 765 q 177 916 129 878 q 290 974 225 954 q 432 993 356 993 q 617 961 532 993 q 765 882 701 929 l 694 754 q 654 787 681 769 q 592 819 628 804 q 515 844 557 835 q 428 854 472 854 q 283 818 329 854 q 236 718 236 782 q 251 659 236 682 q 296 619 265 636 q 372 588 326 601 q 479 560 418 575 q 615 519 554 542 q 717 465 675 497 q 781 387 758 433 q 804 274 804 340 q 779 152 804 203 q 711 67 754 101 q 610 14 668 32 q 485 -8 551 -4 l 450 -62 q 474 -58 461 -60 q 497 -57 486 -57 q 578 -79 546 -57 q 611 -150 611 -101 q 570 -231 611 -200 q 446 -262 529 -262 q 366 -254 401 -262 q 303 -235 331 -246 l 335 -175 z "},"ş":{"ha":689,"x_min":32,"x_max":647,"o":"m 247 -175 q 299 -194 264 -185 q 369 -203 333 -203 q 427 -192 406 -203 q 449 -156 449 -181 q 428 -118 449 -128 q 376 -108 408 -108 q 315 -114 347 -108 q 265 -125 283 -119 l 324 -12 q 166 20 243 -7 q 32 96 89 47 l 93 193 q 222 122 158 146 q 353 97 286 97 q 460 124 421 97 q 500 199 500 150 q 456 265 500 244 q 317 311 411 286 q 200 346 249 329 q 121 385 151 363 q 76 436 90 407 q 63 507 63 465 q 84 606 63 563 q 144 678 106 649 q 233 724 182 708 q 344 739 285 739 q 497 714 426 739 q 624 642 568 689 l 558 550 q 343 631 457 631 q 245 606 285 631 q 206 529 206 582 q 214 492 206 507 q 241 465 222 476 q 290 445 260 454 q 364 425 319 436 q 491 389 438 407 q 579 347 544 371 q 631 290 614 322 q 647 211 647 257 q 580 56 647 115 q 394 -12 513 -3 l 363 -62 q 386 -58 374 -60 q 410 -57 399 -57 q 491 -79 458 -57 q 524 -150 524 -101 q 483 -231 524 -200 q 358 -262 442 -262 q 278 -254 314 -262 q 215 -235 243 -246 l 247 -175 z "},"Š":{"ha":849,"x_min":36,"x_max":804,"o":"m 324 1288 l 442 1200 l 560 1288 l 642 1249 l 497 1117 l 388 1117 l 243 1249 l 324 1288 m 694 754 q 654 787 681 769 q 592 819 628 804 q 515 844 557 835 q 428 854 472 854 q 283 818 329 854 q 236 718 236 782 q 251 659 236 682 q 296 619 265 636 q 372 588 326 601 q 479 560 418 575 q 615 519 554 542 q 717 465 675 497 q 781 387 758 433 q 804 274 804 340 q 776 144 804 199 q 698 56 747 90 q 583 6 649 22 q 443 -10 518 -10 q 226 24 331 -10 q 36 124 121 58 l 107 257 q 159 217 125 239 q 238 176 193 194 q 336 144 283 157 q 446 131 389 131 q 588 163 538 131 q 638 257 638 194 q 619 319 638 294 q 565 363 600 344 q 481 397 531 382 q 367 429 431 413 q 238 470 293 449 q 147 522 183 492 q 92 594 111 553 q 74 693 74 635 q 101 822 74 765 q 177 916 129 878 q 290 974 225 954 q 432 993 356 993 q 617 961 532 993 q 765 882 701 929 l 694 754 z "},"š":{"ha":689,"x_min":32,"x_max":647,"o":"m 224 1014 l 342 926 l 460 1014 l 542 975 l 397 843 l 288 843 l 143 975 l 224 1014 m 356 -14 q 181 15 268 -14 q 32 96 94 43 l 93 193 q 222 122 158 146 q 353 97 286 97 q 460 124 421 97 q 500 199 500 150 q 456 265 500 244 q 317 311 411 286 q 200 346 249 329 q 121 385 151 363 q 76 436 90 407 q 63 507 63 465 q 84 606 63 563 q 144 678 106 649 q 233 724 182 708 q 344 739 285 739 q 497 714 426 739 q 624 642 568 689 l 558 550 q 343 631 457 631 q 245 606 285 631 q 206 529 206 582 q 214 492 206 507 q 241 465 222 476 q 290 445 260 454 q 364 425 319 436 q 491 389 438 407 q 579 347 544 371 q 631 290 614 322 q 647 211 647 257 q 569 47 647 107 q 356 -14 490 -14 z "},"Ţ":{"ha":854,"x_min":19,"x_max":833,"o":"m 322 -175 q 374 -194 339 -185 q 444 -203 408 -203 q 502 -192 481 -203 q 524 -156 524 -181 q 503 -118 524 -128 q 451 -108 483 -108 q 390 -114 422 -108 q 340 -125 358 -119 l 406 0 l 349 0 l 349 849 l 19 849 l 19 986 l 833 986 l 833 849 l 506 849 l 506 0 l 478 0 l 438 -62 q 461 -58 449 -60 q 485 -57 474 -57 q 566 -79 533 -57 q 599 -150 599 -101 q 558 -231 599 -200 q 433 -262 517 -262 q 353 -254 389 -262 q 290 -235 318 -246 l 322 -175 z "},"ţ":{"ha":510,"x_min":33,"x_max":496,"o":"m 196 -175 q 247 -194 213 -185 q 318 -203 282 -203 q 376 -192 354 -203 q 397 -156 397 -181 q 377 -118 397 -128 q 325 -108 357 -108 q 264 -114 296 -108 q 214 -125 232 -119 l 275 -10 q 172 37 214 -3 q 129 154 129 76 l 129 608 l 33 608 l 33 726 l 129 726 l 129 965 l 282 965 l 282 726 l 440 726 l 440 608 l 282 608 l 282 203 q 306 147 285 164 q 360 129 328 129 q 421 140 392 129 q 464 158 450 151 l 496 38 q 433 13 472 26 q 346 -8 393 -1 l 311 -62 q 335 -58 322 -60 q 358 -57 347 -57 q 440 -79 407 -57 q 472 -150 472 -101 q 431 -231 472 -200 q 307 -262 390 -262 q 227 -254 263 -262 q 164 -235 192 -246 l 196 -175 z "},"Ť":{"ha":856,"x_min":21,"x_max":835,"o":"m 315 1272 l 433 1185 l 551 1272 l 633 1233 l 489 1101 l 379 1101 l 235 1233 l 315 1272 m 835 849 l 507 849 l 507 0 l 350 0 l 350 849 l 21 849 l 21 986 l 835 986 l 835 849 z "},"ť":{"ha":510,"x_min":33,"x_max":582,"o":"m 457 831 l 357 861 l 436 1014 l 582 1014 l 457 831 m 496 38 q 415 6 467 24 q 306 -11 364 -11 q 238 -1 269 -11 q 181 28 206 8 q 143 78 157 47 q 129 154 129 110 l 129 608 l 33 608 l 33 726 l 129 726 l 129 965 l 282 965 l 282 726 l 440 726 l 440 608 l 282 608 l 282 203 q 306 147 285 164 q 360 129 328 129 q 421 140 392 129 q 464 158 450 151 l 496 38 z "},"Ŧ":{"ha":893,"x_min":39,"x_max":853,"o":"m 853 849 l 525 849 l 525 539 l 804 539 l 804 461 l 525 461 l 525 0 l 368 0 l 368 461 l 89 461 l 89 539 l 368 539 l 368 849 l 39 849 l 39 986 l 853 986 l 853 849 z "},"ŧ":{"ha":511,"x_min":35,"x_max":497,"o":"m 497 38 q 417 6 468 24 q 307 -11 365 -11 q 239 -1 271 -11 q 183 28 207 8 q 144 78 158 47 q 131 154 131 110 l 131 389 l 35 389 l 35 482 l 131 482 l 131 608 l 35 608 l 35 726 l 131 726 l 131 965 l 283 965 l 283 726 l 442 726 l 442 608 l 283 608 l 283 482 l 442 482 l 442 389 l 283 389 l 283 203 q 308 147 286 164 q 361 129 329 129 q 422 140 393 129 q 465 158 451 151 l 497 38 z "},"Ũ":{"ha":1044,"x_min":97,"x_max":949,"o":"m 522 133 q 651 164 600 133 q 734 244 703 194 q 778 356 765 293 q 792 486 792 419 l 792 986 l 949 986 l 949 486 q 925 295 949 385 q 850 138 901 206 q 717 32 799 71 q 522 -7 636 -7 q 323 34 404 -7 q 192 144 242 75 q 119 301 142 213 q 97 486 97 390 l 97 986 l 253 986 l 253 486 q 266 355 253 418 q 310 242 279 292 q 394 163 342 193 q 522 133 446 133 m 610 1113 q 554 1122 578 1113 q 510 1142 531 1131 q 471 1163 490 1154 q 429 1172 451 1172 q 392 1163 406 1172 q 372 1141 379 1153 q 363 1118 365 1129 q 361 1106 361 1107 l 275 1106 q 282 1143 275 1117 q 306 1197 289 1169 q 352 1244 324 1224 q 424 1265 381 1265 q 477 1256 454 1265 q 520 1235 500 1246 q 560 1214 540 1224 q 606 1204 581 1204 q 646 1214 631 1204 q 669 1236 661 1224 q 678 1259 676 1249 q 681 1272 681 1269 l 768 1272 q 760 1238 768 1264 q 735 1183 753 1211 q 686 1134 717 1156 q 610 1113 656 1113 z "},"ũ":{"ha":846,"x_min":85,"x_max":785,"o":"m 315 -14 q 143 60 201 -14 q 85 282 85 135 l 85 726 l 238 726 l 238 313 q 376 117 238 117 q 500 157 442 117 q 590 274 558 197 l 590 726 l 743 726 l 743 181 q 752 143 743 154 q 785 131 761 132 l 785 0 q 746 -6 761 -4 q 717 -7 731 -7 q 646 16 675 -7 q 615 75 617 39 l 613 147 q 486 27 564 68 q 315 -14 408 -14 m 501 854 q 446 863 469 854 q 402 884 422 872 q 363 905 382 896 q 321 914 343 914 q 284 904 297 914 q 264 883 271 894 q 255 860 257 871 q 253 847 253 849 l 167 847 q 174 885 167 858 q 198 938 181 911 q 244 986 215 965 q 315 1007 272 1007 q 369 997 346 1007 q 412 976 392 988 q 452 956 432 965 q 497 946 472 946 q 538 956 522 946 q 560 978 553 965 q 570 1001 568 990 q 572 1014 572 1011 l 660 1014 q 652 979 660 1006 q 626 925 644 953 q 578 876 608 897 q 501 854 547 854 z "},"Ū":{"ha":1044,"x_min":97,"x_max":949,"o":"m 522 133 q 651 164 600 133 q 734 244 703 194 q 778 356 765 293 q 792 486 792 419 l 792 986 l 949 986 l 949 486 q 925 295 949 385 q 850 138 901 206 q 717 32 799 71 q 522 -7 636 -7 q 323 34 404 -7 q 192 144 242 75 q 119 301 142 213 q 97 486 97 390 l 97 986 l 253 986 l 253 486 q 266 355 253 418 q 310 242 279 292 q 394 163 342 193 q 522 133 446 133 m 318 1153 l 318 1250 l 729 1250 l 729 1153 l 318 1153 z "},"ū":{"ha":846,"x_min":85,"x_max":785,"o":"m 315 -14 q 143 60 201 -14 q 85 282 85 135 l 85 726 l 238 726 l 238 313 q 376 117 238 117 q 500 157 442 117 q 590 274 558 197 l 590 726 l 743 726 l 743 181 q 752 143 743 154 q 785 131 761 132 l 785 0 q 746 -6 761 -4 q 717 -7 731 -7 q 646 16 675 -7 q 615 75 617 39 l 613 147 q 486 27 564 68 q 315 -14 408 -14 m 208 894 l 208 992 l 619 992 l 619 894 l 208 894 z "},"Ŭ":{"ha":1044,"x_min":97,"x_max":949,"o":"m 522 133 q 651 164 600 133 q 734 244 703 194 q 778 356 765 293 q 792 486 792 419 l 792 986 l 949 986 l 949 486 q 925 295 949 385 q 850 138 901 206 q 717 32 799 71 q 522 -7 636 -7 q 323 34 404 -7 q 192 144 242 75 q 119 301 142 213 q 97 486 97 390 l 97 986 l 253 986 l 253 486 q 266 355 253 418 q 310 242 279 292 q 394 163 342 193 q 522 133 446 133 m 524 1174 q 577 1201 554 1174 q 604 1272 600 1229 l 689 1272 q 676 1205 689 1236 q 642 1151 664 1174 q 589 1115 619 1128 q 524 1103 558 1103 q 458 1115 488 1103 q 406 1151 428 1128 q 371 1205 383 1174 q 358 1272 358 1236 l 443 1272 q 467 1203 443 1232 q 524 1174 492 1174 z "},"ŭ":{"ha":846,"x_min":85,"x_max":785,"o":"m 315 -14 q 143 60 201 -14 q 85 282 85 135 l 85 726 l 238 726 l 238 313 q 376 117 238 117 q 500 157 442 117 q 590 274 558 197 l 590 726 l 743 726 l 743 181 q 752 143 743 154 q 785 131 761 132 l 785 0 q 746 -6 761 -4 q 717 -7 731 -7 q 646 16 675 -7 q 615 75 617 39 l 613 147 q 486 27 564 68 q 315 -14 408 -14 m 413 915 q 466 943 443 915 q 493 1014 489 971 l 578 1014 q 565 947 578 978 q 531 892 553 915 q 478 857 508 869 q 413 844 447 844 q 347 857 376 844 q 294 892 317 869 q 260 947 272 915 q 247 1014 247 978 l 332 1014 q 356 944 332 974 q 413 915 381 915 z "},"Ů":{"ha":1044,"x_min":97,"x_max":949,"o":"m 399 1171 q 433 1246 399 1219 q 521 1272 467 1272 q 610 1246 576 1272 q 644 1171 644 1219 q 610 1097 644 1124 q 521 1069 576 1069 q 433 1097 467 1069 q 399 1171 399 1124 m 521 1222 q 481 1208 497 1222 q 465 1171 465 1194 q 481 1135 465 1150 q 521 1119 497 1119 q 561 1134 544 1119 q 578 1171 578 1149 q 561 1208 578 1194 q 521 1222 544 1222 m 522 133 q 651 164 600 133 q 734 244 703 194 q 778 356 765 293 q 792 486 792 419 l 792 986 l 949 986 l 949 486 q 925 295 949 385 q 850 138 901 206 q 717 32 799 71 q 522 -7 636 -7 q 323 34 404 -7 q 192 144 242 75 q 119 301 142 213 q 97 486 97 390 l 97 986 l 253 986 l 253 486 q 266 355 253 418 q 310 242 279 292 q 394 163 342 193 q 522 133 446 133 z "},"ů":{"ha":846,"x_min":85,"x_max":785,"o":"m 290 913 q 324 988 290 961 q 413 1014 358 1014 q 502 988 468 1014 q 536 913 536 961 q 502 838 536 865 q 413 811 468 811 q 324 838 358 811 q 290 913 290 865 m 413 964 q 373 950 389 964 q 357 913 357 936 q 373 876 357 892 q 413 861 389 861 q 453 876 436 861 q 469 913 469 890 q 453 950 469 936 q 413 964 436 964 m 315 -14 q 143 60 201 -14 q 85 282 85 135 l 85 726 l 238 726 l 238 313 q 376 117 238 117 q 500 157 442 117 q 590 274 558 197 l 590 726 l 743 726 l 743 181 q 752 143 743 154 q 785 131 761 132 l 785 0 q 746 -6 761 -4 q 717 -7 731 -7 q 646 16 675 -7 q 615 75 617 39 l 613 147 q 486 27 564 68 q 315 -14 408 -14 z "},"Ű":{"ha":1044,"x_min":97,"x_max":949,"o":"m 522 133 q 651 164 600 133 q 734 244 703 194 q 778 356 765 293 q 792 486 792 419 l 792 986 l 949 986 l 949 486 q 925 295 949 385 q 850 138 901 206 q 717 32 799 71 q 522 -7 636 -7 q 323 34 404 -7 q 192 144 242 75 q 119 301 142 213 q 97 486 97 390 l 97 986 l 253 986 l 253 486 q 266 355 253 418 q 310 242 279 292 q 394 163 342 193 q 522 133 446 133 m 433 1090 l 357 1121 l 428 1274 l 551 1274 l 433 1090 m 639 1090 l 561 1121 l 632 1274 l 757 1274 l 639 1090 z "},"ű":{"ha":846,"x_min":85,"x_max":785,"o":"m 315 -14 q 143 60 201 -14 q 85 282 85 135 l 85 726 l 238 726 l 238 313 q 376 117 238 117 q 500 157 442 117 q 590 274 558 197 l 590 726 l 743 726 l 743 181 q 752 143 743 154 q 785 131 761 132 l 785 0 q 746 -6 761 -4 q 717 -7 731 -7 q 646 16 675 -7 q 615 75 617 39 l 613 147 q 486 27 564 68 q 315 -14 408 -14 m 325 831 l 249 861 l 319 1014 l 443 1014 l 325 831 m 531 831 l 453 861 l 524 1014 l 649 1014 l 531 831 z "},"Ų":{"ha":1044,"x_min":97,"x_max":949,"o":"m 522 133 q 651 164 600 133 q 734 244 703 194 q 778 356 765 293 q 792 486 792 419 l 792 986 l 949 986 l 949 486 q 926 303 949 389 q 858 150 904 217 q 738 42 811 83 q 560 -6 664 1 q 479 -69 504 -40 q 454 -126 454 -97 q 535 -183 454 -178 l 500 -264 q 397 -222 432 -253 q 363 -150 363 -190 q 469 -4 363 -76 q 296 49 367 6 q 181 160 225 93 q 117 311 136 226 q 97 486 97 396 l 97 986 l 253 986 l 253 486 q 266 355 253 418 q 310 242 279 292 q 394 163 342 193 q 522 133 446 133 z "},"ų":{"ha":846,"x_min":85,"x_max":785,"o":"m 315 -14 q 143 60 201 -14 q 85 282 85 135 l 85 726 l 238 726 l 238 313 q 376 117 238 117 q 500 157 442 117 q 590 274 558 197 l 590 726 l 743 726 l 743 181 q 752 143 743 154 q 785 131 761 132 l 785 0 q 700 -65 726 -36 q 674 -124 674 -94 q 754 -181 674 -175 l 719 -261 q 617 -219 651 -250 q 582 -147 582 -187 q 686 -3 582 -74 q 636 24 656 4 q 615 75 617 44 l 613 147 q 486 27 564 68 q 315 -14 408 -14 z "},"Ŵ":{"ha":1460,"x_min":6,"x_max":1454,"o":"m 529 1140 l 674 1272 l 783 1272 l 928 1140 l 846 1101 l 728 1189 l 610 1101 l 529 1140 m 461 982 l 608 982 l 729 647 l 851 982 l 997 982 l 829 543 l 976 181 l 1283 986 l 1454 986 l 1047 0 l 914 0 l 731 442 l 546 0 l 413 0 l 6 986 l 175 986 l 483 181 l 631 543 l 461 982 z "},"ŵ":{"ha":1153,"x_min":8,"x_max":1143,"o":"m 376 882 l 521 1014 l 631 1014 l 775 882 l 693 843 l 575 931 l 457 843 l 376 882 m 997 726 l 1143 726 l 838 0 l 711 0 l 576 338 l 442 0 l 315 0 l 8 726 l 154 726 l 389 147 l 494 417 l 368 725 l 493 725 l 576 497 l 658 725 l 783 725 l 658 417 l 764 147 l 997 726 z "},"Ŷ":{"ha":913,"x_min":13,"x_max":901,"o":"m 183 986 l 456 492 l 731 986 l 901 986 l 533 353 l 533 0 l 378 0 l 378 356 l 13 986 l 183 986 m 257 1140 l 401 1272 l 511 1272 l 656 1140 l 574 1101 l 456 1189 l 338 1101 l 257 1140 z "},"ŷ":{"ha":760,"x_min":13,"x_max":739,"o":"m 117 -171 q 158 -178 138 -175 q 190 -181 178 -181 q 222 -173 208 -181 q 249 -146 235 -165 q 277 -91 263 -126 q 311 0 292 -56 l 13 726 l 169 726 l 394 135 l 594 726 l 739 726 l 410 -168 q 333 -273 388 -231 q 192 -315 278 -315 q 157 -313 175 -315 q 117 -304 139 -311 l 117 -171 m 194 882 l 339 1014 l 449 1014 l 593 882 l 511 843 l 393 931 l 275 843 l 194 882 z "},"Ÿ":{"ha":913,"x_min":13,"x_max":901,"o":"m 183 986 l 456 492 l 731 986 l 901 986 l 533 353 l 533 0 l 378 0 l 378 356 l 13 986 l 183 986 m 269 1114 l 269 1267 l 397 1267 l 397 1114 l 269 1114 m 515 1114 l 515 1267 l 643 1267 l 643 1114 l 515 1114 z "},"Ź":{"ha":874,"x_min":43,"x_max":825,"o":"m 490 1089 l 390 1119 l 469 1272 l 615 1272 l 490 1089 m 43 119 l 642 849 l 57 849 l 57 986 l 824 986 l 824 867 l 239 138 l 825 138 l 825 0 l 43 0 l 43 119 z "},"ź":{"ha":685,"x_min":39,"x_max":640,"o":"m 385 831 l 285 861 l 364 1014 l 510 1014 l 385 831 m 39 96 l 475 618 l 54 618 l 54 726 l 636 726 l 636 631 l 203 108 l 640 108 l 640 0 l 39 0 l 39 96 z "},"Ż":{"ha":874,"x_min":43,"x_max":825,"o":"m 43 119 l 642 849 l 57 849 l 57 986 l 824 986 l 824 867 l 239 138 l 825 138 l 825 0 l 43 0 l 43 119 m 388 1113 l 388 1272 l 525 1272 l 525 1113 l 388 1113 z "},"ż":{"ha":685,"x_min":39,"x_max":640,"o":"m 39 96 l 475 618 l 54 618 l 54 726 l 636 726 l 636 631 l 203 108 l 640 108 l 640 0 l 39 0 l 39 96 m 281 854 l 281 1014 l 418 1014 l 418 854 l 281 854 z "},"Ž":{"ha":874,"x_min":43,"x_max":825,"o":"m 338 1272 l 456 1185 l 574 1272 l 656 1233 l 511 1101 l 401 1101 l 257 1233 l 338 1272 m 43 119 l 642 849 l 57 849 l 57 986 l 824 986 l 824 867 l 239 138 l 825 138 l 825 0 l 43 0 l 43 119 z "},"ž":{"ha":685,"x_min":39,"x_max":640,"o":"m 231 1014 l 349 926 l 467 1014 l 549 975 l 404 843 l 294 843 l 150 975 l 231 1014 m 39 96 l 475 618 l 54 618 l 54 726 l 636 726 l 636 631 l 203 108 l 640 108 l 640 0 l 39 0 l 39 96 z "},"Ə":{"ha":1029,"x_min":33,"x_max":979,"o":"m 508 -7 q 319 33 406 -7 q 168 141 232 74 q 69 297 104 208 q 33 482 33 386 q 34 520 33 501 q 38 550 35 539 l 807 550 q 774 672 800 617 q 706 767 747 728 q 614 829 665 807 q 504 851 563 851 q 419 839 460 851 q 343 804 378 826 q 283 751 308 782 q 246 682 258 719 l 93 742 q 163 844 119 797 q 262 924 207 890 q 381 975 317 957 q 513 993 444 993 q 698 953 613 993 q 846 844 783 913 q 944 685 908 775 q 979 494 979 594 q 944 301 979 392 q 846 142 908 210 q 697 33 783 74 q 508 -7 611 -7 m 513 132 q 624 153 572 132 q 715 214 675 175 q 778 306 754 253 q 808 422 803 360 l 203 422 q 233 307 207 360 q 301 215 260 254 q 397 154 343 176 q 513 132 451 132 z "},"ƒ":{"ha":751,"x_min":42,"x_max":703,"o":"m 217 -265 q 123 -250 168 -265 q 42 -203 78 -235 l 110 -100 q 151 -124 128 -117 q 199 -132 175 -132 q 270 -102 239 -132 q 301 -26 301 -72 l 301 524 l 206 524 l 206 642 l 301 642 l 301 738 q 318 858 301 804 q 365 949 335 911 q 438 1008 394 988 q 533 1028 481 1028 q 622 1016 578 1028 q 703 983 665 1004 l 669 869 q 621 890 649 882 q 565 899 593 899 q 483 858 511 899 q 454 742 454 818 l 454 642 l 640 642 l 640 524 l 454 524 l 454 -22 q 435 -121 454 -76 q 383 -197 415 -165 q 307 -247 350 -229 q 217 -265 264 -265 z "},"Ǆ":{"ha":1868,"x_min":111,"x_max":1819,"o":"m 1332 1272 l 1450 1185 l 1568 1272 l 1650 1233 l 1506 1101 l 1396 1101 l 1251 1233 l 1332 1272 m 1038 119 l 1636 849 l 1051 849 l 1051 986 l 1818 986 l 1818 867 l 1233 138 l 1819 138 l 1819 0 l 1038 0 l 1038 119 m 111 0 l 111 986 l 461 986 q 670 947 581 986 q 820 842 760 908 q 911 685 881 775 q 942 494 942 596 q 908 291 942 382 q 811 135 874 200 q 660 35 749 71 q 461 0 571 0 l 111 0 m 783 494 q 762 638 783 572 q 699 749 740 703 q 597 822 657 796 q 461 849 538 849 l 267 849 l 267 138 l 461 138 q 599 165 539 138 q 701 240 660 192 q 763 353 742 288 q 783 494 783 418 z "},"ǅ":{"ha":1679,"x_min":111,"x_max":1635,"o":"m 1225 1014 l 1343 926 l 1461 1014 l 1543 975 l 1399 843 l 1289 843 l 1144 975 l 1225 1014 m 1033 96 l 1469 618 l 1049 618 l 1049 726 l 1631 726 l 1631 631 l 1197 108 l 1635 108 l 1635 0 l 1033 0 l 1033 96 m 111 0 l 111 986 l 461 986 q 670 947 581 986 q 820 842 760 908 q 911 685 881 775 q 942 494 942 596 q 908 291 942 382 q 811 135 874 200 q 660 35 749 71 q 461 0 571 0 l 111 0 m 783 494 q 762 638 783 572 q 699 749 740 703 q 597 822 657 796 q 461 849 538 849 l 267 849 l 267 138 l 461 138 q 599 165 539 138 q 701 240 660 192 q 763 353 742 288 q 783 494 783 418 z "},"ǆ":{"ha":1569,"x_min":46,"x_max":1525,"o":"m 1115 1014 l 1233 926 l 1351 1014 l 1433 975 l 1289 843 l 1179 843 l 1035 975 l 1115 1014 m 924 96 l 1360 618 l 939 618 l 939 726 l 1521 726 l 1521 631 l 1088 108 l 1525 108 l 1525 0 l 924 0 l 924 96 m 388 -14 q 251 16 314 -14 q 143 97 189 46 q 72 217 97 149 q 46 365 46 286 q 70 509 46 442 q 138 628 94 576 q 241 709 182 679 q 371 739 300 739 q 525 697 458 739 q 629 589 592 654 l 629 1014 l 782 1014 l 782 181 q 791 143 782 154 q 824 131 800 132 l 824 0 q 785 -6 800 -4 q 761 -7 771 -7 q 686 17 715 -7 q 654 78 657 40 l 651 132 q 542 25 611 64 q 388 -14 472 -14 m 425 117 q 492 128 458 117 q 553 158 525 139 q 601 204 581 178 q 629 261 621 231 l 629 451 q 594 515 617 486 q 542 565 571 544 q 480 597 513 586 q 414 608 447 608 q 330 588 368 608 q 264 532 292 567 q 220 453 236 497 q 204 361 204 408 q 222 267 204 311 q 269 189 239 222 q 340 136 300 156 q 425 117 379 117 z "},"Ǉ":{"ha":1489,"x_min":111,"x_max":1389,"o":"m 863 174 q 933 141 886 157 q 1039 125 979 125 q 1141 148 1103 125 q 1199 216 1179 171 q 1226 328 1219 261 q 1232 485 1232 396 l 1232 986 l 1389 986 l 1389 485 q 1378 280 1389 372 q 1331 122 1367 188 q 1225 21 1294 57 q 1039 -15 1156 -15 q 825 46 914 -15 l 863 174 m 111 0 l 111 986 l 267 986 l 267 138 l 796 138 l 796 0 l 111 0 z "},"ǈ":{"ha":1157,"x_min":111,"x_max":1064,"o":"m 826 -265 q 732 -250 776 -265 q 651 -203 688 -235 l 719 -100 q 761 -124 738 -117 q 808 -132 785 -132 q 880 -102 849 -132 q 911 -26 911 -72 l 911 726 l 1064 726 l 1064 -15 q 1045 -117 1064 -71 q 994 -196 1026 -162 q 918 -247 961 -229 q 826 -265 875 -265 m 911 846 l 911 1014 l 1064 1014 l 1064 846 l 911 846 m 111 0 l 111 986 l 267 986 l 267 138 l 796 138 l 796 0 l 111 0 z "},"ǉ":{"ha":763,"x_min":93,"x_max":671,"o":"m 433 -265 q 339 -250 383 -265 q 258 -203 294 -235 l 326 -100 q 368 -124 344 -117 q 415 -132 392 -132 q 487 -102 456 -132 q 518 -26 518 -72 l 518 726 l 671 726 l 671 -15 q 652 -117 671 -71 q 601 -196 633 -162 q 525 -247 568 -229 q 433 -265 482 -265 m 518 846 l 518 1014 l 671 1014 l 671 846 l 518 846 m 93 1014 l 246 1014 l 246 210 q 267 147 246 169 q 325 124 288 124 q 360 129 340 124 q 399 142 381 135 l 421 22 q 342 -2 388 7 q 260 -11 296 -11 q 137 32 181 -11 q 93 154 93 75 l 93 1014 z "},"Ǌ":{"ha":1742,"x_min":111,"x_max":1643,"o":"m 1117 174 q 1187 141 1140 157 q 1293 125 1233 125 q 1395 148 1357 125 q 1453 216 1433 171 q 1480 328 1474 261 q 1486 485 1486 396 l 1486 986 l 1643 986 l 1643 485 q 1632 280 1643 372 q 1585 122 1621 188 q 1479 21 1549 57 q 1293 -15 1410 -15 q 1079 46 1168 -15 l 1117 174 m 267 694 l 267 0 l 111 0 l 111 986 l 233 986 l 797 275 l 797 985 l 954 985 l 954 0 l 825 0 l 267 694 z "},"ǋ":{"ha":1410,"x_min":111,"x_max":1318,"o":"m 1081 -265 q 986 -250 1031 -265 q 906 -203 942 -235 l 974 -100 q 1015 -124 992 -117 q 1063 -132 1039 -132 q 1134 -102 1103 -132 q 1165 -26 1165 -72 l 1165 726 l 1318 726 l 1318 -15 q 1299 -117 1318 -71 q 1248 -196 1281 -162 q 1172 -247 1215 -229 q 1081 -265 1129 -265 m 1165 846 l 1165 1014 l 1318 1014 l 1318 846 l 1165 846 m 267 694 l 267 0 l 111 0 l 111 986 l 233 986 l 797 275 l 797 985 l 954 985 l 954 0 l 825 0 l 267 694 z "},"ǌ":{"ha":1174,"x_min":92,"x_max":1082,"o":"m 844 -265 q 750 -250 794 -265 q 669 -203 706 -235 l 738 -100 q 779 -124 756 -117 q 826 -132 803 -132 q 898 -102 867 -132 q 929 -26 929 -72 l 929 726 l 1082 726 l 1082 -15 q 1063 -117 1082 -71 q 1012 -196 1044 -162 q 936 -247 979 -229 q 844 -265 893 -265 m 929 846 l 929 1014 l 1082 1014 l 1082 846 l 929 846 m 743 0 l 590 0 l 590 407 q 558 556 590 510 q 461 603 525 603 q 394 590 428 603 q 332 555 361 578 q 280 501 303 532 q 244 432 257 469 l 244 0 l 92 0 l 92 726 l 231 726 l 231 581 q 351 697 272 654 q 526 739 431 739 q 633 715 592 739 q 699 651 675 692 q 733 556 724 610 q 743 443 743 503 l 743 0 z "},"Ǫ":{"ha":1044,"x_min":49,"x_max":994,"o":"m 496 -264 q 393 -222 428 -253 q 358 -150 358 -190 q 467 -3 358 -75 q 295 53 372 7 q 163 167 218 99 q 78 319 108 235 q 49 493 49 404 q 85 682 49 592 q 184 842 121 772 q 334 952 247 911 q 524 993 421 993 q 716 949 629 993 q 865 835 803 906 q 960 674 926 764 q 994 492 994 585 q 962 311 994 397 q 871 157 929 225 q 733 46 813 89 q 557 -4 653 3 q 475 -69 500 -40 q 450 -126 450 -97 q 531 -183 450 -178 l 496 -264 m 207 493 q 229 358 207 424 q 292 243 251 293 q 392 163 333 193 q 522 133 450 133 q 655 165 597 133 q 753 247 713 196 q 814 363 793 299 q 835 493 835 426 q 813 628 835 564 q 749 742 790 693 q 651 822 708 792 q 522 851 593 851 q 389 820 447 851 q 290 739 331 789 q 228 624 250 689 q 207 493 207 560 z "},"ǫ":{"ha":836,"x_min":44,"x_max":792,"o":"m 432 -267 q 329 -224 364 -256 q 294 -153 294 -193 q 393 -12 294 -82 q 248 24 313 -8 q 138 107 183 56 q 69 224 93 158 q 44 363 44 289 q 71 506 44 438 q 147 626 97 575 q 265 708 196 678 q 418 739 333 739 q 572 708 503 739 q 690 626 640 678 q 765 506 739 575 q 792 363 792 438 q 771 235 792 296 q 711 124 750 174 q 617 40 672 75 q 494 -7 563 6 q 411 -71 436 -42 q 386 -129 386 -100 q 467 -186 386 -181 l 432 -267 m 201 361 q 218 264 201 308 q 264 187 235 219 q 333 135 293 154 q 418 117 372 117 q 503 135 464 117 q 572 188 543 154 q 618 265 601 221 q 635 363 635 310 q 618 459 635 414 q 572 538 601 504 q 503 590 543 571 q 418 608 464 608 q 334 589 374 608 q 265 536 294 569 q 219 458 236 503 q 201 361 201 413 z "},"Ǳ":{"ha":1851,"x_min":111,"x_max":1803,"o":"m 1021 119 l 1619 849 l 1035 849 l 1035 986 l 1801 986 l 1801 867 l 1217 138 l 1803 138 l 1803 0 l 1021 0 l 1021 119 m 111 0 l 111 986 l 461 986 q 670 947 581 986 q 820 842 760 908 q 911 685 881 775 q 942 494 942 596 q 908 291 942 382 q 811 135 874 200 q 660 35 749 71 q 461 0 571 0 l 111 0 m 783 494 q 762 638 783 572 q 699 749 740 703 q 597 822 657 796 q 461 849 538 849 l 267 849 l 267 138 l 461 138 q 599 165 539 138 q 701 240 660 192 q 763 353 742 288 q 783 494 783 418 z "},"ǲ":{"ha":1678,"x_min":111,"x_max":1633,"o":"m 1032 96 l 1468 618 l 1047 618 l 1047 726 l 1629 726 l 1629 631 l 1196 108 l 1633 108 l 1633 0 l 1032 0 l 1032 96 m 111 0 l 111 986 l 461 986 q 670 947 581 986 q 820 842 760 908 q 911 685 881 775 q 942 494 942 596 q 908 291 942 382 q 811 135 874 200 q 660 35 749 71 q 461 0 571 0 l 111 0 m 783 494 q 762 638 783 572 q 699 749 740 703 q 597 822 657 796 q 461 849 538 849 l 267 849 l 267 138 l 461 138 q 599 165 539 138 q 701 240 660 192 q 763 353 742 288 q 783 494 783 418 z "},"ǳ":{"ha":1569,"x_min":46,"x_max":1525,"o":"m 924 96 l 1360 618 l 939 618 l 939 726 l 1521 726 l 1521 631 l 1088 108 l 1525 108 l 1525 0 l 924 0 l 924 96 m 388 -14 q 251 16 314 -14 q 143 97 189 46 q 72 217 97 149 q 46 365 46 286 q 70 509 46 442 q 138 628 94 576 q 241 709 182 679 q 371 739 300 739 q 525 697 458 739 q 629 589 592 654 l 629 1014 l 782 1014 l 782 181 q 791 143 782 154 q 824 131 800 132 l 824 0 q 785 -6 800 -4 q 761 -7 771 -7 q 686 17 715 -7 q 654 78 657 40 l 651 132 q 542 25 611 64 q 388 -14 472 -14 m 425 117 q 492 128 458 117 q 553 158 525 139 q 601 204 581 178 q 629 261 621 231 l 629 451 q 594 515 617 486 q 542 565 571 544 q 480 597 513 586 q 414 608 447 608 q 330 588 368 608 q 264 532 292 567 q 220 453 236 497 q 204 361 204 408 q 222 267 204 311 q 269 189 239 222 q 340 136 300 156 q 425 117 379 117 z "},"Ǵ":{"ha":999,"x_min":50,"x_max":932,"o":"m 560 1089 l 460 1119 l 539 1272 l 685 1272 l 560 1089 m 801 122 q 514 -7 676 -7 q 331 34 415 -7 q 183 144 246 75 q 85 306 121 214 q 50 497 50 397 q 85 688 50 597 q 183 846 121 778 q 332 953 246 914 q 519 993 418 993 q 757 934 661 993 q 901 778 853 875 l 782 692 q 671 813 742 772 q 515 853 600 853 q 389 823 446 853 q 292 744 332 793 q 230 629 251 694 q 208 493 208 564 q 233 353 208 418 q 299 239 257 288 q 400 162 342 190 q 526 133 458 133 q 670 168 601 133 q 801 278 739 203 l 801 383 l 594 383 l 594 499 l 932 499 l 932 0 l 801 0 l 801 122 z "},"ǵ":{"ha":872,"x_min":46,"x_max":781,"o":"m 467 831 l 367 861 l 446 1014 l 592 1014 l 467 831 m 378 -7 q 243 23 304 -7 q 138 104 182 53 q 70 222 94 156 q 46 363 46 289 q 71 509 46 440 q 140 628 96 578 q 247 709 185 679 q 383 739 308 739 q 537 697 471 739 q 646 589 603 656 l 646 726 l 781 726 l 781 21 q 751 -119 781 -58 q 670 -223 722 -181 q 547 -287 618 -265 q 394 -310 476 -310 q 194 -269 274 -310 q 60 -154 114 -228 l 146 -74 q 253 -162 188 -132 q 394 -193 319 -193 q 484 -181 442 -193 q 558 -142 526 -168 q 609 -75 590 -115 q 628 21 628 -35 l 628 132 q 521 29 589 65 q 378 -7 453 -7 m 428 117 q 494 128 463 117 q 553 160 526 140 q 600 206 581 181 q 628 261 619 232 l 628 451 q 592 515 614 486 q 541 564 569 543 q 481 597 513 585 q 417 608 449 608 q 327 587 367 608 q 260 530 288 565 q 217 450 232 494 q 201 358 201 406 q 219 265 201 308 q 267 188 236 221 q 338 136 297 156 q 428 117 379 117 z "},"Ǻ":{"ha":938,"x_min":10,"x_max":926,"o":"m 535 1125 q 576 1092 561 1114 q 592 1038 592 1069 q 580 990 592 1010 q 549 957 568 969 l 926 0 l 763 0 l 658 268 l 278 268 l 175 0 l 10 0 l 389 956 q 358 990 369 969 q 346 1038 346 1010 q 367 1099 346 1075 q 425 1133 389 1124 l 499 1275 l 644 1275 l 535 1125 m 628 383 l 469 807 l 306 383 l 628 383 m 468 1089 q 428 1075 444 1089 q 413 1038 413 1061 q 428 1001 413 1017 q 468 986 444 986 q 508 1001 492 986 q 525 1038 525 1015 q 508 1075 525 1061 q 468 1089 492 1089 z "},"ǻ":{"ha":783,"x_min":39,"x_max":731,"o":"m 285 -14 q 187 3 232 -14 q 109 51 142 21 q 58 124 76 82 q 39 214 39 165 q 61 307 39 265 q 124 379 83 349 q 222 426 165 410 q 346 443 278 443 q 447 434 397 443 q 538 410 497 425 l 538 460 q 492 585 538 540 q 360 631 446 631 q 245 609 301 631 q 129 547 189 588 l 82 644 q 374 739 222 739 q 607 663 524 739 q 690 443 690 586 l 690 181 q 731 131 690 132 l 731 0 q 692 -6 708 -4 q 661 -7 676 -7 q 592 15 617 -7 q 563 72 568 38 l 558 118 q 438 20 510 54 q 285 -14 367 -14 m 326 99 q 431 119 382 99 q 508 175 481 139 q 538 228 538 200 l 538 324 q 455 347 499 339 q 369 356 411 356 q 235 320 288 356 q 183 226 183 285 q 224 135 183 172 q 326 99 264 99 m 408 1057 l 308 1088 l 388 1240 l 533 1240 l 408 1057 m 250 913 q 284 988 250 961 q 372 1014 318 1014 q 462 988 428 1014 q 496 913 496 961 q 462 838 496 865 q 372 811 428 811 q 284 838 318 811 q 250 913 250 865 m 372 964 q 333 950 349 964 q 317 913 317 936 q 333 876 317 892 q 372 861 349 861 q 413 876 396 861 q 429 913 429 890 q 413 950 429 936 q 372 964 396 964 z "},"Ǽ":{"ha":1338,"x_min":-35,"x_max":1289,"o":"m 801 1089 l 701 1119 l 781 1272 l 926 1272 l 801 1089 m 588 986 l 1276 986 l 1276 849 l 785 849 l 785 571 l 1201 571 l 1201 433 l 785 433 l 785 138 l 1289 138 l 1289 0 l 629 0 l 629 268 l 297 268 l 133 0 l -35 0 l 588 986 m 618 407 l 618 807 l 365 407 l 618 407 z "},"ǽ":{"ha":1299,"x_min":39,"x_max":1265,"o":"m 658 831 l 558 861 l 638 1014 l 783 1014 l 658 831 m 283 -14 q 186 3 231 -14 q 109 51 142 21 q 58 124 76 82 q 39 214 39 165 q 61 307 39 265 q 124 379 83 349 q 220 426 164 410 q 344 443 276 443 q 435 436 390 443 q 517 415 481 429 q 522 456 519 433 q 532 493 525 478 q 480 595 524 560 q 358 631 436 631 q 245 609 301 631 q 129 547 189 588 l 81 644 q 372 739 224 739 q 524 708 460 739 q 625 621 589 678 q 739 706 671 674 q 890 739 807 739 q 1044 709 975 739 q 1163 628 1114 679 q 1238 508 1211 576 q 1265 363 1265 439 q 1265 337 1265 351 q 1261 313 1264 322 l 668 313 q 692 225 672 264 q 742 158 711 186 q 814 114 774 129 q 899 99 854 99 q 959 106 929 99 q 1014 128 989 114 q 1058 164 1039 143 q 1089 210 1078 185 l 1219 172 q 1169 98 1201 132 q 1095 39 1138 64 q 1001 0 1053 14 q 893 -14 950 -14 q 714 28 793 -14 q 586 140 635 69 q 526 69 563 99 q 449 22 490 40 q 365 -6 408 3 q 283 -14 322 -14 m 325 99 q 431 119 382 99 q 508 175 481 139 q 538 224 535 197 q 523 276 528 242 q 517 331 518 310 q 444 349 482 342 q 369 356 406 356 q 234 320 286 356 q 182 226 182 285 q 193 176 182 199 q 224 135 204 153 q 269 108 243 118 q 325 99 294 99 m 1113 410 q 1090 497 1108 457 q 1042 566 1071 538 q 973 610 1013 594 q 888 626 933 626 q 802 610 842 626 q 733 565 763 594 q 686 497 704 536 q 665 410 668 457 l 1113 410 z "},"Ǿ":{"ha":1043,"x_min":49,"x_max":994,"o":"m 944 986 l 851 850 q 957 683 919 778 q 994 492 994 589 q 959 303 994 393 q 860 144 924 213 q 709 34 796 75 q 521 -7 622 -7 q 404 8 458 -7 q 301 49 350 22 l 268 0 l 99 0 l 190 135 q 85 299 122 206 q 49 493 49 393 q 85 682 49 592 q 184 842 121 772 q 334 952 247 911 q 524 993 421 993 q 639 978 585 993 q 740 936 693 964 l 775 986 l 944 986 m 207 493 q 225 369 207 429 q 278 261 243 310 l 658 817 q 522 851 596 851 q 389 820 447 851 q 290 739 331 789 q 228 624 250 689 q 207 493 207 560 m 835 493 q 817 616 835 557 q 764 724 799 675 l 383 167 q 449 142 414 151 q 522 133 483 133 q 655 165 597 133 q 753 247 713 196 q 814 363 793 299 q 835 493 835 426 m 557 1089 l 457 1119 l 536 1272 l 682 1272 l 557 1089 z "},"ǿ":{"ha":836,"x_min":44,"x_max":792,"o":"m 92 -4 l 163 82 q 74 207 104 135 q 44 363 44 279 q 71 506 44 438 q 147 626 97 575 q 265 708 196 678 q 418 739 333 739 q 524 725 475 739 q 614 686 572 711 l 649 731 l 740 731 l 669 644 q 760 519 728 592 q 792 363 792 446 q 765 219 792 288 q 690 99 739 150 q 572 17 640 47 q 418 -14 503 -14 q 217 40 303 -14 l 181 -4 l 92 -4 m 418 117 q 503 135 464 117 q 572 188 543 154 q 618 265 601 221 q 635 363 635 310 q 619 454 635 411 q 578 531 604 497 l 303 153 q 418 117 354 117 m 201 361 q 216 269 201 313 q 257 194 231 226 l 529 574 q 418 608 476 608 q 334 589 374 608 q 265 536 294 569 q 219 458 236 503 q 201 361 201 413 m 451 831 l 351 861 l 431 1014 l 576 1014 l 451 831 z "},"Ȁ":{"ha":938,"x_min":10,"x_max":926,"o":"m 401 986 l 538 986 l 926 0 l 763 0 l 658 268 l 278 268 l 175 0 l 10 0 l 401 986 m 628 383 l 469 807 l 306 383 l 628 383 m 432 1274 l 556 1274 l 626 1121 l 550 1090 l 432 1274 m 226 1274 l 351 1274 l 422 1121 l 344 1090 l 226 1274 z "},"̏":{"ha":488,"x_min":36,"x_max":436,"o":"m 242 1014 l 365 1014 l 436 861 l 360 831 l 242 1014 m 36 1014 l 161 1014 l 232 861 l 154 831 l 36 1014 z "},"ȁ":{"ha":783,"x_min":39,"x_max":731,"o":"m 285 -14 q 187 3 232 -14 q 109 51 142 21 q 58 124 76 82 q 39 214 39 165 q 61 307 39 265 q 124 379 83 349 q 222 426 165 410 q 346 443 278 443 q 447 434 397 443 q 538 410 497 425 l 538 460 q 492 585 538 540 q 360 631 446 631 q 245 609 301 631 q 129 547 189 588 l 82 644 q 374 739 222 739 q 607 663 524 739 q 690 443 690 586 l 690 181 q 731 131 690 132 l 731 0 q 692 -6 708 -4 q 661 -7 676 -7 q 592 15 617 -7 q 563 72 568 38 l 558 118 q 438 20 510 54 q 285 -14 367 -14 m 326 99 q 431 119 382 99 q 508 175 481 139 q 538 228 538 200 l 538 324 q 455 347 499 339 q 369 356 411 356 q 235 320 288 356 q 183 226 183 285 q 224 135 183 172 q 326 99 264 99 m 358 1014 l 482 1014 l 553 861 l 476 831 l 358 1014 m 153 1014 l 278 1014 l 349 861 l 271 831 l 153 1014 z "},"Ȃ":{"ha":938,"x_min":10,"x_max":926,"o":"m 401 986 l 538 986 l 926 0 l 763 0 l 658 268 l 278 268 l 175 0 l 10 0 l 401 986 m 628 383 l 469 807 l 306 383 l 628 383 m 469 1201 q 413 1172 438 1201 q 389 1103 389 1143 l 304 1103 q 317 1170 304 1139 q 351 1224 329 1201 q 403 1260 374 1247 q 469 1272 433 1272 q 535 1260 504 1272 q 588 1224 565 1247 q 622 1170 610 1201 q 635 1103 635 1139 l 550 1103 q 523 1174 546 1146 q 469 1201 500 1201 z "},"̑":{"ha":433,"x_min":51,"x_max":382,"o":"m 217 943 q 160 914 185 943 q 136 844 136 885 l 51 844 q 64 912 51 881 q 99 966 76 943 q 151 1001 121 989 q 217 1014 181 1014 q 282 1001 251 1014 q 335 966 313 989 q 369 912 357 943 q 382 844 382 881 l 297 844 q 270 915 293 888 q 217 943 247 943 z "},"ȃ":{"ha":783,"x_min":39,"x_max":731,"o":"m 285 -14 q 187 3 232 -14 q 109 51 142 21 q 58 124 76 82 q 39 214 39 165 q 61 307 39 265 q 124 379 83 349 q 222 426 165 410 q 346 443 278 443 q 447 434 397 443 q 538 410 497 425 l 538 460 q 492 585 538 540 q 360 631 446 631 q 245 609 301 631 q 129 547 189 588 l 82 644 q 374 739 222 739 q 607 663 524 739 q 690 443 690 586 l 690 181 q 731 131 690 132 l 731 0 q 692 -6 708 -4 q 661 -7 676 -7 q 592 15 617 -7 q 563 72 568 38 l 558 118 q 438 20 510 54 q 285 -14 367 -14 m 326 99 q 431 119 382 99 q 508 175 481 139 q 538 228 538 200 l 538 324 q 455 347 499 339 q 369 356 411 356 q 235 320 288 356 q 183 226 183 285 q 224 135 183 172 q 326 99 264 99 m 386 943 q 330 914 354 943 q 306 844 306 885 l 221 844 q 233 912 221 881 q 268 966 246 943 q 320 1001 290 989 q 386 1014 350 1014 q 451 1001 421 1014 q 504 966 482 989 q 539 912 526 943 q 551 844 551 881 l 467 844 q 440 915 463 888 q 386 943 417 943 z "},"Ȅ":{"ha":838,"x_min":111,"x_max":788,"o":"m 421 1274 l 544 1274 l 615 1121 l 539 1090 l 421 1274 m 215 1274 l 340 1274 l 411 1121 l 333 1090 l 215 1274 m 788 138 l 788 0 l 111 0 l 111 986 l 775 986 l 775 849 l 267 849 l 267 568 l 707 568 l 707 439 l 267 439 l 267 138 l 788 138 z "},"ȅ":{"ha":826,"x_min":44,"x_max":793,"o":"m 392 1014 l 515 1014 l 586 861 l 510 831 l 392 1014 m 186 1014 l 311 1014 l 382 861 l 304 831 l 186 1014 m 421 -14 q 267 16 336 -14 q 148 97 197 46 q 72 217 99 149 q 44 361 44 285 q 72 506 44 438 q 148 627 99 575 q 267 709 197 679 q 422 739 336 739 q 576 708 507 739 q 693 627 644 678 q 767 509 742 576 q 793 368 793 442 q 792 337 793 351 q 789 313 790 322 l 207 313 q 230 225 211 264 q 278 158 249 186 q 347 114 308 129 q 426 99 385 99 q 487 106 457 99 q 542 128 517 114 q 586 164 567 143 q 617 210 606 185 l 747 172 q 623 38 710 90 q 421 -14 536 -14 m 642 418 q 619 503 638 464 q 571 569 600 542 q 503 611 542 596 q 421 626 464 626 q 340 611 378 626 q 272 569 301 596 q 225 503 243 542 q 203 418 207 464 l 642 418 z "},"Ȇ":{"ha":838,"x_min":111,"x_max":788,"o":"m 457 1201 q 401 1172 425 1201 q 376 1103 376 1143 l 292 1103 q 304 1170 292 1139 q 339 1224 317 1201 q 391 1260 361 1247 q 457 1272 421 1272 q 522 1260 492 1272 q 575 1224 553 1247 q 610 1170 597 1201 q 622 1103 622 1139 l 538 1103 q 510 1174 533 1146 q 457 1201 488 1201 m 788 138 l 788 0 l 111 0 l 111 986 l 775 986 l 775 849 l 267 849 l 267 568 l 707 568 l 707 439 l 267 439 l 267 138 l 788 138 z "},"ȇ":{"ha":826,"x_min":44,"x_max":793,"o":"m 424 943 q 367 914 392 943 q 343 844 343 885 l 258 844 q 271 912 258 881 q 306 966 283 943 q 358 1001 328 989 q 424 1014 388 1014 q 489 1001 458 1014 q 542 966 519 989 q 576 912 564 943 q 589 844 589 881 l 504 844 q 477 915 500 888 q 424 943 454 943 m 421 -14 q 267 16 336 -14 q 148 97 197 46 q 72 217 99 149 q 44 361 44 285 q 72 506 44 438 q 148 627 99 575 q 267 709 197 679 q 422 739 336 739 q 576 708 507 739 q 693 627 644 678 q 767 509 742 576 q 793 368 793 442 q 792 337 793 351 q 789 313 790 322 l 207 313 q 230 225 211 264 q 278 158 249 186 q 347 114 308 129 q 426 99 385 99 q 487 106 457 99 q 542 128 517 114 q 586 164 567 143 q 617 210 606 185 l 747 172 q 623 38 710 90 q 421 -14 536 -14 m 642 418 q 619 503 638 464 q 571 569 600 542 q 503 611 542 596 q 421 626 464 626 q 340 611 378 626 q 272 569 301 596 q 225 503 243 542 q 203 418 207 464 l 642 418 z "},"Ȉ":{"ha":378,"x_min":-39,"x_max":361,"o":"m 111 0 l 111 986 l 267 986 l 267 0 l 111 0 m 167 1274 l 290 1274 l 361 1121 l 285 1090 l 167 1274 m -39 1274 l 86 1274 l 157 1121 l 79 1090 l -39 1274 z "},"ȉ":{"ha":336,"x_min":-56,"x_max":344,"o":"m 150 1014 l 274 1014 l 344 861 l 268 831 l 150 1014 m -56 1014 l 69 1014 l 140 861 l 63 831 l -56 1014 m 92 0 l 92 726 l 244 726 l 244 0 l 92 0 z "},"Ȋ":{"ha":378,"x_min":21,"x_max":351,"o":"m 111 0 l 111 986 l 267 986 l 267 0 l 111 0 m 186 1201 q 130 1172 154 1201 q 106 1103 106 1143 l 21 1103 q 33 1170 21 1139 q 68 1224 46 1201 q 120 1260 90 1247 q 186 1272 150 1272 q 251 1260 221 1272 q 304 1224 282 1247 q 339 1170 326 1201 q 351 1103 351 1139 l 267 1103 q 240 1174 263 1146 q 186 1201 217 1201 z "},"ȋ":{"ha":336,"x_min":4,"x_max":335,"o":"m 169 943 q 113 914 138 943 q 89 844 89 885 l 4 844 q 17 912 4 881 q 51 966 29 943 q 103 1001 74 989 q 169 1014 133 1014 q 235 1001 204 1014 q 288 966 265 989 q 322 912 310 943 q 335 844 335 881 l 250 844 q 223 915 246 888 q 169 943 200 943 m 92 0 l 92 726 l 244 726 l 244 0 l 92 0 z "},"Ȍ":{"ha":1044,"x_min":49,"x_max":994,"o":"m 482 1274 l 606 1274 l 676 1121 l 600 1090 l 482 1274 m 276 1274 l 401 1274 l 472 1121 l 394 1090 l 276 1274 m 521 -7 q 328 35 415 -7 q 179 148 242 78 q 83 308 117 218 q 49 493 49 399 q 85 682 49 592 q 184 842 121 772 q 334 952 247 911 q 524 993 421 993 q 716 949 629 993 q 865 835 803 906 q 960 674 926 764 q 994 492 994 585 q 959 303 994 393 q 860 144 924 213 q 709 34 796 75 q 521 -7 622 -7 m 207 493 q 229 358 207 424 q 292 243 251 293 q 392 163 333 193 q 522 133 450 133 q 655 165 597 133 q 753 247 713 196 q 814 363 793 299 q 835 493 835 426 q 813 628 835 564 q 749 742 790 693 q 651 822 708 792 q 522 851 593 851 q 389 820 447 851 q 290 739 331 789 q 228 624 250 689 q 207 493 207 560 z "},"ȍ":{"ha":836,"x_min":44,"x_max":792,"o":"m 383 1014 l 507 1014 l 578 861 l 501 831 l 383 1014 m 178 1014 l 303 1014 l 374 861 l 296 831 l 178 1014 m 418 -14 q 263 17 332 -14 q 146 99 194 47 q 71 219 97 150 q 44 363 44 288 q 71 506 44 438 q 147 626 97 575 q 265 708 196 678 q 418 739 333 739 q 572 708 503 739 q 690 626 640 678 q 765 506 739 575 q 792 363 792 438 q 765 219 792 288 q 690 99 739 150 q 572 17 640 47 q 418 -14 503 -14 m 201 361 q 218 264 201 308 q 264 187 235 219 q 333 135 293 154 q 418 117 372 117 q 503 135 464 117 q 572 188 543 154 q 618 265 601 221 q 635 363 635 310 q 618 459 635 414 q 572 538 601 504 q 503 590 543 571 q 418 608 464 608 q 334 589 374 608 q 265 536 294 569 q 219 458 236 503 q 201 361 201 413 z "},"Ȏ":{"ha":1044,"x_min":49,"x_max":994,"o":"m 524 1201 q 467 1172 492 1201 q 443 1103 443 1143 l 358 1103 q 371 1170 358 1139 q 406 1224 383 1201 q 458 1260 428 1247 q 524 1272 488 1272 q 589 1260 558 1272 q 642 1224 619 1247 q 676 1170 664 1201 q 689 1103 689 1139 l 604 1103 q 577 1174 600 1146 q 524 1201 554 1201 m 521 -7 q 328 35 415 -7 q 179 148 242 78 q 83 308 117 218 q 49 493 49 399 q 85 682 49 592 q 184 842 121 772 q 334 952 247 911 q 524 993 421 993 q 716 949 629 993 q 865 835 803 906 q 960 674 926 764 q 994 492 994 585 q 959 303 994 393 q 860 144 924 213 q 709 34 796 75 q 521 -7 622 -7 m 207 493 q 229 358 207 424 q 292 243 251 293 q 392 163 333 193 q 522 133 450 133 q 655 165 597 133 q 753 247 713 196 q 814 363 793 299 q 835 493 835 426 q 813 628 835 564 q 749 742 790 693 q 651 822 708 792 q 522 851 593 851 q 389 820 447 851 q 290 739 331 789 q 228 624 250 689 q 207 493 207 560 z "},"ȏ":{"ha":836,"x_min":44,"x_max":792,"o":"m 418 943 q 362 914 386 943 q 338 844 338 885 l 253 844 q 265 912 253 881 q 300 966 278 943 q 352 1001 322 989 q 418 1014 382 1014 q 483 1001 453 1014 q 536 966 514 989 q 571 912 558 943 q 583 844 583 881 l 499 844 q 472 915 494 888 q 418 943 449 943 m 418 -14 q 263 17 332 -14 q 146 99 194 47 q 71 219 97 150 q 44 363 44 288 q 71 506 44 438 q 147 626 97 575 q 265 708 196 678 q 418 739 333 739 q 572 708 503 739 q 690 626 640 678 q 765 506 739 575 q 792 363 792 438 q 765 219 792 288 q 690 99 739 150 q 572 17 640 47 q 418 -14 503 -14 m 201 361 q 218 264 201 308 q 264 187 235 219 q 333 135 293 154 q 418 117 372 117 q 503 135 464 117 q 572 188 543 154 q 618 265 601 221 q 635 363 635 310 q 618 459 635 414 q 572 538 601 504 q 503 590 543 571 q 418 608 464 608 q 334 589 374 608 q 265 536 294 569 q 219 458 236 503 q 201 361 201 413 z "},"Ȑ":{"ha":918,"x_min":111,"x_max":885,"o":"m 408 1274 l 532 1274 l 603 1121 l 526 1090 l 408 1274 m 203 1274 l 328 1274 l 399 1121 l 321 1090 l 203 1274 m 111 0 l 111 986 l 540 986 q 663 958 607 986 q 760 885 719 931 q 823 783 800 840 q 846 665 846 725 q 832 569 846 615 q 793 485 818 524 q 732 417 768 446 q 653 375 696 389 l 885 0 l 708 0 l 494 343 l 267 343 l 267 0 l 111 0 m 267 481 l 539 481 q 599 495 572 481 q 646 535 626 510 q 676 594 665 561 q 688 665 688 628 q 674 736 688 703 q 640 794 661 769 q 590 834 618 819 q 531 849 561 849 l 267 849 l 267 481 z "},"ȑ":{"ha":519,"x_min":67,"x_max":500,"o":"m 272 1014 l 396 1014 l 467 861 l 390 831 l 272 1014 m 67 1014 l 192 1014 l 263 861 l 185 831 l 67 1014 m 500 594 q 342 553 411 592 q 244 444 274 515 l 244 0 l 92 0 l 92 726 l 233 726 l 233 564 q 331 684 271 639 q 461 733 392 729 q 484 733 475 733 q 500 732 493 733 l 500 594 z "},"Ȓ":{"ha":918,"x_min":111,"x_max":885,"o":"m 449 1201 q 392 1172 417 1201 q 368 1103 368 1143 l 283 1103 q 296 1170 283 1139 q 331 1224 308 1201 q 383 1260 353 1247 q 449 1272 413 1272 q 514 1260 483 1272 q 567 1224 544 1247 q 601 1170 589 1201 q 614 1103 614 1139 l 529 1103 q 502 1174 525 1146 q 449 1201 479 1201 m 111 0 l 111 986 l 540 986 q 663 958 607 986 q 760 885 719 931 q 823 783 800 840 q 846 665 846 725 q 832 569 846 615 q 793 485 818 524 q 732 417 768 446 q 653 375 696 389 l 885 0 l 708 0 l 494 343 l 267 343 l 267 0 l 111 0 m 267 481 l 539 481 q 599 495 572 481 q 646 535 626 510 q 676 594 665 561 q 688 665 688 628 q 674 736 688 703 q 640 794 661 769 q 590 834 618 819 q 531 849 561 849 l 267 849 l 267 481 z "},"ȓ":{"ha":519,"x_min":92,"x_max":500,"o":"m 293 943 q 237 914 261 943 q 213 844 213 885 l 128 844 q 140 912 128 881 q 175 966 153 943 q 227 1001 197 989 q 293 1014 257 1014 q 358 1001 328 1014 q 411 966 389 989 q 446 912 433 943 q 458 844 458 881 l 374 844 q 347 915 369 888 q 293 943 324 943 m 500 594 q 342 553 411 592 q 244 444 274 515 l 244 0 l 92 0 l 92 726 l 233 726 l 233 564 q 331 684 271 639 q 461 733 392 729 q 484 733 475 733 q 500 732 493 733 l 500 594 z "},"Ȕ":{"ha":1044,"x_min":97,"x_max":949,"o":"m 488 1274 l 611 1274 l 682 1121 l 606 1090 l 488 1274 m 282 1274 l 407 1274 l 478 1121 l 400 1090 l 282 1274 m 522 133 q 651 164 600 133 q 734 244 703 194 q 778 356 765 293 q 792 486 792 419 l 792 986 l 949 986 l 949 486 q 925 295 949 385 q 850 138 901 206 q 717 32 799 71 q 522 -7 636 -7 q 323 34 404 -7 q 192 144 242 75 q 119 301 142 213 q 97 486 97 390 l 97 986 l 253 986 l 253 486 q 266 355 253 418 q 310 242 279 292 q 394 163 342 193 q 522 133 446 133 z "},"ȕ":{"ha":846,"x_min":85,"x_max":785,"o":"m 385 1014 l 508 1014 l 579 861 l 503 831 l 385 1014 m 179 1014 l 304 1014 l 375 861 l 297 831 l 179 1014 m 315 -14 q 143 60 201 -14 q 85 282 85 135 l 85 726 l 238 726 l 238 313 q 376 117 238 117 q 500 157 442 117 q 590 274 558 197 l 590 726 l 743 726 l 743 181 q 752 143 743 154 q 785 131 761 132 l 785 0 q 746 -6 761 -4 q 717 -7 731 -7 q 646 16 675 -7 q 615 75 617 39 l 613 147 q 486 27 564 68 q 315 -14 408 -14 z "},"Ȗ":{"ha":1044,"x_min":97,"x_max":949,"o":"m 522 1201 q 466 1172 490 1201 q 442 1103 442 1143 l 357 1103 q 369 1170 357 1139 q 404 1224 382 1201 q 456 1260 426 1247 q 522 1272 486 1272 q 588 1260 557 1272 q 640 1224 618 1247 q 675 1170 663 1201 q 688 1103 688 1139 l 603 1103 q 576 1174 599 1146 q 522 1201 553 1201 m 522 133 q 651 164 600 133 q 734 244 703 194 q 778 356 765 293 q 792 486 792 419 l 792 986 l 949 986 l 949 486 q 925 295 949 385 q 850 138 901 206 q 717 32 799 71 q 522 -7 636 -7 q 323 34 404 -7 q 192 144 242 75 q 119 301 142 213 q 97 486 97 390 l 97 986 l 253 986 l 253 486 q 266 355 253 418 q 310 242 279 292 q 394 163 342 193 q 522 133 446 133 z "},"ȗ":{"ha":846,"x_min":85,"x_max":785,"o":"m 411 943 q 355 914 379 943 q 331 844 331 885 l 246 844 q 258 912 246 881 q 293 966 271 943 q 345 1001 315 989 q 411 1014 375 1014 q 476 1001 446 1014 q 529 966 507 989 q 564 912 551 943 q 576 844 576 881 l 492 844 q 465 915 488 888 q 411 943 442 943 m 315 -14 q 143 60 201 -14 q 85 282 85 135 l 85 726 l 238 726 l 238 313 q 376 117 238 117 q 500 157 442 117 q 590 274 558 197 l 590 726 l 743 726 l 743 181 q 752 143 743 154 q 785 131 761 132 l 785 0 q 746 -6 761 -4 q 717 -7 731 -7 q 646 16 675 -7 q 615 75 617 39 l 613 147 q 486 27 564 68 q 315 -14 408 -14 z "},"Ș":{"ha":849,"x_min":36,"x_max":804,"o":"m 389 -296 l 421 -189 l 376 -189 l 376 -67 l 508 -67 l 508 -189 l 460 -296 l 389 -296 m 694 754 q 654 787 681 769 q 592 819 628 804 q 515 844 557 835 q 428 854 472 854 q 283 818 329 854 q 236 718 236 782 q 251 659 236 682 q 296 619 265 636 q 372 588 326 601 q 479 560 418 575 q 615 519 554 542 q 717 465 675 497 q 781 387 758 433 q 804 274 804 340 q 776 144 804 199 q 698 56 747 90 q 583 6 649 22 q 443 -10 518 -10 q 226 24 331 -10 q 36 124 121 58 l 107 257 q 159 217 125 239 q 238 176 193 194 q 336 144 283 157 q 446 131 389 131 q 588 163 538 131 q 638 257 638 194 q 619 319 638 294 q 565 363 600 344 q 481 397 531 382 q 367 429 431 413 q 238 470 293 449 q 147 522 183 492 q 92 594 111 553 q 74 693 74 635 q 101 822 74 765 q 177 916 129 878 q 290 974 225 954 q 432 993 356 993 q 617 961 532 993 q 765 882 701 929 l 694 754 z "},"ș":{"ha":689,"x_min":32,"x_max":647,"o":"m 297 -296 l 329 -189 l 285 -189 l 285 -67 l 417 -67 l 417 -189 l 368 -296 l 297 -296 m 356 -14 q 181 15 268 -14 q 32 96 94 43 l 93 193 q 222 122 158 146 q 353 97 286 97 q 460 124 421 97 q 500 199 500 150 q 456 265 500 244 q 317 311 411 286 q 200 346 249 329 q 121 385 151 363 q 76 436 90 407 q 63 507 63 465 q 84 606 63 563 q 144 678 106 649 q 233 724 182 708 q 344 739 285 739 q 497 714 426 739 q 624 642 568 689 l 558 550 q 343 631 457 631 q 245 606 285 631 q 206 529 206 582 q 214 492 206 507 q 241 465 222 476 q 290 445 260 454 q 364 425 319 436 q 491 389 438 407 q 579 347 544 371 q 631 290 614 322 q 647 211 647 257 q 569 47 647 107 q 356 -14 490 -14 z "},"Ț":{"ha":856,"x_min":21,"x_max":835,"o":"m 375 -296 l 407 -189 l 363 -189 l 363 -67 l 494 -67 l 494 -189 l 446 -296 l 375 -296 m 835 849 l 507 849 l 507 0 l 350 0 l 350 849 l 21 849 l 21 986 l 835 986 l 835 849 z "},"ț":{"ha":510,"x_min":33,"x_max":496,"o":"m 246 -296 l 278 -189 l 233 -189 l 233 -67 l 365 -67 l 365 -189 l 317 -296 l 246 -296 m 496 38 q 415 6 467 24 q 306 -11 364 -11 q 238 -1 269 -11 q 181 28 206 8 q 143 78 157 47 q 129 154 129 110 l 129 608 l 33 608 l 33 726 l 129 726 l 129 965 l 282 965 l 282 726 l 440 726 l 440 608 l 282 608 l 282 203 q 306 147 285 164 q 360 129 328 129 q 421 140 392 129 q 464 158 450 151 l 496 38 z "},"ə":{"ha":826,"x_min":33,"x_max":782,"o":"m 408 -14 q 253 16 322 -14 q 136 97 185 46 q 60 217 88 149 q 33 363 33 286 q 34 388 33 374 q 38 413 35 403 l 619 413 q 597 500 615 461 q 548 567 578 539 q 480 610 518 594 q 400 625 442 625 q 340 617 369 625 q 285 595 310 610 q 240 560 260 581 q 210 515 219 540 l 78 553 q 128 627 96 593 q 203 686 161 661 q 297 725 246 711 q 407 739 349 739 q 560 709 492 739 q 678 628 629 679 q 755 508 728 576 q 782 363 782 439 q 756 217 782 285 q 681 97 729 149 q 563 16 632 46 q 408 -14 493 -14 m 411 99 q 492 115 454 99 q 557 160 529 131 q 602 228 585 189 q 622 315 619 268 l 188 315 q 210 227 192 267 q 259 159 229 188 q 328 115 289 131 q 411 99 367 99 z "},"ˉ":{"ha":571,"x_min":81,"x_max":492,"o":"m 81 894 l 81 992 l 492 992 l 492 894 l 81 894 z "},"Δ":{"ha":903,"x_min":28,"x_max":874,"o":"m 874 118 l 874 0 l 28 0 l 28 118 l 388 986 l 515 986 l 874 118 m 711 138 l 451 808 l 193 138 l 711 138 z "},"Ω":{"ha":1065,"x_min":57,"x_max":1008,"o":"m 57 125 l 297 125 q 131 284 192 183 q 71 510 71 385 q 106 693 71 606 q 203 847 142 781 q 349 953 265 914 q 532 993 433 993 q 715 953 631 993 q 862 847 800 914 q 959 693 924 781 q 994 510 994 606 q 934 284 994 385 q 768 125 874 183 l 1008 125 l 1008 0 l 594 0 l 594 125 q 695 184 650 144 q 772 276 740 224 q 821 388 804 328 q 838 510 838 449 q 816 635 838 574 q 755 744 794 696 q 659 823 715 793 q 532 853 603 853 q 405 823 461 853 q 309 744 349 793 q 249 635 269 696 q 228 510 228 574 q 244 388 228 449 q 293 276 261 328 q 369 184 325 224 q 471 125 414 144 l 471 0 l 57 0 l 57 125 z "},"μ":{"ha":857,"x_min":92,"x_max":796,"o":"m 92 726 l 244 726 l 244 313 q 386 117 244 117 q 508 157 449 117 q 599 274 567 197 l 599 726 l 751 726 l 751 181 q 796 131 751 132 l 796 0 q 755 -6 771 -4 q 724 -7 739 -7 q 652 18 679 -7 q 624 81 625 43 l 621 147 q 581 89 606 118 q 523 37 556 60 q 453 0 490 14 q 378 -14 417 -14 q 282 16 317 -14 q 236 81 247 46 l 236 -294 l 92 -294 l 92 726 z "},"π":{"ha":868,"x_min":35,"x_max":836,"o":"m 293 590 l 293 0 l 143 0 l 143 590 l 35 590 l 35 725 l 804 725 l 804 590 l 660 590 l 660 210 q 681 147 660 169 q 739 124 701 124 q 775 129 754 124 q 814 142 796 135 l 836 22 q 757 -2 803 7 q 675 -11 711 -11 q 555 32 599 -11 q 511 154 511 75 l 511 590 l 293 590 z "},"Ḍ":{"ha":994,"x_min":111,"x_max":942,"o":"m 403 -262 l 403 -101 l 540 -101 l 540 -262 l 403 -262 m 111 0 l 111 986 l 461 986 q 670 947 581 986 q 820 842 760 908 q 911 685 881 775 q 942 494 942 596 q 908 291 942 382 q 811 135 874 200 q 660 35 749 71 q 461 0 571 0 l 111 0 m 783 494 q 762 638 783 572 q 699 749 740 703 q 597 822 657 796 q 461 849 538 849 l 267 849 l 267 138 l 461 138 q 599 165 539 138 q 701 240 660 192 q 763 353 742 288 q 783 494 783 418 z "},"ḍ":{"ha":885,"x_min":46,"x_max":824,"o":"m 364 -262 l 364 -101 l 501 -101 l 501 -262 l 364 -262 m 388 -14 q 251 16 314 -14 q 143 97 189 46 q 72 217 97 149 q 46 365 46 286 q 70 509 46 442 q 138 628 94 576 q 241 709 182 679 q 371 739 300 739 q 525 697 458 739 q 629 589 592 654 l 629 1014 l 782 1014 l 782 181 q 791 143 782 154 q 824 131 800 132 l 824 0 q 785 -6 800 -4 q 761 -7 771 -7 q 686 17 715 -7 q 654 78 657 40 l 651 132 q 542 25 611 64 q 388 -14 472 -14 m 425 117 q 492 128 458 117 q 553 158 525 139 q 601 204 581 178 q 629 261 621 231 l 629 451 q 594 515 617 486 q 542 565 571 544 q 480 597 513 586 q 414 608 447 608 q 330 588 368 608 q 264 532 292 567 q 220 453 236 497 q 204 361 204 408 q 222 267 204 311 q 269 189 239 222 q 340 136 300 156 q 425 117 379 117 z "},"Ḥ":{"ha":1032,"x_min":111,"x_max":921,"o":"m 921 986 l 921 0 l 764 0 l 764 435 l 267 435 l 267 0 l 111 0 l 111 986 l 267 986 l 267 574 l 764 574 l 764 986 l 921 986 m 446 -262 l 446 -101 l 583 -101 l 583 -262 l 446 -262 z "},"ḥ":{"ha":829,"x_min":92,"x_max":743,"o":"m 743 0 l 590 0 l 590 407 q 555 555 590 507 q 453 603 519 603 q 389 590 421 603 q 328 555 357 578 q 278 501 300 532 q 244 432 256 469 l 244 0 l 92 0 l 92 1014 l 244 1014 l 244 581 q 358 697 286 656 q 514 739 429 739 q 626 715 582 739 q 696 650 669 690 q 733 556 722 610 q 743 443 743 503 l 743 0 m 351 -262 l 351 -101 l 489 -101 l 489 -262 l 351 -262 z "},"Ṅ":{"ha":1065,"x_min":111,"x_max":954,"o":"m 464 1111 l 464 1271 l 601 1271 l 601 1111 l 464 1111 m 267 694 l 267 0 l 111 0 l 111 986 l 233 986 l 797 275 l 797 985 l 954 985 l 954 0 l 825 0 l 267 694 z "},"ṅ":{"ha":829,"x_min":92,"x_max":743,"o":"m 361 854 l 361 1014 l 499 1014 l 499 854 l 361 854 m 743 0 l 590 0 l 590 407 q 558 556 590 510 q 461 603 525 603 q 394 590 428 603 q 332 555 361 578 q 280 501 303 532 q 244 432 257 469 l 244 0 l 92 0 l 92 726 l 231 726 l 231 581 q 351 697 272 654 q 526 739 431 739 q 633 715 592 739 q 699 651 675 692 q 733 556 724 610 q 743 443 743 503 l 743 0 z "},"Ṛ":{"ha":918,"x_min":111,"x_max":885,"o":"m 111 0 l 111 986 l 540 986 q 663 958 607 986 q 760 885 719 931 q 823 783 800 840 q 846 665 846 725 q 832 569 846 615 q 793 485 818 524 q 732 417 768 446 q 653 375 696 389 l 885 0 l 708 0 l 494 343 l 267 343 l 267 0 l 111 0 m 267 481 l 539 481 q 599 495 572 481 q 646 535 626 510 q 676 594 665 561 q 688 665 688 628 q 674 736 688 703 q 640 794 661 769 q 590 834 618 819 q 531 849 561 849 l 267 849 l 267 481 m 392 -262 l 392 -101 l 529 -101 l 529 -262 l 392 -262 z "},"ṛ":{"ha":519,"x_min":92,"x_max":500,"o":"m 500 594 q 342 553 411 592 q 244 444 274 515 l 244 0 l 92 0 l 92 726 l 233 726 l 233 564 q 331 684 271 639 q 461 733 392 729 q 484 733 475 733 q 500 732 493 733 l 500 594 m 100 -262 l 100 -101 l 238 -101 l 238 -262 l 100 -262 z "},"Ṣ":{"ha":849,"x_min":36,"x_max":804,"o":"m 694 754 q 654 787 681 769 q 592 819 628 804 q 515 844 557 835 q 428 854 472 854 q 283 818 329 854 q 236 718 236 782 q 251 659 236 682 q 296 619 265 636 q 372 588 326 601 q 479 560 418 575 q 615 519 554 542 q 717 465 675 497 q 781 387 758 433 q 804 274 804 340 q 776 144 804 199 q 698 56 747 90 q 583 6 649 22 q 443 -10 518 -10 q 226 24 331 -10 q 36 124 121 58 l 107 257 q 159 217 125 239 q 238 176 193 194 q 336 144 283 157 q 446 131 389 131 q 588 163 538 131 q 638 257 638 194 q 619 319 638 294 q 565 363 600 344 q 481 397 531 382 q 367 429 431 413 q 238 470 293 449 q 147 522 183 492 q 92 594 111 553 q 74 693 74 635 q 101 822 74 765 q 177 916 129 878 q 290 974 225 954 q 432 993 356 993 q 617 961 532 993 q 765 882 701 929 l 694 754 m 353 -262 l 353 -101 l 490 -101 l 490 -262 l 353 -262 z "},"ṣ":{"ha":689,"x_min":32,"x_max":647,"o":"m 356 -14 q 181 15 268 -14 q 32 96 94 43 l 93 193 q 222 122 158 146 q 353 97 286 97 q 460 124 421 97 q 500 199 500 150 q 456 265 500 244 q 317 311 411 286 q 200 346 249 329 q 121 385 151 363 q 76 436 90 407 q 63 507 63 465 q 84 606 63 563 q 144 678 106 649 q 233 724 182 708 q 344 739 285 739 q 497 714 426 739 q 624 642 568 689 l 558 550 q 343 631 457 631 q 245 606 285 631 q 206 529 206 582 q 214 492 206 507 q 241 465 222 476 q 290 445 260 454 q 364 425 319 436 q 491 389 438 407 q 579 347 544 371 q 631 290 614 322 q 647 211 647 257 q 569 47 647 107 q 356 -14 490 -14 m 274 -262 l 274 -101 l 411 -101 l 411 -262 l 274 -262 z "},"Ṭ":{"ha":856,"x_min":21,"x_max":835,"o":"m 356 -262 l 356 -101 l 493 -101 l 493 -262 l 356 -262 m 835 849 l 507 849 l 507 0 l 350 0 l 350 849 l 21 849 l 21 986 l 835 986 l 835 849 z "},"ṭ":{"ha":510,"x_min":33,"x_max":496,"o":"m 229 -262 l 229 -101 l 367 -101 l 367 -262 l 229 -262 m 496 38 q 415 6 467 24 q 306 -11 364 -11 q 238 -1 269 -11 q 181 28 206 8 q 143 78 157 47 q 129 154 129 110 l 129 608 l 33 608 l 33 726 l 129 726 l 129 965 l 282 965 l 282 726 l 440 726 l 440 608 l 282 608 l 282 203 q 306 147 285 164 q 360 129 328 129 q 421 140 392 129 q 464 158 450 151 l 496 38 z "},"Ẁ":{"ha":1460,"x_min":6,"x_max":1454,"o":"m 461 982 l 608 982 l 729 647 l 851 982 l 997 982 l 829 543 l 976 181 l 1283 986 l 1454 986 l 1047 0 l 914 0 l 731 442 l 546 0 l 413 0 l 6 986 l 175 986 l 483 181 l 631 543 l 461 982 m 568 1274 l 714 1274 l 793 1121 l 696 1090 l 568 1274 z "},"ẁ":{"ha":1153,"x_min":8,"x_max":1143,"o":"m 997 726 l 1143 726 l 838 0 l 711 0 l 576 338 l 442 0 l 315 0 l 8 726 l 154 726 l 389 147 l 494 417 l 368 725 l 493 725 l 576 497 l 658 725 l 783 725 l 658 417 l 764 147 l 997 726 m 417 1014 l 563 1014 l 642 861 l 544 831 l 417 1014 z "},"Ẃ":{"ha":1460,"x_min":6,"x_max":1454,"o":"m 763 1089 l 663 1119 l 742 1272 l 888 1272 l 763 1089 m 461 982 l 608 982 l 729 647 l 851 982 l 997 982 l 829 543 l 976 181 l 1283 986 l 1454 986 l 1047 0 l 914 0 l 731 442 l 546 0 l 413 0 l 6 986 l 175 986 l 483 181 l 631 543 l 461 982 z "},"ẃ":{"ha":1153,"x_min":8,"x_max":1143,"o":"m 610 831 l 510 861 l 589 1014 l 735 1014 l 610 831 m 997 726 l 1143 726 l 838 0 l 711 0 l 576 338 l 442 0 l 315 0 l 8 726 l 154 726 l 389 147 l 494 417 l 368 725 l 493 725 l 576 497 l 658 725 l 783 725 l 658 417 l 764 147 l 997 726 z "},"Ẅ":{"ha":1460,"x_min":6,"x_max":1454,"o":"m 543 1114 l 543 1267 l 671 1267 l 671 1114 l 543 1114 m 789 1114 l 789 1267 l 917 1267 l 917 1114 l 789 1114 m 461 982 l 608 982 l 729 647 l 851 982 l 997 982 l 829 543 l 976 181 l 1283 986 l 1454 986 l 1047 0 l 914 0 l 731 442 l 546 0 l 413 0 l 6 986 l 175 986 l 483 181 l 631 543 l 461 982 z "},"ẅ":{"ha":1153,"x_min":8,"x_max":1143,"o":"m 389 854 l 389 1007 l 517 1007 l 517 854 l 389 854 m 635 854 l 635 1007 l 763 1007 l 763 854 l 635 854 m 997 726 l 1143 726 l 838 0 l 711 0 l 576 338 l 442 0 l 315 0 l 8 726 l 154 726 l 389 147 l 494 417 l 368 725 l 493 725 l 576 497 l 658 725 l 783 725 l 658 417 l 764 147 l 997 726 z "},"Ẓ":{"ha":874,"x_min":43,"x_max":825,"o":"m 43 119 l 642 849 l 57 849 l 57 986 l 824 986 l 824 867 l 239 138 l 825 138 l 825 0 l 43 0 l 43 119 m 379 -262 l 379 -101 l 517 -101 l 517 -262 l 379 -262 z "},"ẓ":{"ha":685,"x_min":39,"x_max":640,"o":"m 39 96 l 475 618 l 54 618 l 54 726 l 636 726 l 636 631 l 203 108 l 640 108 l 640 0 l 39 0 l 39 96 m 269 -262 l 269 -101 l 407 -101 l 407 -262 l 269 -262 z "},"Ẹ":{"ha":838,"x_min":111,"x_max":788,"o":"m 788 138 l 788 0 l 111 0 l 111 986 l 775 986 l 775 849 l 267 849 l 267 568 l 707 568 l 707 439 l 267 439 l 267 138 l 788 138 m 375 -262 l 375 -101 l 513 -101 l 513 -262 l 375 -262 z "},"ẹ":{"ha":826,"x_min":44,"x_max":793,"o":"m 421 -14 q 267 16 336 -14 q 148 97 197 46 q 72 217 99 149 q 44 361 44 285 q 72 506 44 438 q 148 627 99 575 q 267 709 197 679 q 422 739 336 739 q 576 708 507 739 q 693 627 644 678 q 767 509 742 576 q 793 368 793 442 q 792 337 793 351 q 789 313 790 322 l 207 313 q 230 225 211 264 q 278 158 249 186 q 347 114 308 129 q 426 99 385 99 q 487 106 457 99 q 542 128 517 114 q 586 164 567 143 q 617 210 606 185 l 747 172 q 623 38 710 90 q 421 -14 536 -14 m 642 418 q 619 503 638 464 q 571 569 600 542 q 503 611 542 596 q 421 626 464 626 q 340 611 378 626 q 272 569 301 596 q 225 503 243 542 q 203 418 207 464 l 642 418 m 353 -262 l 353 -101 l 490 -101 l 490 -262 l 353 -262 z "},"Ẽ":{"ha":838,"x_min":111,"x_max":788,"o":"m 788 138 l 788 0 l 111 0 l 111 986 l 775 986 l 775 849 l 267 849 l 267 568 l 707 568 l 707 439 l 267 439 l 267 138 l 788 138 m 546 1113 q 490 1122 514 1113 q 447 1142 467 1131 q 407 1163 426 1154 q 365 1172 388 1172 q 328 1163 342 1172 q 308 1141 315 1153 q 299 1118 301 1129 q 297 1106 297 1107 l 211 1106 q 218 1143 211 1117 q 242 1197 225 1169 q 288 1244 260 1224 q 360 1265 317 1265 q 413 1256 390 1265 q 456 1235 436 1246 q 497 1214 476 1224 q 542 1204 517 1204 q 582 1214 567 1204 q 605 1236 597 1224 q 615 1259 613 1249 q 617 1272 617 1269 l 704 1272 q 697 1238 704 1264 q 671 1183 689 1211 q 622 1134 653 1156 q 546 1113 592 1113 z "},"ẽ":{"ha":826,"x_min":44,"x_max":793,"o":"m 421 -14 q 267 16 336 -14 q 148 97 197 46 q 72 217 99 149 q 44 361 44 285 q 72 506 44 438 q 148 627 99 575 q 267 709 197 679 q 422 739 336 739 q 576 708 507 739 q 693 627 644 678 q 767 509 742 576 q 793 368 793 442 q 792 337 793 351 q 789 313 790 322 l 207 313 q 230 225 211 264 q 278 158 249 186 q 347 114 308 129 q 426 99 385 99 q 487 106 457 99 q 542 128 517 114 q 586 164 567 143 q 617 210 606 185 l 747 172 q 623 38 710 90 q 421 -14 536 -14 m 642 418 q 619 503 638 464 q 571 569 600 542 q 503 611 542 596 q 421 626 464 626 q 340 611 378 626 q 272 569 301 596 q 225 503 243 542 q 203 418 207 464 l 642 418 m 504 854 q 449 863 472 854 q 405 884 425 872 q 365 905 385 896 q 324 914 346 914 q 287 904 300 914 q 267 883 274 894 q 258 860 260 871 q 256 847 256 849 l 169 847 q 176 885 169 858 q 201 938 183 911 q 247 986 218 965 q 318 1007 275 1007 q 372 997 349 1007 q 415 976 394 988 q 455 956 435 965 q 500 946 475 946 q 540 956 525 946 q 563 978 556 965 q 573 1001 571 990 q 575 1014 575 1011 l 663 1014 q 655 979 663 1006 q 629 925 647 953 q 581 876 611 897 q 504 854 550 854 z "},"Ị":{"ha":378,"x_min":111,"x_max":267,"o":"m 111 0 l 111 986 l 267 986 l 267 0 l 111 0 m 117 -262 l 117 -101 l 254 -101 l 254 -262 l 117 -262 z "},"ị":{"ha":336,"x_min":92,"x_max":244,"o":"m 92 0 l 92 726 l 244 726 l 244 0 l 92 0 m 92 846 l 92 1014 l 244 1014 l 244 846 l 92 846 m 97 -262 l 97 -101 l 235 -101 l 235 -262 l 97 -262 z "},"Ọ":{"ha":1044,"x_min":49,"x_max":994,"o":"m 451 -262 l 451 -101 l 589 -101 l 589 -262 l 451 -262 m 521 -7 q 328 35 415 -7 q 179 148 242 78 q 83 308 117 218 q 49 493 49 399 q 85 682 49 592 q 184 842 121 772 q 334 952 247 911 q 524 993 421 993 q 716 949 629 993 q 865 835 803 906 q 960 674 926 764 q 994 492 994 585 q 959 303 994 393 q 860 144 924 213 q 709 34 796 75 q 521 -7 622 -7 m 207 493 q 229 358 207 424 q 292 243 251 293 q 392 163 333 193 q 522 133 450 133 q 655 165 597 133 q 753 247 713 196 q 814 363 793 299 q 835 493 835 426 q 813 628 835 564 q 749 742 790 693 q 651 822 708 792 q 522 851 593 851 q 389 820 447 851 q 290 739 331 789 q 228 624 250 689 q 207 493 207 560 z "},"ọ":{"ha":836,"x_min":44,"x_max":792,"o":"m 350 -262 l 350 -101 l 488 -101 l 488 -262 l 350 -262 m 418 -14 q 263 17 332 -14 q 146 99 194 47 q 71 219 97 150 q 44 363 44 288 q 71 506 44 438 q 147 626 97 575 q 265 708 196 678 q 418 739 333 739 q 572 708 503 739 q 690 626 640 678 q 765 506 739 575 q 792 363 792 438 q 765 219 792 288 q 690 99 739 150 q 572 17 640 47 q 418 -14 503 -14 m 201 361 q 218 264 201 308 q 264 187 235 219 q 333 135 293 154 q 418 117 372 117 q 503 135 464 117 q 572 188 543 154 q 618 265 601 221 q 635 363 635 310 q 618 459 635 414 q 572 538 601 504 q 503 590 543 571 q 418 608 464 608 q 334 589 374 608 q 265 536 294 569 q 219 458 236 503 q 201 361 201 413 z "},"Ụ":{"ha":1044,"x_min":97,"x_max":949,"o":"m 522 133 q 651 164 600 133 q 734 244 703 194 q 778 356 765 293 q 792 486 792 419 l 792 986 l 949 986 l 949 486 q 925 295 949 385 q 850 138 901 206 q 717 32 799 71 q 522 -7 636 -7 q 323 34 404 -7 q 192 144 242 75 q 119 301 142 213 q 97 486 97 390 l 97 986 l 253 986 l 253 486 q 266 355 253 418 q 310 242 279 292 q 394 163 342 193 q 522 133 446 133 m 454 -262 l 454 -101 l 592 -101 l 592 -262 l 454 -262 z "},"ụ":{"ha":846,"x_min":85,"x_max":785,"o":"m 315 -14 q 143 60 201 -14 q 85 282 85 135 l 85 726 l 238 726 l 238 313 q 376 117 238 117 q 500 157 442 117 q 590 274 558 197 l 590 726 l 743 726 l 743 181 q 752 143 743 154 q 785 131 761 132 l 785 0 q 746 -6 761 -4 q 717 -7 731 -7 q 646 16 675 -7 q 615 75 617 39 l 613 147 q 486 27 564 68 q 315 -14 408 -14 m 336 -262 l 336 -101 l 474 -101 l 474 -262 l 336 -262 z "},"Ỳ":{"ha":913,"x_min":13,"x_max":901,"o":"m 183 986 l 456 492 l 731 986 l 901 986 l 533 353 l 533 0 l 378 0 l 378 356 l 13 986 l 183 986 m 294 1274 l 440 1274 l 519 1121 l 422 1090 l 294 1274 z "},"ỳ":{"ha":760,"x_min":13,"x_max":739,"o":"m 117 -171 q 158 -178 138 -175 q 190 -181 178 -181 q 222 -173 208 -181 q 249 -146 235 -165 q 277 -91 263 -126 q 311 0 292 -56 l 13 726 l 169 726 l 394 135 l 594 726 l 739 726 l 410 -168 q 333 -273 388 -231 q 192 -315 278 -315 q 157 -313 175 -315 q 117 -304 139 -311 l 117 -171 m 233 1014 l 379 1014 l 458 861 l 361 831 l 233 1014 z "},"Ỹ":{"ha":913,"x_min":13,"x_max":901,"o":"m 183 986 l 456 492 l 731 986 l 901 986 l 533 353 l 533 0 l 378 0 l 378 356 l 13 986 l 183 986 m 543 1113 q 488 1122 511 1113 q 444 1142 464 1131 q 404 1163 424 1154 q 363 1172 385 1172 q 326 1163 339 1172 q 306 1141 313 1153 q 297 1118 299 1129 q 294 1106 294 1107 l 208 1106 q 215 1143 208 1117 q 240 1197 222 1169 q 285 1244 257 1224 q 357 1265 314 1265 q 410 1256 388 1265 q 453 1235 433 1246 q 494 1214 474 1224 q 539 1204 514 1204 q 579 1214 564 1204 q 602 1236 594 1224 q 612 1259 610 1249 q 614 1272 614 1269 l 701 1272 q 694 1238 701 1264 q 668 1183 686 1211 q 619 1134 650 1156 q 543 1113 589 1113 z "},"ỹ":{"ha":760,"x_min":13,"x_max":739,"o":"m 117 -171 q 158 -178 138 -175 q 190 -181 178 -181 q 222 -173 208 -181 q 249 -146 235 -165 q 277 -91 263 -126 q 311 0 292 -56 l 13 726 l 169 726 l 394 135 l 594 726 l 739 726 l 410 -168 q 333 -273 388 -231 q 192 -315 278 -315 q 157 -313 175 -315 q 117 -304 139 -311 l 117 -171 m 481 854 q 425 863 449 854 q 381 884 401 872 q 342 905 361 896 q 300 914 322 914 q 263 904 276 914 q 243 883 250 894 q 234 860 236 871 q 232 847 232 849 l 146 847 q 153 885 146 858 q 177 938 160 911 q 223 986 194 965 q 294 1007 251 1007 q 348 997 325 1007 q 391 976 371 988 q 431 956 411 965 q 476 946 451 946 q 517 956 501 946 q 540 978 532 965 q 549 1001 547 990 q 551 1014 551 1011 l 639 1014 q 631 979 639 1006 q 606 925 624 953 q 557 876 588 897 q 481 854 526 854 z "}," ":{"ha":825,"x_min":0,"x_max":0,"o":""}," ":{"ha":1283,"x_min":0,"x_max":0,"o":""},"–":{"ha":822,"x_min":85,"x_max":738,"o":"m 85 311 l 85 449 l 738 449 l 738 311 l 85 311 z "},"—":{"ha":1276,"x_min":85,"x_max":1192,"o":"m 85 311 l 85 449 l 1192 449 l 1192 311 l 85 311 z "},"‘":{"ha":314,"x_min":82,"x_max":232,"o":"m 213 1014 l 183 850 l 232 850 l 232 678 l 82 678 l 82 851 l 128 1014 l 213 1014 z "}}}
